STARTFONT 2.1
FONT -FontForge-Bungee Shade-Book-R-Normal--28-280-72-72-P-240-ISO10646-1
SIZE 28 72 72
FONTBOUNDINGBOX 71 72 -17 -26
COMMENT "Generated by fontforge, http://fontforge.sourceforge.net"
COMMENT "Copyright 2008 The Bungee Project Authors (david@djr.com)"
STARTPROPERTIES 39
FOUNDRY "FontForge"
FAMILY_NAME "Bungee Shade"
WEIGHT_NAME "Book"
SLANT "R"
SETWIDTH_NAME "Normal"
ADD_STYLE_NAME ""
PIXEL_SIZE 28
POINT_SIZE 280
RESOLUTION_X 72
RESOLUTION_Y 72
SPACING "P"
AVERAGE_WIDTH 240
CHARSET_REGISTRY "ISO10646"
CHARSET_ENCODING "1"
FONTNAME_REGISTRY ""
CHARSET_COLLECTIONS "ISO8859-2 ISO8859-9 ISO8859-4 ISO10646-1"
FONT_NAME "BungeeShade-Regular"
FACE_NAME "Bungee Shade"
COPYRIGHT "Copyright 2008 The Bungee Project Authors (david@djr.com)"
FONT_VERSION "1.000;PS 1.0;hotconv 1.0.72;makeotf.lib2.5.5900"
FONT_ASCENT 24
FONT_DESCENT 4
UNDERLINE_POSITION 0
UNDERLINE_THICKNESS 0
X_HEIGHT 20
CAP_HEIGHT 20
RAW_ASCENT 860
RAW_DESCENT 140
NORM_SPACE 9
RELATIVE_WEIGHT 40
RELATIVE_SETWIDTH 50
SUPERSCRIPT_X 0
SUPERSCRIPT_Y 9
SUPERSCRIPT_SIZE 16
SUBSCRIPT_X 0
SUBSCRIPT_Y 2
SUBSCRIPT_SIZE 16
AVG_LOWERCASE_WIDTH 229
AVG_UPPERCASE_WIDTH 233
ENDPROPERTIES
CHARS 1065
STARTCHAR space
ENCODING 32
SWIDTH 325 0
DWIDTH 9 0
BBX 1 1 0 0
BITMAP
00
ENDCHAR
STARTCHAR exclam
ENCODING 33
SWIDTH 524 0
DWIDTH 15 0
BBX 11 24 2 -3
BITMAP
1FE0
3020
7020
F120
F120
F120
F120
F120
F120
F120
F120
F020
F020
FFC0
FFC0
F020
3020
F120
F020
F020
F020
FFC0
FF00
FE00
ENDCHAR
STARTCHAR quotedbl
ENCODING 34
SWIDTH 746 0
DWIDTH 21 0
BBX 19 14 1 7
BITMAP
1FEFE0
303020
703020
F23120
F23120
F23120
F23120
F23120
F03020
F03020
F03820
FFFFC0
FF7F80
FE7F00
ENDCHAR
STARTCHAR numbersign
ENCODING 35
SWIDTH 850 0
DWIDTH 24 0
BBX 24 24 0 -3
BITMAP
00FCFC
010584
030704
072726
082021
182021
38FFF9
782021
784121
7E4E4E
7E4E48
7E4E4C
104042
304042
71FFF2
F08042
F08082
FC9C9C
FC1C10
FC1C10
3C3C20
3FFFC0
3FBF80
3E3E00
ENDCHAR
STARTCHAR dollar
ENCODING 36
SWIDTH 750 0
DWIDTH 21 0
BBX 20 29 1 -5
BITMAP
007C00
008200
030200
0611E0
081020
101020
30FF20
710020
F20020
F23FC0
F23F00
F200C0
F18020
F07C20
F80310
FC0090
FFE090
7FF890
3FF090
300110
73FE10
F01020
F01040
FF0180
FF0100
FF8200
FFFC00
07F800
07F000
ENDCHAR
STARTCHAR percent
ENCODING 37
SWIDTH 1131 0
DWIDTH 32 0
BBX 31 24 0 -3
BITMAP
07F87E00
09F4C200
1A0B8200
320B9200
72CB9400
72CBA400
F2CB2400
F2CB2400
F24B2978
F20B4A06
F9F24CF2
7C06490A
7FFE4926
7FFE9966
3FDC9966
001C9966
001C9966
003CB90A
003838A2
00383C02
003FFF0C
007FFFF0
007F3FE0
007C1FC0
ENDCHAR
STARTCHAR ampersand
ENCODING 38
SWIDTH 866 0
DWIDTH 24 0
BBX 24 24 0 -3
BITMAP
00FFE0
010020
020020
0C3F20
1C4020
1C4020
3C4FC0
3C4F00
3E4200
3F427E
18F181
190199
310191
713F91
713F91
F11F12
F10012
F0FFE2
F80004
FC0004
7F0038
7FFFE0
3FFFC0
1FFF00
ENDCHAR
STARTCHAR quotesingle
ENCODING 39
SWIDTH 456 0
DWIDTH 13 0
BBX 11 14 1 7
BITMAP
1FE0
3020
7020
F120
F120
F120
F120
F120
F020
F020
F020
FFC0
FF80
FE00
ENDCHAR
STARTCHAR parenleft
ENCODING 40
SWIDTH 529 0
DWIDTH 15 0
BBX 13 29 1 -6
BITMAP
01F0
0608
0808
10C8
3108
7208
F218
F230
F220
F220
F220
F220
F220
F220
F220
F220
F220
F220
F220
F220
F210
F108
F0C8
F808
FC08
FF88
7FF0
7FE0
1FC0
ENDCHAR
STARTCHAR parenright
ENCODING 41
SWIDTH 529 0
DWIDTH 15 0
BBX 13 29 1 -6
BITMAP
0EC0
1020
6010
E388
E048
F048
FC48
FE48
FE48
3E48
1E48
1E48
1E48
1E48
1E48
1E48
1E48
1E48
1E48
1C48
1048
2048
6388
E008
E030
F1C0
FF80
FF00
FC00
ENDCHAR
STARTCHAR asterisk
ENCODING 42
SWIDTH 818 0
DWIDTH 23 0
BBX 21 20 1 1
BITMAP
007F00
00C100
01C200
07CA20
08CAD0
182B08
310848
70EB88
701C08
FF94F0
FF2460
FE2240
1C4920
0C0810
1E1C20
3F3C40
3FBF80
3FBE00
0F3C00
061000
ENDCHAR
STARTCHAR plus
ENCODING 43
SWIDTH 834 0
DWIDTH 23 0
BBX 21 21 1 -2
BITMAP
003E00
004100
00C100
01C900
03C900
03C900
0FC9F8
100808
300808
71FFC8
F00808
F00808
FFC9F0
FFC9E0
FFC9C0
03C100
03C100
03C300
03FC00
03F800
03F000
ENDCHAR
STARTCHAR comma
ENCODING 44
SWIDTH 484 0
DWIDTH 14 0
BBX 12 15 1 -6
BITMAP
0FE0
1010
3010
7390
F050
F050
F050
FF50
F090
F320
7020
FFC0
FF00
FE00
7800
ENDCHAR
STARTCHAR hyphen
ENCODING 45
SWIDTH 520 0
DWIDTH 15 0
BBX 14 10 0 4
BITMAP
0FF8
1004
3004
71E4
F004
F004
F804
FFF8
FFF0
7FC0
ENDCHAR
STARTCHAR period
ENCODING 46
SWIDTH 484 0
DWIDTH 14 0
BBX 12 12 1 -3
BITMAP
0FE0
1010
3010
7110
F110
F110
F010
F010
F030
FFC0
FF80
FF00
ENDCHAR
STARTCHAR slash
ENCODING 47
SWIDTH 487 0
DWIDTH 14 0
BBX 14 29 0 -5
BITMAP
01F8
0204
0604
0E24
1E44
1E48
1E48
1E48
1C48
1C48
1C48
3C88
3C90
3C90
3890
3890
3890
3890
7910
7920
7920
7120
7120
7020
7020
F840
FF80
FF00
FE00
ENDCHAR
STARTCHAR zero
ENCODING 48
SWIDTH 827 0
DWIDTH 23 0
BBX 21 24 1 -3
BITMAP
01FFC0
060030
087F08
108088
310048
713C48
F13E48
F13E48
F13E48
F13E48
F13E48
F13E48
F13E48
F13E48
F13C48
F10048
F08088
F05F08
F80008
FC0030
7FE3C0
7FFF80
3FFF00
07F800
ENDCHAR
STARTCHAR one
ENCODING 49
SWIDTH 701 0
DWIDTH 20 0
BBX 18 24 1 -3
BITMAP
0FFE00
100200
300200
71E200
F02200
F02200
FF2200
FF2200
FF2200
7F2200
0F2200
0F2200
0F2200
0F2200
0F2200
0F2380
102040
702040
F3FE40
F00040
F00040
FFFF80
FFFF00
FFFE00
ENDCHAR
STARTCHAR two
ENCODING 50
SWIDTH 739 0
DWIDTH 21 0
BBX 20 24 0 -3
BITMAP
07FFC0
080020
180010
38FF10
380090
3C0090
3FF890
3FF090
3F8090
020310
043C10
08C020
1900C0
310700
711E00
711FE0
F10010
F1FF90
F00010
F00010
F80010
FFFFE0
FFFF80
7FFF00
ENDCHAR
STARTCHAR three
ENCODING 51
SWIDTH 737 0
DWIDTH 21 0
BBX 19 24 1 -3
BITMAP
1FFF00
300080
700080
F3F840
F00440
F00440
FFE440
FFE480
FC0480
0C05C0
1CFA20
3C0120
3C0120
3FF920
3FF920
300120
300120
73FE20
F00020
F00040
F00180
FFFF00
FFFC00
FFF800
ENDCHAR
STARTCHAR four
ENCODING 52
SWIDTH 809 0
DWIDTH 23 0
BBX 20 24 1 -3
BITMAP
0FE7F0
102410
702C10
F13C90
F13C90
F13C90
F13C90
F13C90
F13C90
F13C90
F10090
F10090
F10090
F0FF90
F80090
FC0090
7FFC90
7FFC90
3FFC10
003C10
003C10
003FE0
003FC0
003F80
ENDCHAR
STARTCHAR five
ENCODING 53
SWIDTH 747 0
DWIDTH 21 0
BBX 19 24 1 -3
BITMAP
0FFFC0
100020
700020
F1FF20
F10020
F10020
F13FC0
F13F00
F100C0
F10020
F1FE20
F00120
F00120
FFF920
FFF920
F00120
300120
73FE20
F00020
F00040
F00180
FFFF00
FFFC00
FFF800
ENDCHAR
STARTCHAR six
ENCODING 54
SWIDTH 793 0
DWIDTH 22 0
BBX 21 24 1 -3
BITMAP
03FFE0
040020
08BF20
110020
310020
713FC0
F13F80
F10060
F10010
F1FF10
F10088
F10048
F13C48
F13C48
F13C48
F11848
F10088
F18090
F87F10
FC0020
7FE3C0
7FFF00
3FFE00
0FF800
ENDCHAR
STARTCHAR seven
ENCODING 55
SWIDTH 727 0
DWIDTH 20 0
BBX 20 24 0 -3
BITMAP
0FFFF0
100010
300010
71FF10
F00090
F00090
FFF890
FFF890
FFF890
00C090
010110
020E20
063020
0C40C0
1C4300
1C4600
3C4400
3C4400
3C0400
3C0400
3E0800
3FF000
3FE000
1F8000
ENDCHAR
STARTCHAR eight
ENCODING 56
SWIDTH 811 0
DWIDTH 23 0
BBX 21 24 1 -3
BITMAP
01FFC0
060020
087E10
188190
390090
793C90
793C90
791C90
7E80A0
787F10
718088
320048
723C48
F23E48
F23E48
F20848
F20048
F10088
F0DF08
FC0030
FFC3C0
7FFF80
3FFF00
0FF800
ENDCHAR
STARTCHAR nine
ENCODING 57
SWIDTH 793 0
DWIDTH 22 0
BBX 20 24 1 -3
BITMAP
03FF80
040060
08FE10
110110
720090
F23890
F23C90
F23C90
F21890
F20090
F10190
F8FA90
FC0090
FFFC90
7FF890
3C0090
0C0090
1CFD10
3C0010
3C0020
3C01C0
3FFF00
3FFE00
3FF800
ENDCHAR
STARTCHAR colon
ENCODING 58
SWIDTH 484 0
DWIDTH 14 0
BBX 12 22 1 -3
BITMAP
0FE0
1010
3010
F110
F110
F110
F010
F010
FFE0
FFC0
FFE0
F010
3010
7110
F110
F110
F010
F010
F030
FFC0
FF80
FF00
ENDCHAR
STARTCHAR semicolon
ENCODING 59
SWIDTH 484 0
DWIDTH 14 0
BBX 12 25 1 -6
BITMAP
0FE0
1010
3010
F110
F110
F110
F010
F010
FFE0
FFC0
FFE0
7010
3010
F390
F050
F050
F050
FF50
F090
F320
7020
FFC0
FF00
FE00
7800
ENDCHAR
STARTCHAR less
ENCODING 60
SWIDTH 814 0
DWIDTH 23 0
BBX 19 21 2 -2
BITMAP
0001E0
000E20
00F020
070120
080E20
10F020
330040
620780
E27F00
E23C00
E20300
F180C0
F07020
F80E20
FF0120
FFE020
7FFE20
1FFFE0
03FF80
003F00
000600
ENDCHAR
STARTCHAR equal
ENCODING 61
SWIDTH 834 0
DWIDTH 23 0
BBX 21 18 1 0
BITMAP
0FFFF8
100008
300008
71FFC8
F00008
F00008
FFFFF0
FFFFE0
FFFFC0
7FFFF8
100008
300008
71FFC8
F00008
F80008
FFFFF0
FFFFE0
FFFF80
ENDCHAR
STARTCHAR greater
ENCODING 62
SWIDTH 814 0
DWIDTH 23 0
BBX 19 21 2 -2
BITMAP
1E0000
31E000
701800
F30380
F0E040
F01E20
FC0120
FF80A0
FFF8A0
7FF8A0
0780A0
080720
103820
73C040
F00180
F01E00
F0FC00
FFF000
FF0000
F80000
800000
ENDCHAR
STARTCHAR question
ENCODING 63
SWIDTH 756 0
DWIDTH 21 0
BBX 20 24 1 -3
BITMAP
1FFF80
200040
600020
E3FE10
E00110
F00090
FFF890
FFF890
FE0090
040110
1C7E10
3C8020
3C0040
3C0F80
3FFE00
3C0400
1C0800
3C4800
3C0800
3C0800
3C0800
3FF000
3FE000
3F8000
ENDCHAR
STARTCHAR at
ENCODING 64
SWIDTH 967 0
DWIDTH 27 0
BBX 25 29 1 -5
BITMAP
001F9000
01F76C00
07801E00
0A3FE300
14FFFA80
35FFFD80
753FFD80
76400D80
F68FCD80
F5302D80
F5272D80
F5272D80
F5272D80
F5272D80
F5272D80
F5272D80
F5202D80
F5A02280
F59FFD00
F5C00200
F5FFFC00
F4FFF000
FA1FF000
FD800800
7E67E800
7FE00800
3FFFF000
0FFFC000
03FF8000
ENDCHAR
STARTCHAR A
ENCODING 65
SWIDTH 830 0
DWIDTH 23 0
BBX 21 24 1 -3
BITMAP
01FFC0
020040
060020
0C3E20
1C4110
1C8110
189890
389C88
391C48
711C48
713E48
720048
F20028
F1FFC8
F20028
F20028
F23E28
F23E28
F03E08
F05E08
F05E08
FF9FF0
FF1FE0
FC1FC0
ENDCHAR
STARTCHAR B
ENCODING 66
SWIDTH 825 0
DWIDTH 23 0
BBX 22 24 1 -3
BITMAP
0FFFC0
100020
300010
71FE10
F10110
F13C90
F13C90
F13C90
F100A0
F10090
F1FF88
F10044
F10024
F13E24
F13E24
F13E24
F10044
F1FF84
F00008
F00008
F80070
FFFFC0
FFFF80
FFFE00
ENDCHAR
STARTCHAR C
ENCODING 67
SWIDTH 728 0
DWIDTH 20 0
BBX 19 24 1 -3
BITMAP
03FFE0
040020
080020
10FF20
310020
710020
F11FC0
F13F80
F13E00
F12000
F12000
F12000
F12000
F12000
F12000
F11FC0
F10020
F0BF20
F80020
FC0020
7F8020
7FFFC0
3FFF00
0FFE00
ENDCHAR
STARTCHAR D
ENCODING 68
SWIDTH 846 0
DWIDTH 24 0
BBX 22 24 1 -3
BITMAP
0FFFE0
100010
300008
71FE84
F10044
F10024
F11E24
F11E24
F11E24
F11E24
F11E24
F11E24
F11E24
F11E24
F11E24
F11C24
F10044
F1FE84
F00008
F00010
F800E0
FFFFC0
FFFF00
FFFE00
ENDCHAR
STARTCHAR E
ENCODING 69
SWIDTH 754 0
DWIDTH 21 0
BBX 19 24 1 -3
BITMAP
0FFFE0
100020
300020
71FFA0
F10020
F10020
F13FC0
F13F80
F10080
F10040
F1FC40
F10040
F10080
F13F00
F13E00
F13FE0
F10020
F1FFA0
F00020
F00020
F80020
FFFFC0
FFFF80
FFFF00
ENDCHAR
STARTCHAR F
ENCODING 70
SWIDTH 718 0
DWIDTH 20 0
BBX 19 24 1 -3
BITMAP
0FFFE0
100020
300020
71FF20
F10020
F10020
F11FC0
F11F80
F11F00
F10080
F10080
F1FC80
F10080
F10080
F11F00
F11E00
F11800
F12000
F02000
F02000
F82000
FFC000
FF0000
FE0000
ENDCHAR
STARTCHAR G
ENCODING 71
SWIDTH 808 0
DWIDTH 23 0
BBX 21 24 1 -3
BITMAP
03FFE0
040020
080020
10FF20
310020
710020
F13FC0
F13F80
F13F00
F123F0
F12408
F12C08
F13C48
F13C48
F13C48
F10048
F10048
F0FFC8
F80008
FC0008
7F8008
7FFFF0
3FFFC0
0FFF80
ENDCHAR
STARTCHAR H
ENCODING 72
SWIDTH 859 0
DWIDTH 24 0
BBX 22 24 1 -3
BITMAP
0FE1FC
102204
302604
712E24
F11E24
F11E24
F11E24
F11E24
F10024
F10024
F1FFC4
F10024
F10024
F10024
F11E24
F11E24
F11E24
F11E24
F01E04
F01E04
F83F04
FFDFF8
FF1FE0
FE1FC0
ENDCHAR
STARTCHAR I
ENCODING 73
SWIDTH 705 0
DWIDTH 20 0
BBX 18 24 1 -3
BITMAP
1FFFC0
300040
700040
F3FE40
F02040
F02040
FE2380
FE2300
FE2200
7E2200
0E2200
0E2200
0E2200
0E2200
0E2200
0E2380
102040
73FE40
F00040
F00040
F00040
FFFF80
FFFE00
FFFC00
ENDCHAR
STARTCHAR J
ENCODING 74
SWIDTH 788 0
DWIDTH 22 0
BBX 21 24 0 -3
BITMAP
0003F8
000408
000C08
001C48
003C48
003C48
003C48
003C48
003C48
0FFC48
103C48
303C48
713C48
F13C48
F11C48
F10048
F08088
F87F08
780010
7E0020
7FE3C0
3FFF80
1FFE00
07F800
ENDCHAR
STARTCHAR K
ENCODING 75
SWIDTH 846 0
DWIDTH 24 0
BBX 22 24 1 -3
BITMAP
0FE3F8
102408
302C08
711C88
F11890
F11910
F11120
F11220
F10218
F10204
F1FF84
F10044
F10024
F11E24
F11E24
F11E24
F11E24
F11E24
F01E04
F01E04
F83F04
FFDFF8
FF1FE0
FE1FC0
ENDCHAR
STARTCHAR L
ENCODING 76
SWIDTH 795 0
DWIDTH 22 0
BBX 21 24 1 -3
BITMAP
0FE000
102000
302000
712000
F12000
F12000
F12000
F12000
F12000
F123F0
F12408
F12C08
F11C48
F11C48
F11C48
F10048
F10048
F1FFC8
F00008
F00008
F80008
FFFFF0
FFFFC0
FFFF80
ENDCHAR
STARTCHAR M
ENCODING 77
SWIDTH 949 0
DWIDTH 27 0
BBX 24 24 1 -3
BITMAP
0FE07F
101081
301181
718B19
F14629
F12649
F11089
F11089
F10909
F12649
F12049
F12049
F130C9
F13FC9
F13FC9
F13BC9
F133C9
F123C9
F023C1
F023C1
F863C1
FF83FE
FF03FC
FE03F8
ENDCHAR
STARTCHAR N
ENCODING 78
SWIDTH 853 0
DWIDTH 24 0
BBX 22 24 1 -3
BITMAP
0FC1FC
102204
301604
710E24
F18624
F14624
F12224
F11024
F10824
F10424
F12224
F12224
F13124
F138A4
F13C44
F13E24
F13E24
F13E24
F03E04
F03E04
F83F0C
FFDFF0
FF1FE0
FE1FC0
ENDCHAR
STARTCHAR O
ENCODING 79
SWIDTH 837 0
DWIDTH 23 0
BBX 22 24 1 -3
BITMAP
01FFC0
060030
087F08
108088
310044
711E44
F13E24
F13E24
F13E24
F13E24
F13E24
F13E24
F13E24
F13E24
F13E44
F10044
F08084
F05D08
F80008
FC0010
7FE3E0
7FFF80
3FFF00
07FC00
ENDCHAR
STARTCHAR P
ENCODING 80
SWIDTH 782 0
DWIDTH 22 0
BBX 21 24 1 -3
BITMAP
0FFFC0
100020
300010
71FD08
F10088
F10048
F13C48
F13C48
F13C48
F13C48
F10048
F10088
F1FD10
F10010
F10060
F11F80
F11F00
F11C00
F02000
F02000
F82000
FFC000
FF0000
FE0000
ENDCHAR
STARTCHAR Q
ENCODING 81
SWIDTH 837 0
DWIDTH 23 0
BBX 22 27 1 -6
BITMAP
01FFC0
060030
080008
107F08
308084
710044
F13E44
F13E24
F13E24
F13E24
F13E24
F13E24
F13E24
F13E24
F13E24
F11E44
F10044
F08084
F85D08
F80810
FE0820
7F80C0
3F8080
1FC100
07FE00
07F800
03F000
ENDCHAR
STARTCHAR R
ENCODING 82
SWIDTH 843 0
DWIDTH 24 0
BBX 22 24 1 -3
BITMAP
0FFFC0
100020
300010
71FC10
F10108
F13888
F13C88
F13C88
F13C90
F100B0
F10088
F1FF04
F10064
F10024
F13E24
F13E24
F13E24
F13E24
F02E04
F02E04
F82F04
FFCFF8
FF0FF0
FE0FC0
ENDCHAR
STARTCHAR S
ENCODING 83
SWIDTH 750 0
DWIDTH 21 0
BBX 20 24 1 -3
BITMAP
03FFE0
040020
080020
30FF20
710020
F20020
F23FC0
F23F00
F200C0
F18020
F07C20
F80310
FC0090
FFC090
7FF890
3FF090
300110
73FE10
F00020
F00040
F00180
FFFF00
FFFE00
FFF800
ENDCHAR
STARTCHAR T
ENCODING 84
SWIDTH 756 0
DWIDTH 21 0
BBX 21 24 0 -3
BITMAP
0FFFF8
100008
300008
F1FFC8
F00808
F00808
FF88F0
FF88E0
FF88C0
078900
078900
078900
078900
078900
078900
078900
078900
078900
078100
078100
07C100
07FE00
07F800
07F000
ENDCHAR
STARTCHAR U
ENCODING 85
SWIDTH 846 0
DWIDTH 24 0
BBX 22 24 1 -3
BITMAP
0FE1FC
102204
702E04
F13E24
F13E24
F13E24
F13E24
F13E24
F13E24
F13E24
F13E24
F13E24
F13E24
F13E24
F11C24
F10044
F080C4
F07D04
F80008
FC0010
7FE3E0
7FFF80
1FFF00
07FC00
ENDCHAR
STARTCHAR V
ENCODING 86
SWIDTH 830 0
DWIDTH 23 0
BBX 21 24 1 -3
BITMAP
1FE3F8
302608
702E08
F13E48
F13E48
F13E48
F13E48
F13E48
F13E48
F13E48
F11C48
F11C48
F91C88
F88888
F88090
7C4110
7C4120
7C3E20
3E0020
3E0040
1F00C0
1FFF00
1FFE00
0FFC00
ENDCHAR
STARTCHAR W
ENCODING 87
SWIDTH 931 0
DWIDTH 26 0
BBX 24 24 1 -3
BITMAP
1FE07F
1020C1
7021C1
F123C9
F123C9
F123C9
F123C9
F12FC9
F130C9
F120C9
F12049
F12649
F10909
F11089
F11089
F12649
F92651
F8C622
F80E02
7C0F02
7E1F04
7FFFF8
3FCFE0
3F0FC0
ENDCHAR
STARTCHAR X
ENCODING 88
SWIDTH 837 0
DWIDTH 23 0
BBX 21 24 1 -3
BITMAP
1FE3F8
102208
702608
F13E28
F13E48
F11C48
F08848
F88088
FC4110
7E2120
7E1E20
3C2120
1C4110
188088
311C48
311C48
713E28
F13E28
F03E08
F03E08
F05E08
FF9FF0
FF1FE0
FE1FC0
ENDCHAR
STARTCHAR Y
ENCODING 89
SWIDTH 805 0
DWIDTH 23 0
BBX 21 24 1 -3
BITMAP
1FC3F8
204608
604E08
E25E48
E25E48
E25E48
E25E48
E23C48
F11C48
F11888
F88110
F84120
FC4220
7E3C40
7F0880
3F0880
1F8900
0F8900
0F8100
078100
078100
07FE00
07F800
07F000
ENDCHAR
STARTCHAR Z
ENCODING 90
SWIDTH 760 0
DWIDTH 21 0
BBX 20 24 1 -3
BITMAP
0FFFE0
100010
300010
F1FE10
F00110
F00110
FFE220
FFC420
FF8840
010880
021100
042100
0C4200
188400
110800
310FE0
720010
F1FF90
F00010
F00010
F00010
FFFFE0
FFFF80
FFFF00
ENDCHAR
STARTCHAR bracketleft
ENCODING 91
SWIDTH 529 0
DWIDTH 15 0
BBX 13 29 1 -6
BITMAP
0FF0
1008
7008
F1C8
F208
F208
F238
F230
F220
F220
F220
F220
F220
F220
F220
F220
F220
F220
F220
F220
F230
F208
F1C8
F008
F008
F008
FFF0
FFE0
FFC0
ENDCHAR
STARTCHAR backslash
ENCODING 92
SWIDTH 487 0
DWIDTH 14 0
BBX 14 29 0 -5
BITMAP
0F80
1020
3020
7120
F120
F920
F920
F910
7890
7890
7890
7890
7C90
7C90
7C88
3C48
3C48
3C48
3C48
3E48
3E48
1E44
1E24
1E04
1E04
1F04
1FF8
1FE0
0FC0
ENDCHAR
STARTCHAR bracketright
ENCODING 93
SWIDTH 529 0
DWIDTH 15 0
BBX 13 29 1 -6
BITMAP
0FF0
1008
6008
E3C8
E048
F048
FE48
FE48
FE48
1E48
1E48
1E48
1E48
1E48
1E48
1E48
1E48
1E48
1E48
1E48
1048
2048
63C8
E008
E008
F008
FFF0
FFE0
FF80
ENDCHAR
STARTCHAR asciicircum
ENCODING 94
SWIDTH 814 0
DWIDTH 23 0
BBX 22 19 0 2
BITMAP
007F80
008040
011E40
032120
064120
0E4120
0E4890
1C4C90
1C8C90
1C9C50
1C9C48
389E48
391E48
383E04
703E04
785F0C
7F9FF0
FF0FE0
7E0FC0
ENDCHAR
STARTCHAR underscore
ENCODING 95
SWIDTH 834 0
DWIDTH 23 0
BBX 21 10 1 -6
BITMAP
0FFFF8
100008
300008
71FFC8
F00008
F00008
F80008
FFFFF0
FFFFE0
FFFF80
ENDCHAR
STARTCHAR grave
ENCODING 96
SWIDTH 600 0
DWIDTH 17 0
BBX 16 9 0 18
BITMAP
0FFE
3001
71E1
F01D
F801
FFF9
FFFE
7FFC
03F8
ENDCHAR
STARTCHAR a
ENCODING 97
SWIDTH 830 0
DWIDTH 23 0
BBX 21 24 1 -3
BITMAP
01FFC0
020040
060020
0C3E20
1C4110
1C8110
189890
389C88
391C48
711C48
713E48
720048
F20028
F1FFC8
F20028
F20028
F23E28
F23E28
F03E08
F05E08
F05E08
FF9FF0
FF1FE0
FC1FC0
ENDCHAR
STARTCHAR b
ENCODING 98
SWIDTH 825 0
DWIDTH 23 0
BBX 22 24 1 -3
BITMAP
0FFFC0
100020
300010
71FE10
F10110
F13C90
F13C90
F13C90
F100A0
F10090
F1FF88
F10044
F10024
F13E24
F13E24
F13E24
F10044
F1FF84
F00008
F00008
F80070
FFFFC0
FFFF80
FFFE00
ENDCHAR
STARTCHAR c
ENCODING 99
SWIDTH 728 0
DWIDTH 20 0
BBX 19 24 1 -3
BITMAP
03FFE0
040020
080020
10FF20
310020
710020
F11FC0
F13F80
F13E00
F12000
F12000
F12000
F12000
F12000
F12000
F11FC0
F10020
F0BF20
F80020
FC0020
7F8020
7FFFC0
3FFF00
0FFE00
ENDCHAR
STARTCHAR d
ENCODING 100
SWIDTH 846 0
DWIDTH 24 0
BBX 22 24 1 -3
BITMAP
0FFFE0
100010
300008
71FE84
F10044
F10024
F11E24
F11E24
F11E24
F11E24
F11E24
F11E24
F11E24
F11E24
F11E24
F11C24
F10044
F1FE84
F00008
F00010
F800E0
FFFFC0
FFFF00
FFFE00
ENDCHAR
STARTCHAR e
ENCODING 101
SWIDTH 754 0
DWIDTH 21 0
BBX 19 24 1 -3
BITMAP
0FFFE0
100020
300020
71FFA0
F10020
F10020
F13FC0
F13F80
F10080
F10040
F1FC40
F10040
F10080
F13F00
F13E00
F13FE0
F10020
F1FFA0
F00020
F00020
F80020
FFFFC0
FFFF80
FFFF00
ENDCHAR
STARTCHAR f
ENCODING 102
SWIDTH 718 0
DWIDTH 20 0
BBX 19 24 1 -3
BITMAP
0FFFE0
100020
300020
71FF20
F10020
F10020
F11FC0
F11F80
F11F00
F10080
F10080
F1FC80
F10080
F10080
F11F00
F11E00
F11800
F12000
F02000
F02000
F82000
FFC000
FF0000
FE0000
ENDCHAR
STARTCHAR g
ENCODING 103
SWIDTH 808 0
DWIDTH 23 0
BBX 21 24 1 -3
BITMAP
03FFE0
040020
080020
10FF20
310020
710020
F13FC0
F13F80
F13F00
F123F0
F12408
F12C08
F13C48
F13C48
F13C48
F10048
F10048
F0FFC8
F80008
FC0008
7F8008
7FFFF0
3FFFC0
0FFF80
ENDCHAR
STARTCHAR h
ENCODING 104
SWIDTH 859 0
DWIDTH 24 0
BBX 22 24 1 -3
BITMAP
0FE1FC
102204
302604
712E24
F11E24
F11E24
F11E24
F11E24
F10024
F10024
F1FFC4
F10024
F10024
F10024
F11E24
F11E24
F11E24
F11E24
F01E04
F01E04
F83F04
FFDFF8
FF1FE0
FE1FC0
ENDCHAR
STARTCHAR i
ENCODING 105
SWIDTH 705 0
DWIDTH 20 0
BBX 18 24 1 -3
BITMAP
1FFFC0
300040
700040
F3FE40
F02040
F02040
FE2380
FE2300
FE2200
7E2200
0E2200
0E2200
0E2200
0E2200
0E2200
0E2380
102040
73FE40
F00040
F00040
F00040
FFFF80
FFFE00
FFFC00
ENDCHAR
STARTCHAR j
ENCODING 106
SWIDTH 788 0
DWIDTH 22 0
BBX 21 24 0 -3
BITMAP
0003F8
000408
000C08
001C48
003C48
003C48
003C48
003C48
003C48
0FFC48
103C48
303C48
713C48
F13C48
F11C48
F10048
F08088
F87F08
780010
7E0020
7FE3C0
3FFF80
1FFE00
07F800
ENDCHAR
STARTCHAR k
ENCODING 107
SWIDTH 846 0
DWIDTH 24 0
BBX 22 24 1 -3
BITMAP
0FE3F8
102408
302C08
711C88
F11890
F11910
F11120
F11220
F10218
F10204
F1FF84
F10044
F10024
F11E24
F11E24
F11E24
F11E24
F11E24
F01E04
F01E04
F83F04
FFDFF8
FF1FE0
FE1FC0
ENDCHAR
STARTCHAR l
ENCODING 108
SWIDTH 795 0
DWIDTH 22 0
BBX 21 24 1 -3
BITMAP
0FE000
102000
302000
712000
F12000
F12000
F12000
F12000
F12000
F123F0
F12408
F12C08
F11C48
F11C48
F11C48
F10048
F10048
F1FFC8
F00008
F00008
F80008
FFFFF0
FFFFC0
FFFF80
ENDCHAR
STARTCHAR m
ENCODING 109
SWIDTH 949 0
DWIDTH 27 0
BBX 24 24 1 -3
BITMAP
0FE07F
101081
301181
718B19
F14629
F12649
F11089
F11089
F10909
F12649
F12049
F12049
F130C9
F13FC9
F13FC9
F13BC9
F133C9
F123C9
F023C1
F023C1
F863C1
FF83FE
FF03FC
FE03F8
ENDCHAR
STARTCHAR n
ENCODING 110
SWIDTH 853 0
DWIDTH 24 0
BBX 22 24 1 -3
BITMAP
0FC1FC
102204
301604
710E24
F18624
F14624
F12224
F11024
F10824
F10424
F12224
F12224
F13124
F138A4
F13C44
F13E24
F13E24
F13E24
F03E04
F03E04
F83F0C
FFDFF0
FF1FE0
FE1FC0
ENDCHAR
STARTCHAR o
ENCODING 111
SWIDTH 837 0
DWIDTH 23 0
BBX 22 24 1 -3
BITMAP
01FFC0
060030
087F08
108088
310044
711E44
F13E24
F13E24
F13E24
F13E24
F13E24
F13E24
F13E24
F13E24
F13E44
F10044
F08084
F05D08
F80008
FC0010
7FE3E0
7FFF80
3FFF00
07FC00
ENDCHAR
STARTCHAR p
ENCODING 112
SWIDTH 782 0
DWIDTH 22 0
BBX 21 24 1 -3
BITMAP
0FFFC0
100020
300010
71FD08
F10088
F10048
F13C48
F13C48
F13C48
F13C48
F10048
F10088
F1FD10
F10010
F10060
F11F80
F11F00
F11C00
F02000
F02000
F82000
FFC000
FF0000
FE0000
ENDCHAR
STARTCHAR q
ENCODING 113
SWIDTH 837 0
DWIDTH 23 0
BBX 22 27 1 -6
BITMAP
01FFC0
060030
080008
107F08
308084
710044
F13E44
F13E24
F13E24
F13E24
F13E24
F13E24
F13E24
F13E24
F13E24
F11E44
F10044
F08084
F85D08
F80810
FE0820
7F80C0
3F8080
1FC100
07FE00
07F800
03F000
ENDCHAR
STARTCHAR r
ENCODING 114
SWIDTH 843 0
DWIDTH 24 0
BBX 22 24 1 -3
BITMAP
0FFFC0
100020
300010
71FC10
F10108
F13888
F13C88
F13C88
F13C90
F100B0
F10088
F1FF04
F10064
F10024
F13E24
F13E24
F13E24
F13E24
F02E04
F02E04
F82F04
FFCFF8
FF0FF0
FE0FC0
ENDCHAR
STARTCHAR s
ENCODING 115
SWIDTH 750 0
DWIDTH 21 0
BBX 20 24 1 -3
BITMAP
03FFE0
040020
080020
30FF20
710020
F20020
F23FC0
F23F00
F200C0
F18020
F07C20
F80310
FC0090
FFC090
7FF890
3FF090
300110
73FE10
F00020
F00040
F00180
FFFF00
FFFE00
FFF800
ENDCHAR
STARTCHAR t
ENCODING 116
SWIDTH 756 0
DWIDTH 21 0
BBX 21 24 0 -3
BITMAP
0FFFF8
100008
300008
F1FFC8
F00808
F00808
FF88F0
FF88E0
FF88C0
078900
078900
078900
078900
078900
078900
078900
078900
078900
078100
078100
07C100
07FE00
07F800
07F000
ENDCHAR
STARTCHAR u
ENCODING 117
SWIDTH 846 0
DWIDTH 24 0
BBX 22 24 1 -3
BITMAP
0FE1FC
102204
702E04
F13E24
F13E24
F13E24
F13E24
F13E24
F13E24
F13E24
F13E24
F13E24
F13E24
F13E24
F11C24
F10044
F080C4
F07D04
F80008
FC0010
7FE3E0
7FFF80
1FFF00
07FC00
ENDCHAR
STARTCHAR v
ENCODING 118
SWIDTH 830 0
DWIDTH 23 0
BBX 21 24 1 -3
BITMAP
1FE3F8
302608
702E08
F13E48
F13E48
F13E48
F13E48
F13E48
F13E48
F13E48
F11C48
F11C48
F91C88
F88888
F88090
7C4110
7C4120
7C3E20
3E0020
3E0040
1F00C0
1FFF00
1FFE00
0FFC00
ENDCHAR
STARTCHAR w
ENCODING 119
SWIDTH 931 0
DWIDTH 26 0
BBX 24 24 1 -3
BITMAP
1FE07F
1020C1
7021C1
F123C9
F123C9
F123C9
F123C9
F12FC9
F130C9
F120C9
F12049
F12649
F10909
F11089
F11089
F12649
F92651
F8C622
F80E02
7C0F02
7E1F04
7FFFF8
3FCFE0
3F0FC0
ENDCHAR
STARTCHAR x
ENCODING 120
SWIDTH 837 0
DWIDTH 23 0
BBX 21 24 1 -3
BITMAP
1FE3F8
102208
702608
F13E28
F13E48
F11C48
F08848
F88088
FC4110
7E2120
7E1E20
3C2120
1C4110
188088
311C48
311C48
713E28
F13E28
F03E08
F03E08
F05E08
FF9FF0
FF1FE0
FE1FC0
ENDCHAR
STARTCHAR y
ENCODING 121
SWIDTH 805 0
DWIDTH 23 0
BBX 21 24 1 -3
BITMAP
1FC3F8
204608
604E08
E25E48
E25E48
E25E48
E25E48
E23C48
F11C48
F11888
F88110
F84120
FC4220
7E3C40
7F0880
3F0880
1F8900
0F8900
0F8100
078100
078100
07FE00
07F800
07F000
ENDCHAR
STARTCHAR z
ENCODING 122
SWIDTH 760 0
DWIDTH 21 0
BBX 20 24 1 -3
BITMAP
0FFFE0
100010
300010
F1FE10
F00110
F00110
FFE220
FFC420
FF8840
010880
021100
042100
0C4200
188400
110800
310FE0
720010
F1FF90
F00010
F00010
F00010
FFFFE0
FFFF80
FFFF00
ENDCHAR
STARTCHAR braceleft
ENCODING 123
SWIDTH 555 0
DWIDTH 16 0
BBX 15 29 0 -6
BITMAP
007C
0182
0202
0432
0C42
1C82
3C84
3C88
3C88
3C88
3C88
3088
3110
7260
F110
F108
F888
FC88
FC88
7C88
3C84
3C42
3C32
3E02
3F02
3FE2
3FFC
1FF8
07E0
ENDCHAR
STARTCHAR bar
ENCODING 124
SWIDTH 447 0
DWIDTH 13 0
BBX 10 29 1 -5
BITMAP
0FC0
1040
3040
7140
F140
F140
F140
F140
F140
F140
F140
F140
F140
F140
F140
F140
F140
F140
F140
F140
F140
F140
F140
F040
F040
F840
FF80
FF00
FE00
ENDCHAR
STARTCHAR braceright
ENCODING 125
SWIDTH 555 0
DWIDTH 16 0
BBX 15 29 1 -6
BITMAP
0E80
1060
6010
E308
E088
F048
FC48
FC48
FC48
3C48
3C44
3C22
3F12
3F92
3C22
1C44
1C48
3C48
3C48
3C48
3048
2088
6308
E010
E020
F1C0
FF80
FE00
FC00
ENDCHAR
STARTCHAR asciitilde
ENCODING 126
SWIDTH 834 0
DWIDTH 23 0
BBX 21 10 1 4
BITMAP
03F810
0C07E8
100008
30F808
7007C8
F00008
FBF810
FFFFE0
FFFFC0
E1FF00
ENDCHAR
STARTCHAR uni00A0
ENCODING 160
SWIDTH 325 0
DWIDTH 9 0
BBX 1 1 0 0
BITMAP
00
ENDCHAR
STARTCHAR exclamdown
ENCODING 161
SWIDTH 523 0
DWIDTH 15 0
BBX 11 24 2 -3
BITMAP
1FE0
3020
7020
F120
F020
F020
FFC0
FFC0
F020
3020
7120
F120
F120
F120
F120
F120
F120
F120
F020
F020
F020
FFC0
FF80
FE00
ENDCHAR
STARTCHAR cent
ENCODING 162
SWIDTH 728 0
DWIDTH 20 0
BBX 19 27 1 -5
BITMAP
007E00
008100
0181C0
020820
040820
08BF20
110020
310020
710060
F13F80
F13F00
F13E00
F12000
F12000
F12000
F11FC0
F10020
F10020
F8BF20
F80820
FE0820
7F81C0
3F8180
1FC300
07FC00
07F800
03F000
ENDCHAR
STARTCHAR sterling
ENCODING 163
SWIDTH 795 0
DWIDTH 22 0
BBX 22 24 0 -3
BITMAP
00FFE0
030020
040020
0C3F20
18C020
388020
388FC0
788F00
708200
708400
73E400
F085F8
F08204
F88E04
F88E24
F88024
788024
78FFE4
780004
780004
7C0004
7FFFF8
7FFFE0
7FFFC0
ENDCHAR
STARTCHAR currency
ENCODING 164
SWIDTH 921 0
DWIDTH 26 0
BBX 24 24 1 -3
BITMAP
03000C
048012
087FE1
100001
310009
789692
FC6064
FE4024
7C4F24
3C4F24
1C4F24
1C4F24
1C4F24
1C4F24
1E4024
1C6062
189691
110009
302041
787FE2
FCFFF4
FFFFF8
7C01F0
3800E0
ENDCHAR
STARTCHAR yen
ENCODING 165
SWIDTH 803 0
DWIDTH 22 0
BBX 21 24 1 -3
BITMAP
1FC3F8
204608
604E08
E25E48
E25E48
E25E48
F23C48
F11C88
F08888
F88110
FC4220
7E3840
7E0860
380810
39FF90
780810
780810
7F89E0
7F81C0
7F8100
078300
07FC00
07F800
07F000
ENDCHAR
STARTCHAR brokenbar
ENCODING 166
SWIDTH 447 0
DWIDTH 13 0
BBX 10 29 1 -5
BITMAP
0FC0
1040
3040
7140
F140
F140
F140
F140
F140
F040
F040
F040
FFC0
FF80
FFC0
7040
3040
7140
F140
F140
F140
F140
F140
F040
F040
F840
FF80
FF00
FE00
ENDCHAR
STARTCHAR section
ENCODING 167
SWIDTH 750 0
DWIDTH 21 0
BBX 20 24 1 -3
BITMAP
03FFE0
040020
08BF20
110020
320020
723FC0
F20380
F1FE40
F20120
F200A0
F23890
F13890
F90090
F8BF90
FF0090
7FF890
700090
100120
73FE20
F00040
F00380
FFFE00
FFFC00
FFF000
ENDCHAR
STARTCHAR dieresis
ENCODING 168
SWIDTH 600 0
DWIDTH 17 0
BBX 17 9 0 18
BITMAP
0F9F00
106080
306080
F26480
F06080
F06080
FFFF00
FFFE00
FDFC00
ENDCHAR
STARTCHAR copyright
ENCODING 169
SWIDTH 967 0
DWIDTH 27 0
BBX 25 29 1 -5
BITMAP
001F9000
01F76C00
07801E00
0A3FE300
14FFFA80
35FFFD80
75401D80
768FDD80
F5901D80
F5901D80
F597FD80
F597BD80
F5973D80
F5943D80
F5943D80
F5943D80
F593FD80
F5901D80
F5CFDD80
F5E01D80
F5FFFD80
F4FFFA80
FA3FE280
FD801D00
7E676600
7FE07800
3FFFF000
1FFFE000
03FF0000
ENDCHAR
STARTCHAR ordfeminine
ENCODING 170
SWIDTH 620 0
DWIDTH 17 0
BBX 17 24 0 -3
BITMAP
03FE00
040200
0C7100
1C8900
192500
392480
396480
727280
720280
73FE80
F20280
F27280
F27280
F07080
F07080
FFFF00
FFFF00
F00080
33FE80
700080
F80080
FFFF00
FFFE00
7FF800
ENDCHAR
STARTCHAR guillemotleft
ENCODING 171
SWIDTH 912 0
DWIDTH 26 0
BBX 24 17 1 0
BITMAP
007C0F
0384F1
0C0501
106619
318461
720483
F23C8C
F27C98
F20C86
F30441
F0E439
F80601
FE0781
FFC7F9
7FFFFE
3FF7F8
07C0F0
ENDCHAR
STARTCHAR logicalnot
ENCODING 172
SWIDTH 834 0
DWIDTH 23 0
BBX 21 16 1 -2
BITMAP
0FFFF0
100008
300008
71FFC8
F00028
F80028
FFFE28
FFFE28
FFFE28
001E28
001E08
001E08
001F08
001FF0
001FE0
000F80
ENDCHAR
STARTCHAR uni00AD
ENCODING 173
SWIDTH 520 0
DWIDTH 15 0
BBX 14 10 0 4
BITMAP
0FF8
1004
3004
71E4
F004
F004
F804
FFF8
FFF0
7FC0
ENDCHAR
STARTCHAR registered
ENCODING 174
SWIDTH 660 0
DWIDTH 18 0
BBX 17 18 1 3
BITMAP
03FC00
0DFB00
1BFD00
3EE780
7F5780
FF7780
FF1F80
FEF380
FF6B80
FF6B80
FE6380
FBFD80
F5FA80
FAF700
FFFC00
7FF800
3FF000
0F8000
ENDCHAR
STARTCHAR macron
ENCODING 175
SWIDTH 600 0
DWIDTH 17 0
BBX 16 8 0 18
BITMAP
0FFF
1001
31FD
7001
F001
FFFF
FFFC
FFF8
ENDCHAR
STARTCHAR degree
ENCODING 176
SWIDTH 583 0
DWIDTH 16 0
BBX 15 15 1 6
BITMAP
07F8
1804
13F2
640A
E4CA
E4CA
E4CA
E4CA
E40A
F40A
F3F2
F80C
FFF0
FFE0
3FC0
ENDCHAR
STARTCHAR plusminus
ENCODING 177
SWIDTH 834 0
DWIDTH 23 0
BBX 21 24 1 -3
BITMAP
007F00
004100
01C100
03C900
03C900
03C900
0FC9F8
100808
31FFC8
700808
F00808
FFC9F8
FFC9F0
FFC9E0
FFC980
0FC1F8
100008
300008
71FFC8
F00008
F80008
FFFFF0
FFFFE0
FFFF80
ENDCHAR
STARTCHAR twosuperior
ENCODING 178
SWIDTH 585 0
DWIDTH 16 0
BBX 16 18 0 3
BITMAP
0FFC
0802
39F1
7809
7FE5
7FC5
7E09
08F2
1904
3238
727E
7201
F3FD
F001
F001
FFFE
FFFC
FFF0
ENDCHAR
STARTCHAR threesuperior
ENCODING 179
SWIDTH 584 0
DWIDTH 16 0
BBX 15 18 1 3
BITMAP
1FF0
3008
77C4
F024
FF94
FF14
F82C
79F2
380A
7FCA
7FCA
700A
77F2
F002
F004
FFF8
FFE0
FFC0
ENDCHAR
STARTCHAR acute
ENCODING 180
SWIDTH 600 0
DWIDTH 17 0
BBX 16 9 0 18
BITMAP
07FF
0801
107D
3181
7001
F9FE
FFFC
FFF0
7E00
ENDCHAR
STARTCHAR mu
ENCODING 181
SWIDTH 813 0
DWIDTH 23 0
BBX 21 22 1 -5
BITMAP
0FC3F0
102408
312C48
713C48
F13C48
F13C48
F13C48
F13C48
F13C48
F13C48
F13C48
F10048
F18088
F17F08
F10010
F10020
F03FC0
F03F80
F03E00
FFFC00
FF0000
FE0000
ENDCHAR
STARTCHAR paragraph
ENCODING 182
SWIDTH 782 0
DWIDTH 22 0
BBX 21 24 0 -3
BITMAP
03FFF8
040008
080008
18BFC8
310048
710048
720048
F20048
F20048
F20048
F20048
F10048
F8BFC8
FC1048
7E1048
7F1248
7F1248
1F1248
070208
070208
078718
07FFE0
07FFC0
07DF80
ENDCHAR
STARTCHAR periodcentered
ENCODING 183
SWIDTH 464 0
DWIDTH 13 0
BBX 11 12 1 3
BITMAP
0FE0
1020
6020
E120
E120
E120
E020
E020
F020
FFC0
FF80
FF00
ENDCHAR
STARTCHAR cedilla
ENCODING 184
SWIDTH 600 0
DWIDTH 17 0
BBX 12 12 2 -7
BITMAP
03C0
0620
0C90
1C90
1890
3920
3820
3020
7840
7F80
FF00
FC00
ENDCHAR
STARTCHAR onesuperior
ENCODING 185
SWIDTH 557 0
DWIDTH 16 0
BBX 14 18 1 3
BITMAP
1FF0
3010
7390
F090
FE90
FE90
FE90
1E90
1E90
1E90
1E9C
1084
3084
F7F4
F004
FFF8
FFF0
FFE0
ENDCHAR
STARTCHAR ordmasculine
ENCODING 186
SWIDTH 625 0
DWIDTH 18 0
BBX 17 24 0 -3
BITMAP
03FE00
040100
08F880
110480
727280
727280
F27280
F27280
F27280
F27280
F27280
F20280
F90480
F8F880
FC0300
7FFC00
7FFF00
300080
33FE80
700080
F80080
FFFF00
FFFE00
7FF800
ENDCHAR
STARTCHAR guillemotright
ENCODING 187
SWIDTH 912 0
DWIDTH 26 0
BBX 24 17 1 0
BITMAP
1F07C0
30EC38
701C06
F38CE1
F04419
F02409
FE2789
FF27C9
F82609
104419
3384E1
F00C02
F03C0C
F3FC70
FFBFE0
FE3F80
E03C00
ENDCHAR
STARTCHAR onequarter
ENCODING 188
SWIDTH 1303 0
DWIDTH 36 0
BBX 35 24 1 -3
BITMAP
1FF07E0000
3010820000
7391820000
F093920000
FE93920000
FE9793E3C0
FE97921420
FE97221C20
1E97265CA0
1E97265CA0
1E9F265CA0
1083265CA0
3082265CA0
F7F24E40A0
F0024E40A0
FFFE4E3F20
FFFE4F00A0
FFFE4FFCA0
001C0FFCA0
001C1FFC20
001E303C20
003FC03FC0
003F803F00
003F003E00
ENDCHAR
STARTCHAR onehalf
ENCODING 189
SWIDTH 1260 0
DWIDTH 35 0
BBX 34 24 1 -3
BITMAP
1FF07E0000
1010820000
7391820000
F093920000
FE93920000
FE9793FF00
FE97920080
FE97220040
1E97267C40
1E97260240
1E9F27FA40
108327E240
3082270640
F7F24E3880
F0024C4300
FFFE4C8C00
FFFE4C9F80
FFFE4C8040
001C0CFE40
001C1C0040
001E1C00C0
003FFFFF00
003FBFFE00
003F3FFC00
ENDCHAR
STARTCHAR threequarters
ENCODING 190
SWIDTH 1313 0
DWIDTH 37 0
BBX 35 24 1 -3
BITMAP
1FF07E0000
3008C10000
77C5C20000
F0278A0000
FF97920000
FC1793E3E0
F82F921420
79F3920C20
3809124CA0
7FC9264CA0
7FC9264CA0
7009264CA0
7009264CA0
77F3264CA0
F0064640A0
FFFE4F3FA0
FFEE4F00A0
FFDE4FFCA0
001E0FFCA0
001C0FFC20
001E103C20
001FE03FC0
001F803F80
003F003E00
ENDCHAR
STARTCHAR questiondown
ENCODING 191
SWIDTH 756 0
DWIDTH 21 0
BBX 20 24 1 -3
BITMAP
003F80
004040
00C040
03C440
03C040
03C040
03FF80
03FE80
030080
0C0080
103C80
31C040
720040
E20380
E23E00
E23FE0
E10010
F07F90
F00010
F80010
FF0010
FFFFE0
7FFF80
1FFF00
ENDCHAR
STARTCHAR Agrave
ENCODING 192
SWIDTH 830 0
DWIDTH 23 0
BBX 21 31 1 -3
BITMAP
018000
027F80
0E0060
1E7E20
1E0120
1E0020
1FFC20
1FFFC0
1E0040
060020
0C3E20
1C4120
1C8110
189890
389C88
391C48
711C48
713E48
720048
F20028
F1FFC8
F20028
F20028
F23E28
F23E28
F03E08
F05E08
F05E08
FF9FF0
FF1FE0
FC1FC0
ENDCHAR
STARTCHAR Aacute
ENCODING 193
SWIDTH 830 0
DWIDTH 23 0
BBX 21 31 1 -3
BITMAP
0001C0
01FE20
020020
067F20
1E0020
1E0040
1E7F80
1F8040
1E0040
1E0020
0C3E20
1C4110
1C8110
189890
389C88
391C48
711C48
713E48
720048
F20028
F1FFC8
F20028
F20028
F23E28
F23E28
F03E08
F05E08
F05E08
FF9FF0
FF1FE0
FC1FC0
ENDCHAR
STARTCHAR Acircumflex
ENCODING 194
SWIDTH 830 0
DWIDTH 23 0
BBX 21 32 1 -3
BITMAP
001C00
00E380
010040
023C20
064320
0E0020
1E3E20
1FFFC0
1F0040
1E0040
1E0020
0C3E20
1C4110
1C8110
189890
389C88
391C48
711C48
713E48
720048
F20028
F1FFC8
F20028
F20028
F23E28
F23E28
F03E08
F05E08
F05E08
FF9FF0
FF1FE0
FC1FC0
ENDCHAR
STARTCHAR Atilde
ENCODING 195
SWIDTH 830 0
DWIDTH 23 0
BBX 21 30 1 -3
BITMAP
01FCC0
020320
060020
0E7F20
1E0020
1E6040
1FFF80
1E0040
1E0020
0E3E20
1C4120
1C8110
189890
389C90
391C48
711C48
713E48
720048
F20028
F1FFC8
F20028
F20028
F23E28
F23E28
F03E08
F05E08
F05E08
FF9FF0
FF1FE0
FC1FC0
ENDCHAR
STARTCHAR Adieresis
ENCODING 196
SWIDTH 830 0
DWIDTH 23 0
BBX 21 31 1 -3
BITMAP
03F7C0
040820
0C0820
1C8920
3C0820
3C0820
3C1820
3FFFC0
3F0040
3E0040
0E3E20
1C4120
1C8110
1C9890
389C90
391C48
711C48
713E48
720048
F20028
F1FFC8
F20028
F20028
F23E28
F23E28
F03E08
F05E08
F05E08
FF9FF0
FF1FE0
FC1FC0
ENDCHAR
STARTCHAR Aring
ENCODING 197
SWIDTH 830 0
DWIDTH 23 0
BBX 21 31 1 -3
BITMAP
005D00
0180C0
023E20
044120
0C9CA0
1C9CA0
1C9CA0
3E4120
3E3E40
3E0020
1C3E20
1C4110
1C8110
189890
389C88
311C48
711C48
713E48
720048
F20028
F1FFC8
F20028
F20028
F23E28
F23E28
F03E08
F05E08
F05E08
FF9FF0
FF1FE0
FC1FC0
ENDCHAR
STARTCHAR AE
ENCODING 198
SWIDTH 1105 0
DWIDTH 31 0
BBX 29 24 1 -3
BITMAP
01FFFFF8
02000008
06000008
0C3FFFC8
1C404008
1C804008
388E47F0
389E47E0
311E4020
711E4020
723E3F20
72004020
F2004020
F1FFC7C0
F2004780
F20047F0
F23E4008
F23E3FC8
F03E0008
F05E0008
F05E0008
FF9FFFF0
FF1FFFE0
FC1FFFC0
ENDCHAR
STARTCHAR Ccedilla
ENCODING 199
SWIDTH 728 0
DWIDTH 20 0
BBX 19 27 1 -6
BITMAP
03FFE0
040020
08FF20
110020
310020
710020
F13FC0
F13F00
F13E00
F12000
F12000
F12000
F12000
F12000
F12000
F11FC0
F10020
F0BF20
F80420
FE0820
7FC9E0
7F81C0
3F8100
0F8200
07FC00
07F000
07E000
ENDCHAR
STARTCHAR Egrave
ENCODING 200
SWIDTH 754 0
DWIDTH 21 0
BBX 19 31 1 -3
BITMAP
038000
0C7F80
1C0040
3CFE40
3C0040
3C0040
3FFE40
3801A0
300020
300020
71FFA0
F10020
F10020
F13FC0
F13F80
F10080
F10040
F1FC40
F10040
F10080
F13F00
F13E00
F13FE0
F10020
F1FFA0
F00020
F00020
F80020
FFFFC0
FFFF80
FFFF00
ENDCHAR
STARTCHAR Eacute
ENCODING 201
SWIDTH 754 0
DWIDTH 21 0
BBX 19 31 1 -3
BITMAP
0003C0
01FC20
020120
0C7E20
1C0020
3C0040
3C7F80
3980E0
300020
300020
71FFA0
F10020
F10020
F13FC0
F13F80
F10080
F10040
F1FC40
F10040
F10080
F13F00
F13E00
F13FE0
F10020
F1FFA0
F00020
F00020
F80020
FFFFC0
FFFF80
FFFF00
ENDCHAR
STARTCHAR Ecircumflex
ENCODING 202
SWIDTH 754 0
DWIDTH 21 0
BBX 19 32 1 -3
BITMAP
003800
01C700
0200C0
043C40
1CC240
3C0040
3C7C40
3FFF80
380060
300020
700020
F1FFA0
F10020
F10020
F13FC0
F13F80
F10080
F10040
F1FC40
F10040
F10080
F13F00
F13E00
F13FE0
F10020
F1FFA0
F00020
F00020
F80020
FFFFC0
FFFF80
FFFF00
ENDCHAR
STARTCHAR Edieresis
ENCODING 203
SWIDTH 754 0
DWIDTH 21 0
BBX 19 31 1 -3
BITMAP
07E7C0
081820
181820
389920
381820
781820
7C1820
7FFFE0
700020
300020
71FFA0
F10020
F10020
F13FC0
F13F80
F10080
F10040
F1FC40
F10040
F10080
F13F00
F13E00
F13FE0
F10020
F1FFA0
F00020
F00020
F80020
FFFFC0
FFFF80
FFFF00
ENDCHAR
STARTCHAR Igrave
ENCODING 204
SWIDTH 705 0
DWIDTH 20 0
BBX 18 31 1 -3
BITMAP
070000
08FF00
380080
79FC80
780080
780080
7FFC80
700340
300040
700040
F3FE40
F02040
F02040
FE2380
FE2300
FE2200
7E2200
0E2200
0E2200
0E2200
0E2200
0E2200
0E2380
102040
73FE40
F00040
F00040
F00040
FFFF80
FFFE00
FFFC00
ENDCHAR
STARTCHAR Iacute
ENCODING 205
SWIDTH 705 0
DWIDTH 20 0
BBX 18 31 1 -3
BITMAP
000700
07F880
080080
19FC80
380080
780180
78FE00
7701C0
700040
700040
73FE40
F02040
F02040
FE2380
FE2300
FE2200
7E2200
0E2200
0E2200
0E2200
0E2200
0E2200
0E2380
102040
73FE40
F00040
F00040
F00040
FFFF80
FFFE00
FFFC00
ENDCHAR
STARTCHAR Icircumflex
ENCODING 206
SWIDTH 705 0
DWIDTH 20 0
BBX 18 32 1 -3
BITMAP
007000
038E00
040180
087880
198480
380080
78F880
7FFF80
700040
700040
700040
73FE40
F02040
F02040
FE2380
FE2300
FE2200
7E2200
0E2200
0E2200
0E2200
0E2200
0E2200
0E2380
102040
73FE40
F00040
F00040
F00040
FFFF80
FFFE00
FFFC00
ENDCHAR
STARTCHAR Idieresis
ENCODING 207
SWIDTH 705 0
DWIDTH 20 0
BBX 18 31 1 -3
BITMAP
0F9F80
106040
302040
712240
F02040
F02040
F02080
FFFFC0
F00040
F00040
73FE40
F02040
F02040
FE2380
FE2300
FE2200
7E2200
0E2200
0E2200
0E2200
0E2200
0E2200
0E2380
102040
73FE40
F00040
F00040
F00040
FFFF80
FFFE00
FFFC00
ENDCHAR
STARTCHAR Eth
ENCODING 208
SWIDTH 856 0
DWIDTH 24 0
BBX 23 24 0 -3
BITMAP
07FFF0
08000C
180004
38FF42
388022
388012
388F12
388F12
308312
308312
73E312
F08312
F08312
F88F12
F89712
F88812
388022
38FF42
380004
380008
3C0070
3FFFE0
3FFFC0
3FFF00
ENDCHAR
STARTCHAR Ntilde
ENCODING 209
SWIDTH 853 0
DWIDTH 24 0
BBX 22 30 1 -3
BITMAP
00FCC0
030320
060020
0E7F20
1E0020
1E6040
19FFBC
103E04
301E04
710E24
F18624
F14624
F12224
F11024
F10824
F10424
F12224
F12224
F13124
F138A4
F13C44
F13E24
F13E24
F13E24
F03E04
F03E04
F83F0C
FFDFF0
FF1FE0
FE1FC0
ENDCHAR
STARTCHAR Ograve
ENCODING 210
SWIDTH 837 0
DWIDTH 23 0
BBX 22 31 1 -3
BITMAP
03F000
061FC0
0E7020
1E0F20
1E0020
1E0020
1FFFA0
1E0070
080008
087F08
308084
710044
711E44
F13E24
F13E24
F13E24
F13E24
F13E24
F13E24
F13E24
F13E24
F13E44
F10044
F08084
F05D08
F80008
FC0030
7FE3C0
7FFF80
3FFF00
07FC00
ENDCHAR
STARTCHAR Oacute
ENCODING 211
SWIDTH 837 0
DWIDTH 23 0
BBX 22 31 1 -3
BITMAP
000FE0
01FC20
060720
0E7820
1E0020
1E0040
1EFFC0
1F0030
180008
107F08
108084
710044
711E44
F13E24
F13E24
F13E24
F13E24
F13E24
F13E24
F13E24
F13E24
F13E44
F10044
F08084
F05D08
F80008
FC0030
7FE3C0
7FFF80
3FFF00
07FC00
ENDCHAR
STARTCHAR Ocircumflex
ENCODING 212
SWIDTH 837 0
DWIDTH 23 0
BBX 22 32 1 -3
BITMAP
001C00
00E380
010040
021C20
0E6320
1E0020
1E3E20
1FFFC0
1F0020
1C0010
187F08
108084
710044
711E44
F13E24
F13E24
F13E24
F13E24
F13E24
F13E24
F13E24
F13E24
F13E44
F10044
F08084
F05D08
F80008
FC0010
7FE3E0
7FFF80
3FFF00
07FC00
ENDCHAR
STARTCHAR Otilde
ENCODING 213
SWIDTH 837 0
DWIDTH 23 0
BBX 22 31 1 -3
BITMAP
00F840
0307A0
060020
0E7820
1E0720
1E0020
1E7040
1FEFC0
1C0030
087F08
108088
710044
711E44
F13E24
F13E24
F13E24
F13E24
F13E24
F13E24
F13E24
F13E24
F13E44
F10044
F08084
F05D08
F80008
FC0010
7FE3E0
7FFF80
3FFF00
07FC00
ENDCHAR
STARTCHAR Odieresis
ENCODING 214
SWIDTH 837 0
DWIDTH 23 0
BBX 22 31 1 -3
BITMAP
03F7C0
040810
0C0810
1C8890
3C0810
3C0810
3C0820
3FFFC0
3E0030
087F08
108088
710044
711E44
F13E24
F13E24
F13E24
F13E24
F13E24
F13E24
F13E24
F13E24
F13E44
F10044
F08084
F05D08
F80008
FC0010
7FE3E0
7FFF80
3FFF00
07FC00
ENDCHAR
STARTCHAR multiply
ENCODING 215
SWIDTH 834 0
DWIDTH 23 0
BBX 20 20 2 -1
BITMAP
020180
048240
084420
102810
311110
788220
FC4440
FE2880
7F1100
3E2880
1C4440
088220
111110
303810
787C20
FCFE40
FF7F80
7C3F00
381E00
100800
ENDCHAR
STARTCHAR Oslash
ENCODING 216
SWIDTH 837 0
DWIDTH 23 0
BBX 22 28 1 -4
BITMAP
0001F0
000208
000210
01FC10
060090
087F88
118144
310224
723A24
F23224
F23424
F22524
F22924
F22A24
F25224
F25224
F21624
F22624
F22C44
F140C4
F0FD08
F88008
FC0030
F81FC0
783F80
3FFF00
3FFC00
7E0000
ENDCHAR
STARTCHAR Ugrave
ENCODING 217
SWIDTH 846 0
DWIDTH 24 0
BBX 22 31 1 -3
BITMAP
01C000
063FC0
0E0020
1E7F20
1E0020
1E0020
1FFC20
103FDC
103E04
702E04
F13E24
F13E24
F13E24
F13E24
F13E24
F13E24
F13E24
F13E24
F13E24
F13E24
F13E24
F11C24
F10044
F080C4
F07D04
F80008
FC0010
7FE3E0
7FFF80
1FFF00
07FC00
ENDCHAR
STARTCHAR Uacute
ENCODING 218
SWIDTH 846 0
DWIDTH 24 0
BBX 22 31 1 -3
BITMAP
0001E0
00FE20
030020
063F20
0E0020
1E0060
1E1F80
11FE7C
103E04
702E04
F13E24
F13E24
F13E24
F13E24
F13E24
F13E24
F13E24
F13E24
F13E24
F13E24
F13E24
F11C24
F10044
F080C4
F07D04
F80008
FC0010
7FE3E0
7FFF80
1FFF00
07FC00
ENDCHAR
STARTCHAR Ucircumflex
ENCODING 219
SWIDTH 846 0
DWIDTH 24 0
BBX 22 32 1 -3
BITMAP
001C00
00E380
030060
023E20
064120
1E0020
1E7FA0
1FFFC0
103E3C
103E04
702E04
F13E24
F13E24
F13E24
F13E24
F13E24
F13E24
F13E24
F13E24
F13E24
F13E24
F13E24
F11E24
F10044
F080C4
F07D04
F80008
FC0010
7FE3E0
7FFF80
1FFF00
07FC00
ENDCHAR
STARTCHAR Udieresis
ENCODING 220
SWIDTH 846 0
DWIDTH 24 0
BBX 22 31 1 -3
BITMAP
03E7E0
041810
0C0810
1C8890
3C0810
3C0810
3C0820
3FFFF8
303E04
703E04
F12E24
F13E24
F13E24
F13E24
F13E24
F13E24
F13E24
F13E24
F13E24
F13E24
F13E24
F11E24
F10044
F080C4
F05D04
F80008
FC0010
7FE3E0
7FFF80
1FFF00
07FC00
ENDCHAR
STARTCHAR Yacute
ENCODING 221
SWIDTH 805 0
DWIDTH 23 0
BBX 21 31 1 -3
BITMAP
0001C0
01FE20
020020
047F20
1C0020
1C0040
1E1F80
11FEF8
203E08
604E08
E25E48
E25E48
E25E48
E25E48
E23C48
F11C48
F11888
F88110
F84120
FC4220
7E3C40
7F0880
3F0880
1F8900
0F8900
0F8100
078100
078100
07FE00
07F800
07F000
ENDCHAR
STARTCHAR Thorn
ENCODING 222
SWIDTH 792 0
DWIDTH 22 0
BBX 21 24 1 -3
BITMAP
0FE000
102000
302000
711FC0
F10020
F1FD10
F10088
F10048
F10048
F13C48
F13C48
F13C48
F13C48
F10048
F10088
F1FD10
F10020
F101C0
F01F80
F01E00
F87C00
FF8000
FF0000
FE0000
ENDCHAR
STARTCHAR germandbls
ENCODING 223
SWIDTH 859 0
DWIDTH 24 0
BBX 23 24 1 -3
BITMAP
0FFFC0
100020
300010
71FF10
F10090
F10090
F11890
F11910
F11918
F11904
F119C2
F11022
F11012
F11F12
F11F12
F11F12
F11022
F111C2
F01002
F01004
F83838
FFFFE0
FFFFC0
FEFF00
ENDCHAR
STARTCHAR agrave
ENCODING 224
SWIDTH 830 0
DWIDTH 23 0
BBX 21 31 1 -3
BITMAP
018000
027F80
0E0060
1E7E20
1E0120
1E0020
1FFC20
1FFFC0
1E0040
060020
0C3E20
1C4120
1C8110
189890
389C88
391C48
711C48
713E48
720048
F20028
F1FFC8
F20028
F20028
F23E28
F23E28
F03E08
F05E08
F05E08
FF9FF0
FF1FE0
FC1FC0
ENDCHAR
STARTCHAR aacute
ENCODING 225
SWIDTH 830 0
DWIDTH 23 0
BBX 21 31 1 -3
BITMAP
0001C0
01FE20
020020
067F20
1E0020
1E0040
1E7F80
1F8040
1E0040
1E0020
0C3E20
1C4110
1C8110
189890
389C88
391C48
711C48
713E48
720048
F20028
F1FFC8
F20028
F20028
F23E28
F23E28
F03E08
F05E08
F05E08
FF9FF0
FF1FE0
FC1FC0
ENDCHAR
STARTCHAR acircumflex
ENCODING 226
SWIDTH 830 0
DWIDTH 23 0
BBX 21 32 1 -3
BITMAP
001C00
00E380
010040
023C20
064320
0E0020
1E3E20
1FFFC0
1F0040
1E0040
1E0020
0C3E20
1C4110
1C8110
189890
389C88
391C48
711C48
713E48
720048
F20028
F1FFC8
F20028
F20028
F23E28
F23E28
F03E08
F05E08
F05E08
FF9FF0
FF1FE0
FC1FC0
ENDCHAR
STARTCHAR atilde
ENCODING 227
SWIDTH 830 0
DWIDTH 23 0
BBX 21 30 1 -3
BITMAP
01FCC0
020320
060020
0E7F20
1E0020
1E6040
1FFF80
1E0040
1E0020
0E3E20
1C4120
1C8110
189890
389C90
391C48
711C48
713E48
720048
F20028
F1FFC8
F20028
F20028
F23E28
F23E28
F03E08
F05E08
F05E08
FF9FF0
FF1FE0
FC1FC0
ENDCHAR
STARTCHAR adieresis
ENCODING 228
SWIDTH 830 0
DWIDTH 23 0
BBX 21 31 1 -3
BITMAP
03F7C0
040820
0C0820
1C8920
3C0820
3C0820
3C1820
3FFFC0
3F0040
3E0040
0E3E20
1C4120
1C8110
1C9890
389C90
391C48
711C48
713E48
720048
F20028
F1FFC8
F20028
F20028
F23E28
F23E28
F03E08
F05E08
F05E08
FF9FF0
FF1FE0
FC1FC0
ENDCHAR
STARTCHAR aring
ENCODING 229
SWIDTH 830 0
DWIDTH 23 0
BBX 21 31 1 -3
BITMAP
005D00
0180C0
023E20
044120
0C9CA0
1C9CA0
1C9CA0
3E4120
3E3E40
3E0020
1C3E20
1C4110
1C8110
189890
389C88
311C48
711C48
713E48
720048
F20028
F1FFC8
F20028
F20028
F23E28
F23E28
F03E08
F05E08
F05E08
FF9FF0
FF1FE0
FC1FC0
ENDCHAR
STARTCHAR ae
ENCODING 230
SWIDTH 1105 0
DWIDTH 31 0
BBX 29 24 1 -3
BITMAP
01FFFFF8
02000008
06000008
0C3FFFC8
1C404008
1C804008
388E47F0
389E47E0
311E4020
711E4020
723E3F20
72004020
F2004020
F1FFC7C0
F2004780
F20047F0
F23E4008
F23E3FC8
F03E0008
F05E0008
F05E0008
FF9FFFF0
FF1FFFE0
FC1FFFC0
ENDCHAR
STARTCHAR ccedilla
ENCODING 231
SWIDTH 728 0
DWIDTH 20 0
BBX 19 27 1 -6
BITMAP
03FFE0
040020
08FF20
110020
310020
710020
F13FC0
F13F00
F13E00
F12000
F12000
F12000
F12000
F12000
F12000
F11FC0
F10020
F0BF20
F80420
FE0820
7FC9E0
7F81C0
3F8100
0F8200
07FC00
07F000
07E000
ENDCHAR
STARTCHAR egrave
ENCODING 232
SWIDTH 754 0
DWIDTH 21 0
BBX 19 31 1 -3
BITMAP
038000
0C7F80
1C0040
3CFE40
3C0040
3C0040
3FFE40
3801A0
300020
300020
71FFA0
F10020
F10020
F13FC0
F13F80
F10080
F10040
F1FC40
F10040
F10080
F13F00
F13E00
F13FE0
F10020
F1FFA0
F00020
F00020
F80020
FFFFC0
FFFF80
FFFF00
ENDCHAR
STARTCHAR eacute
ENCODING 233
SWIDTH 754 0
DWIDTH 21 0
BBX 19 31 1 -3
BITMAP
0003C0
01FC20
020120
0C7E20
1C0020
3C0040
3C7F80
3980E0
300020
300020
71FFA0
F10020
F10020
F13FC0
F13F80
F10080
F10040
F1FC40
F10040
F10080
F13F00
F13E00
F13FE0
F10020
F1FFA0
F00020
F00020
F80020
FFFFC0
FFFF80
FFFF00
ENDCHAR
STARTCHAR ecircumflex
ENCODING 234
SWIDTH 754 0
DWIDTH 21 0
BBX 19 32 1 -3
BITMAP
003800
01C700
0200C0
043C40
1CC240
3C0040
3C7C40
3FFF80
380060
300020
700020
F1FFA0
F10020
F10020
F13FC0
F13F80
F10080
F10040
F1FC40
F10040
F10080
F13F00
F13E00
F13FE0
F10020
F1FFA0
F00020
F00020
F80020
FFFFC0
FFFF80
FFFF00
ENDCHAR
STARTCHAR edieresis
ENCODING 235
SWIDTH 754 0
DWIDTH 21 0
BBX 19 31 1 -3
BITMAP
07E7C0
081820
181820
389920
381820
781820
7C1820
7FFFE0
700020
300020
71FFA0
F10020
F10020
F13FC0
F13F80
F10080
F10040
F1FC40
F10040
F10080
F13F00
F13E00
F13FE0
F10020
F1FFA0
F00020
F00020
F80020
FFFFC0
FFFF80
FFFF00
ENDCHAR
STARTCHAR igrave
ENCODING 236
SWIDTH 705 0
DWIDTH 20 0
BBX 18 31 1 -3
BITMAP
070000
08FF00
380080
79FC80
780080
780080
7FFC80
700340
300040
700040
F3FE40
F02040
F02040
FE2380
FE2300
FE2200
7E2200
0E2200
0E2200
0E2200
0E2200
0E2200
0E2380
102040
73FE40
F00040
F00040
F00040
FFFF80
FFFE00
FFFC00
ENDCHAR
STARTCHAR iacute
ENCODING 237
SWIDTH 705 0
DWIDTH 20 0
BBX 18 31 1 -3
BITMAP
000700
07F880
080080
19FC80
380080
780180
78FE00
7701C0
700040
700040
73FE40
F02040
F02040
FE2380
FE2300
FE2200
7E2200
0E2200
0E2200
0E2200
0E2200
0E2200
0E2380
102040
73FE40
F00040
F00040
F00040
FFFF80
FFFE00
FFFC00
ENDCHAR
STARTCHAR icircumflex
ENCODING 238
SWIDTH 705 0
DWIDTH 20 0
BBX 18 32 1 -3
BITMAP
007000
038E00
040180
087880
198480
380080
78F880
7FFF80
700040
700040
700040
73FE40
F02040
F02040
FE2380
FE2300
FE2200
7E2200
0E2200
0E2200
0E2200
0E2200
0E2200
0E2380
102040
73FE40
F00040
F00040
F00040
FFFF80
FFFE00
FFFC00
ENDCHAR
STARTCHAR idieresis
ENCODING 239
SWIDTH 705 0
DWIDTH 20 0
BBX 18 31 1 -3
BITMAP
0F9F80
106040
302040
712240
F02040
F02040
F02080
FFFFC0
F00040
F00040
73FE40
F02040
F02040
FE2380
FE2300
FE2200
7E2200
0E2200
0E2200
0E2200
0E2200
0E2200
0E2380
102040
73FE40
F00040
F00040
F00040
FFFF80
FFFE00
FFFC00
ENDCHAR
STARTCHAR eth
ENCODING 240
SWIDTH 856 0
DWIDTH 24 0
BBX 23 24 0 -3
BITMAP
07FFF0
08000C
180004
38FF42
388022
388012
388F12
388F12
308312
308312
73E312
F08312
F08312
F88F12
F89712
F88812
388022
38FF42
380004
380008
3C0070
3FFFE0
3FFFC0
3FFF00
ENDCHAR
STARTCHAR ntilde
ENCODING 241
SWIDTH 853 0
DWIDTH 24 0
BBX 22 30 1 -3
BITMAP
00FCC0
030320
060020
0E7F20
1E0020
1E6040
19FFBC
103E04
301E04
710E24
F18624
F14624
F12224
F11024
F10824
F10424
F12224
F12224
F13124
F138A4
F13C44
F13E24
F13E24
F13E24
F03E04
F03E04
F83F0C
FFDFF0
FF1FE0
FE1FC0
ENDCHAR
STARTCHAR ograve
ENCODING 242
SWIDTH 837 0
DWIDTH 23 0
BBX 22 31 1 -3
BITMAP
03F000
061FC0
0E7020
1E0F20
1E0020
1E0020
1FFFA0
1E0070
080008
087F08
308084
710044
711E44
F13E24
F13E24
F13E24
F13E24
F13E24
F13E24
F13E24
F13E24
F13E44
F10044
F08084
F05D08
F80008
FC0030
7FE3C0
7FFF80
3FFF00
07FC00
ENDCHAR
STARTCHAR oacute
ENCODING 243
SWIDTH 837 0
DWIDTH 23 0
BBX 22 31 1 -3
BITMAP
000FE0
01FC20
060720
0E7820
1E0020
1E0040
1EFFC0
1F0030
180008
107F08
108084
710044
711E44
F13E24
F13E24
F13E24
F13E24
F13E24
F13E24
F13E24
F13E24
F13E44
F10044
F08084
F05D08
F80008
FC0030
7FE3C0
7FFF80
3FFF00
07FC00
ENDCHAR
STARTCHAR ocircumflex
ENCODING 244
SWIDTH 837 0
DWIDTH 23 0
BBX 22 32 1 -3
BITMAP
001C00
00E380
010040
021C20
0E6320
1E0020
1E3E20
1FFFC0
1F0020
1C0010
187F08
108084
710044
711E44
F13E24
F13E24
F13E24
F13E24
F13E24
F13E24
F13E24
F13E24
F13E44
F10044
F08084
F05D08
F80008
FC0010
7FE3E0
7FFF80
3FFF00
07FC00
ENDCHAR
STARTCHAR otilde
ENCODING 245
SWIDTH 837 0
DWIDTH 23 0
BBX 22 31 1 -3
BITMAP
00F840
0307A0
060020
0E7820
1E0720
1E0020
1E7040
1FEFC0
1C0030
087F08
108088
710044
711E44
F13E24
F13E24
F13E24
F13E24
F13E24
F13E24
F13E24
F13E24
F13E44
F10044
F08084
F05D08
F80008
FC0010
7FE3E0
7FFF80
3FFF00
07FC00
ENDCHAR
STARTCHAR odieresis
ENCODING 246
SWIDTH 837 0
DWIDTH 23 0
BBX 22 31 1 -3
BITMAP
03F7C0
040810
0C0810
1C8890
3C0810
3C0810
3C0820
3FFFC0
3E0030
087F08
108088
710044
711E44
F13E24
F13E24
F13E24
F13E24
F13E24
F13E24
F13E24
F13E24
F13E44
F10044
F08084
F05D08
F80008
FC0010
7FE3E0
7FFF80
3FFF00
07FC00
ENDCHAR
STARTCHAR divide
ENCODING 247
SWIDTH 834 0
DWIDTH 23 0
BBX 21 22 1 -2
BITMAP
007E00
008100
018100
038900
078100
078100
07C100
0FFFF8
100008
31FFC8
700008
F00008
FFFFF0
FF80E0
FF80C0
038900
078100
078100
07C100
07FE00
07F800
03F000
ENDCHAR
STARTCHAR oslash
ENCODING 248
SWIDTH 837 0
DWIDTH 23 0
BBX 22 28 1 -4
BITMAP
0001F0
000208
000210
01FC10
060090
087F88
118144
310224
723A24
F23224
F23424
F22524
F22924
F22A24
F25224
F25224
F21624
F22624
F22C44
F140C4
F0FD08
F88008
FC0030
F81FC0
783F80
3FFF00
3FFC00
7E0000
ENDCHAR
STARTCHAR ugrave
ENCODING 249
SWIDTH 846 0
DWIDTH 24 0
BBX 22 31 1 -3
BITMAP
01C000
063FC0
0E0020
1E7F20
1E0020
1E0020
1FFC20
103FDC
103E04
702E04
F13E24
F13E24
F13E24
F13E24
F13E24
F13E24
F13E24
F13E24
F13E24
F13E24
F13E24
F11C24
F10044
F080C4
F07D04
F80008
FC0010
7FE3E0
7FFF80
1FFF00
07FC00
ENDCHAR
STARTCHAR uacute
ENCODING 250
SWIDTH 846 0
DWIDTH 24 0
BBX 22 31 1 -3
BITMAP
0001E0
00FE20
030020
063F20
0E0020
1E0060
1E1F80
11FE7C
103E04
702E04
F13E24
F13E24
F13E24
F13E24
F13E24
F13E24
F13E24
F13E24
F13E24
F13E24
F13E24
F11C24
F10044
F080C4
F07D04
F80008
FC0010
7FE3E0
7FFF80
1FFF00
07FC00
ENDCHAR
STARTCHAR ucircumflex
ENCODING 251
SWIDTH 846 0
DWIDTH 24 0
BBX 22 32 1 -3
BITMAP
001C00
00E380
030060
023E20
064120
1E0020
1E7FA0
1FFFC0
103E3C
103E04
702E04
F13E24
F13E24
F13E24
F13E24
F13E24
F13E24
F13E24
F13E24
F13E24
F13E24
F13E24
F11E24
F10044
F080C4
F07D04
F80008
FC0010
7FE3E0
7FFF80
1FFF00
07FC00
ENDCHAR
STARTCHAR udieresis
ENCODING 252
SWIDTH 846 0
DWIDTH 24 0
BBX 22 31 1 -3
BITMAP
03E7E0
041810
0C0810
1C8890
3C0810
3C0810
3C0820
3FFFF8
303E04
703E04
F12E24
F13E24
F13E24
F13E24
F13E24
F13E24
F13E24
F13E24
F13E24
F13E24
F13E24
F11E24
F10044
F080C4
F05D04
F80008
FC0010
7FE3E0
7FFF80
1FFF00
07FC00
ENDCHAR
STARTCHAR yacute
ENCODING 253
SWIDTH 805 0
DWIDTH 23 0
BBX 21 31 1 -3
BITMAP
0001C0
01FE20
020020
047F20
1C0020
1C0040
1E1F80
11FEF8
203E08
604E08
E25E48
E25E48
E25E48
E25E48
E23C48
F11C48
F11888
F88110
F84120
FC4220
7E3C40
7F0880
3F0880
1F8900
0F8900
0F8100
078100
078100
07FE00
07F800
07F000
ENDCHAR
STARTCHAR thorn
ENCODING 254
SWIDTH 792 0
DWIDTH 22 0
BBX 21 24 1 -3
BITMAP
0FE000
102000
302000
711FC0
F10020
F1FD10
F10088
F10048
F10048
F13C48
F13C48
F13C48
F13C48
F10048
F10088
F1FD10
F10020
F101C0
F01F80
F01E00
F87C00
FF8000
FF0000
FE0000
ENDCHAR
STARTCHAR ydieresis
ENCODING 255
SWIDTH 805 0
DWIDTH 23 0
BBX 21 31 1 -3
BITMAP
03E7C0
041820
1C1820
3C9920
3C1820
3C1820
3C1820
3FFFF8
303E08
603E08
E04E08
E25E48
E25E48
E25E48
E23C48
F21C48
F11888
F08110
F84110
FC4220
7E3C40
7E0880
3F0880
1F8900
0F8900
0F8100
078100
078100
07FE00
07F800
07F000
ENDCHAR
STARTCHAR Amacron
ENCODING 256
SWIDTH 830 0
DWIDTH 23 0
BBX 21 30 1 -3
BITMAP
01FFC0
020020
067F20
1E0020
1E0020
1E0020
1FFFC0
1F0040
1E0040
0E3E20
1C4120
1C8110
1C9890
389C90
391C48
711C48
713E48
720048
F20028
F1FFC8
F20028
F20028
F23E28
F23E28
F03E08
F05E08
F05E08
FF9FF0
FF1FE0
FC1FC0
ENDCHAR
STARTCHAR amacron
ENCODING 257
SWIDTH 830 0
DWIDTH 23 0
BBX 21 30 1 -3
BITMAP
01FFC0
020020
067F20
1E0020
1E0020
1E0020
1FFFC0
1F0040
1E0040
0E3E20
1C4120
1C8110
1C9890
389C90
391C48
711C48
713E48
720048
F20028
F1FFC8
F20028
F20028
F23E28
F23E28
F03E08
F05E08
F05E08
FF9FF0
FF1FE0
FC1FC0
ENDCHAR
STARTCHAR Abreve
ENCODING 258
SWIDTH 830 0
DWIDTH 23 0
BBX 21 32 1 -3
BITMAP
03E3C0
041420
0C1C20
1C80A0
1C4120
3E3E20
3E0040
1F8080
1FFFC0
1E0040
0E0020
0E3E20
1C4120
1C8110
189890
389C88
391C48
711C48
713E48
720048
F20028
F1FFC8
F20028
F20028
F23E28
F23E28
F03E08
F05E08
F05E08
FF9FF0
FF1FE0
FC1FC0
ENDCHAR
STARTCHAR abreve
ENCODING 259
SWIDTH 830 0
DWIDTH 23 0
BBX 21 32 1 -3
BITMAP
03E3C0
041420
0C1C20
1C80A0
1C4120
3E3E20
3E0040
1F8080
1FFFC0
1E0040
0E0020
0E3E20
1C4120
1C8110
189890
389C88
391C48
711C48
713E48
720048
F20028
F1FFC8
F20028
F20028
F23E28
F23E28
F03E08
F05E08
F05E08
FF9FF0
FF1FE0
FC1FC0
ENDCHAR
STARTCHAR Aogonek
ENCODING 260
SWIDTH 830 0
DWIDTH 23 0
BBX 21 29 1 -8
BITMAP
01FFC0
020040
060020
0C3E20
1C4110
1C8110
189890
389C88
391C48
711C48
713E48
720048
F20028
F1FFC8
F20028
F20028
F23E28
F23E28
F03E48
F05E88
F05E88
FF9C98
FF1C88
FC1C68
003C08
003E08
003FF0
001FE0
001FC0
ENDCHAR
STARTCHAR aogonek
ENCODING 261
SWIDTH 830 0
DWIDTH 23 0
BBX 21 29 1 -8
BITMAP
01FFC0
020040
060020
0C3E20
1C4110
1C8110
189890
389C88
391C48
711C48
713E48
720048
F20028
F1FFC8
F20028
F20028
F23E28
F23E28
F03E48
F05E88
F05E88
FF9C98
FF1C88
FC1C68
003C08
003E08
003FF0
001FE0
001FC0
ENDCHAR
STARTCHAR Cacute
ENCODING 262
SWIDTH 728 0
DWIDTH 20 0
BBX 19 31 1 -3
BITMAP
0001E0
01FE20
020020
067F20
0E0020
1E0060
1E3F80
1FC060
1C0020
180020
10FF20
310020
710020
711FC0
F13F80
F13E00
F12000
F12000
F12000
F12000
F12000
F12000
F11FC0
F10020
F0BF20
F80020
FC0020
7F8020
7FFFC0
3FFF00
0FFE00
ENDCHAR
STARTCHAR cacute
ENCODING 263
SWIDTH 728 0
DWIDTH 20 0
BBX 19 31 1 -3
BITMAP
0001E0
01FE20
020020
067F20
0E0020
1E0060
1E3F80
1FC060
1C0020
180020
10FF20
310020
710020
711FC0
F13F80
F13E00
F12000
F12000
F12000
F12000
F12000
F12000
F11FC0
F10020
F0BF20
F80020
FC0020
7F8020
7FFFC0
3FFF00
0FFE00
ENDCHAR
STARTCHAR Ccircumflex
ENCODING 264
SWIDTH 728 0
DWIDTH 20 0
BBX 19 32 1 -3
BITMAP
003C00
00C300
0300C0
043C40
0CC340
1C0040
3C3C40
3FFFC0
3F8020
3C0020
380020
10FF20
310020
710020
711FC0
F13F80
F13E00
F12000
F12000
F12000
F12000
F12000
F12000
F11FC0
F10020
F0BF20
F80020
FC0020
7F8020
7FFFC0
3FFF00
0FFE00
ENDCHAR
STARTCHAR ccircumflex
ENCODING 265
SWIDTH 728 0
DWIDTH 20 0
BBX 19 32 1 -3
BITMAP
003C00
00C300
0300C0
043C40
0CC340
1C0040
3C3C40
3FFFC0
3F8020
3C0020
380020
10FF20
310020
710020
711FC0
F13F80
F13E00
F12000
F12000
F12000
F12000
F12000
F12000
F11FC0
F10020
F0BF20
F80020
FC0020
7F8020
7FFFC0
3FFF00
0FFE00
ENDCHAR
STARTCHAR Cdotaccent
ENCODING 266
SWIDTH 728 0
DWIDTH 20 0
BBX 19 31 1 -3
BITMAP
007E00
008100
018900
038900
078100
078100
078100
07FEE0
040020
080020
10FF20
310020
710020
F11FC0
F13F80
F13E00
F12000
F12000
F12000
F12000
F12000
F12000
F11FC0
F10020
F0BF20
F80020
FC0020
7F8020
7FFFC0
3FFF00
0FFE00
ENDCHAR
STARTCHAR cdotaccent
ENCODING 267
SWIDTH 728 0
DWIDTH 20 0
BBX 19 31 1 -3
BITMAP
007E00
008100
018900
038900
078100
078100
078100
07FEE0
040020
080020
10FF20
310020
710020
F11FC0
F13F80
F13E00
F12000
F12000
F12000
F12000
F12000
F12000
F11FC0
F10020
F0BF20
F80020
FC0020
7F8020
7FFFC0
3FFF00
0FFE00
ENDCHAR
STARTCHAR Ccaron
ENCODING 268
SWIDTH 728 0
DWIDTH 20 0
BBX 19 31 1 -3
BITMAP
07C3C0
0C3C40
1C0240
3C7C40
3C0040
3F0080
3FE700
3F99E0
1C0020
080020
10FF20
310020
710020
F11FC0
F13F80
F13E00
F12000
F12000
F12000
F12000
F12000
F12000
F11FC0
F10020
F0BF20
F80020
FC0020
7F8020
7FFFC0
3FFF00
0FFE00
ENDCHAR
STARTCHAR ccaron
ENCODING 269
SWIDTH 728 0
DWIDTH 20 0
BBX 19 31 1 -3
BITMAP
07C3C0
0C3C40
1C0240
3C7C40
3C0040
3F0080
3FE700
3F99E0
1C0020
080020
10FF20
310020
710020
F11FC0
F13F80
F13E00
F12000
F12000
F12000
F12000
F12000
F12000
F11FC0
F10020
F0BF20
F80020
FC0020
7F8020
7FFFC0
3FFF00
0FFE00
ENDCHAR
STARTCHAR Dcaron
ENCODING 270
SWIDTH 846 0
DWIDTH 24 0
BBX 22 31 1 -3
BITMAP
03C1E0
063E20
0E4120
1E3E20
1E0020
1F00C0
1FF300
100CE0
100010
300008
71FE84
F10044
F10024
F11E24
F11E24
F11E24
F11E24
F11E24
F11E24
F11E24
F11E24
F11E24
F11C24
F10044
F1FE84
F00008
F00010
F800E0
FFFFC0
FFFF00
FFFE00
ENDCHAR
STARTCHAR dcaron
ENCODING 271
SWIDTH 846 0
DWIDTH 24 0
BBX 22 31 1 -3
BITMAP
03C1E0
063E20
0E4120
1E3E20
1E0020
1F00C0
1FF300
100CE0
100010
300008
71FE84
F10044
F10024
F11E24
F11E24
F11E24
F11E24
F11E24
F11E24
F11E24
F11E24
F11E24
F11C24
F10044
F1FE84
F00008
F00010
F800E0
FFFFC0
FFFF00
FFFE00
ENDCHAR
STARTCHAR Dcroat
ENCODING 272
SWIDTH 856 0
DWIDTH 24 0
BBX 23 24 0 -3
BITMAP
07FFF0
08000C
180004
38FF42
388022
388012
388F12
388F12
308312
308312
73E312
F08312
F08312
F88F12
F89712
F88812
388022
38FF42
380004
380008
3C0070
3FFFE0
3FFFC0
3FFF00
ENDCHAR
STARTCHAR dcroat
ENCODING 273
SWIDTH 856 0
DWIDTH 24 0
BBX 23 24 0 -3
BITMAP
07FFF0
08000C
180004
38FF42
388022
388012
388F12
388F12
308312
308312
73E312
F08312
F08312
F88F12
F89712
F88812
388022
38FF42
380004
380008
3C0070
3FFFE0
3FFFC0
3FFF00
ENDCHAR
STARTCHAR Emacron
ENCODING 274
SWIDTH 754 0
DWIDTH 21 0
BBX 19 30 1 -3
BITMAP
03FF80
040040
0CFE40
1C0040
3C0040
3C0040
3BFFA0
300020
300020
71FFA0
F10020
F10020
F13FC0
F13F80
F10080
F10040
F1FC40
F10040
F10080
F13F00
F13E00
F13FE0
F10020
F1FFA0
F00020
F00020
F80020
FFFFC0
FFFF80
FFFF00
ENDCHAR
STARTCHAR emacron
ENCODING 275
SWIDTH 754 0
DWIDTH 21 0
BBX 19 30 1 -3
BITMAP
03FF80
040040
0CFE40
1C0040
3C0040
3C0040
3BFFA0
300020
300020
71FFA0
F10020
F10020
F13FC0
F13F80
F10080
F10040
F1FC40
F10040
F10080
F13F00
F13E00
F13FE0
F10020
F1FFA0
F00020
F00020
F80020
FFFFC0
FFFF80
FFFF00
ENDCHAR
STARTCHAR Ebreve
ENCODING 276
SWIDTH 754 0
DWIDTH 21 0
BBX 19 32 1 -3
BITMAP
03C380
042420
0C3C20
1C8120
3C8120
3C5A40
3E0080
3F8100
387EE0
100020
300020
71FFA0
F10020
F10020
F13FC0
F13F80
F10080
F10040
F1FC40
F10040
F10080
F13F00
F13E00
F13FE0
F10020
F1FFA0
F00020
F00020
F80020
FFFFC0
FFFF80
FFFF00
ENDCHAR
STARTCHAR ebreve
ENCODING 277
SWIDTH 754 0
DWIDTH 21 0
BBX 19 32 1 -3
BITMAP
03C380
042420
0C3C20
1C8120
3C8120
3C5A40
3E0080
3F8100
387EE0
100020
300020
71FFA0
F10020
F10020
F13FC0
F13F80
F10080
F10040
F1FC40
F10040
F10080
F13F00
F13E00
F13FE0
F10020
F1FFA0
F00020
F00020
F80020
FFFFC0
FFFF80
FFFF00
ENDCHAR
STARTCHAR Edotaccent
ENCODING 278
SWIDTH 754 0
DWIDTH 21 0
BBX 19 31 1 -3
BITMAP
00FC00
010200
031200
071200
0F0200
0F0200
0F0200
08FDE0
100020
300020
71FFA0
F10020
F10020
F13FC0
F13F80
F10080
F10040
F1FC40
F10040
F10080
F13F00
F13E00
F13FE0
F10020
F1FFA0
F00020
F00020
F80020
FFFFC0
FFFF80
FFFF00
ENDCHAR
STARTCHAR edotaccent
ENCODING 279
SWIDTH 754 0
DWIDTH 21 0
BBX 19 31 1 -3
BITMAP
00FC00
010200
031200
071200
0F0200
0F0200
0F0200
08FDE0
100020
300020
71FFA0
F10020
F10020
F13FC0
F13F80
F10080
F10040
F1FC40
F10040
F10080
F13F00
F13E00
F13FE0
F10020
F1FFA0
F00020
F00020
F80020
FFFFC0
FFFF80
FFFF00
ENDCHAR
STARTCHAR Eogonek
ENCODING 280
SWIDTH 754 0
DWIDTH 21 0
BBX 19 29 1 -8
BITMAP
0FFFE0
100020
300020
71FFA0
F10020
F10020
F13FC0
F13F80
F10080
F10040
F1FC40
F10040
F10080
F13F00
F13E00
F13FE0
F10020
F1FFA0
F00120
F00220
F80A20
FFF260
FFF220
FFF3A0
007020
00F820
00FFC0
00FF80
007F00
ENDCHAR
STARTCHAR eogonek
ENCODING 281
SWIDTH 754 0
DWIDTH 21 0
BBX 19 29 1 -8
BITMAP
0FFFE0
100020
300020
71FFA0
F10020
F10020
F13FC0
F13F80
F10080
F10040
F1FC40
F10040
F10080
F13F00
F13E00
F13FE0
F10020
F1FFA0
F00120
F00220
F80A20
FFF260
FFF220
FFF3A0
007020
00F820
00FFC0
00FF80
007F00
ENDCHAR
STARTCHAR Ecaron
ENCODING 282
SWIDTH 754 0
DWIDTH 21 0
BBX 19 31 1 -3
BITMAP
07C3C0
0C3C40
1C8240
3C7C40
3C0040
3F0080
3FE700
3819E0
100020
300020
71FFA0
F10020
F10020
F13FC0
F13F80
F10080
F10040
F1FC40
F10040
F10080
F13F00
F13E00
F13FE0
F10020
F1FFA0
F00020
F00020
F80020
FFFFC0
FFFF80
FFFF00
ENDCHAR
STARTCHAR ecaron
ENCODING 283
SWIDTH 754 0
DWIDTH 21 0
BBX 19 31 1 -3
BITMAP
07C3C0
0C3C40
1C8240
3C7C40
3C0040
3F0080
3FE700
3819E0
100020
300020
71FFA0
F10020
F10020
F13FC0
F13F80
F10080
F10040
F1FC40
F10040
F10080
F13F00
F13E00
F13FE0
F10020
F1FFA0
F00020
F00020
F80020
FFFFC0
FFFF80
FFFF00
ENDCHAR
STARTCHAR Gcircumflex
ENCODING 284
SWIDTH 808 0
DWIDTH 23 0
BBX 21 32 1 -3
BITMAP
001E00
006180
018060
021E20
0661A0
0E0020
1E1E20
1FFFE0
1F8020
1C0020
180020
10FF20
310020
710020
713FC0
F13F80
F13F00
F123F0
F12408
F12C08
F13C48
F13C48
F13C48
F10048
F10048
F0FFC8
F80008
FC0008
7F8008
7FFFF0
3FFFC0
0FFF80
ENDCHAR
STARTCHAR gcircumflex
ENCODING 285
SWIDTH 808 0
DWIDTH 23 0
BBX 21 32 1 -3
BITMAP
001E00
006180
018060
021E20
0661A0
0E0020
1E1E20
1FFFE0
1F8020
1C0020
180020
10FF20
310020
710020
713FC0
F13F80
F13F00
F123F0
F12408
F12C08
F13C48
F13C48
F13C48
F10048
F10048
F0FFC8
F80008
FC0008
7F8008
7FFFF0
3FFFC0
0FFF80
ENDCHAR
STARTCHAR Gbreve
ENCODING 286
SWIDTH 808 0
DWIDTH 23 0
BBX 21 32 1 -3
BITMAP
01E3C0
021420
061C20
0E80A0
1E41A0
1E3E20
1F0040
1FC080
1FBF60
0C0020
080020
10FF20
310020
710020
F13FC0
F13F80
F13F00
F123F0
F12408
F12C08
F13C48
F13C48
F13C48
F10048
F10048
F0FFC8
F80008
FC0008
7F8008
7FFFF0
3FFFC0
0FFF80
ENDCHAR
STARTCHAR gbreve
ENCODING 287
SWIDTH 808 0
DWIDTH 23 0
BBX 21 32 1 -3
BITMAP
01E3C0
021420
061C20
0E80A0
1E41A0
1E3E20
1F0040
1FC080
1FBF60
0C0020
080020
10FF20
310020
710020
F13FC0
F13F80
F13F00
F123F0
F12408
F12C08
F13C48
F13C48
F13C48
F10048
F10048
F0FFC8
F80008
FC0008
7F8008
7FFFF0
3FFFC0
0FFF80
ENDCHAR
STARTCHAR Gdotaccent
ENCODING 288
SWIDTH 808 0
DWIDTH 23 0
BBX 21 31 1 -3
BITMAP
003E00
004080
01C880
03C880
03C080
03C080
03C100
03BEE0
040020
080020
10FF20
310020
710020
F13FC0
F13F80
F13F00
F123F0
F12408
F12C08
F13C48
F13C48
F13C48
F10048
F10048
F0FFC8
F80008
FC0008
7F8008
7FFFF0
3FFFC0
0FFF80
ENDCHAR
STARTCHAR gdotaccent
ENCODING 289
SWIDTH 808 0
DWIDTH 23 0
BBX 21 31 1 -3
BITMAP
003E00
004080
01C880
03C880
03C080
03C080
03C100
03BEE0
040020
080020
10FF20
310020
710020
F13FC0
F13F80
F13F00
F123F0
F12408
F12C08
F13C48
F13C48
F13C48
F10048
F10048
F0FFC8
F80008
FC0008
7F8008
7FFFF0
3FFFC0
0FFF80
ENDCHAR
STARTCHAR Gcommaaccent
ENCODING 290
SWIDTH 808 0
DWIDTH 23 0
BBX 21 34 1 -13
BITMAP
03FFE0
040020
080020
10FF20
310020
710020
F11FC0
F13F80
F13F00
F123F0
F12408
F12C08
F13C48
F13C48
F13C48
F11C48
F10048
F10048
F8FFC8
F80008
7E0008
7FFFF0
3FC0C0
0F8080
039C80
038280
038280
03FA80
03C500
03D900
01C200
03FC00
03F000
03E000
ENDCHAR
STARTCHAR gcommaaccent
ENCODING 291
SWIDTH 808 0
DWIDTH 23 0
BBX 21 34 1 -13
BITMAP
03FFE0
040020
080020
10FF20
310020
710020
F11FC0
F13F80
F13F00
F123F0
F12408
F12C08
F13C48
F13C48
F13C48
F11C48
F10048
F10048
F8FFC8
F80008
7E0008
7FFFF0
3FC0C0
0F8080
039C80
038280
038280
03FA80
03C500
03D900
01C200
03FC00
03F000
03E000
ENDCHAR
STARTCHAR Hcircumflex
ENCODING 292
SWIDTH 859 0
DWIDTH 24 0
BBX 22 32 1 -3
BITMAP
001E00
006180
018060
021E20
066120
0E0020
1E1E20
1FFFE0
183F1C
101E04
302604
712E24
F11E24
F11E24
F11E24
F11E24
F10024
F10024
F1FFC4
F10024
F10024
F10024
F11E24
F11E24
F11E24
F11E24
F01E04
F01E04
F83F04
FFDFF8
FF1FE0
FE1FC0
ENDCHAR
STARTCHAR hcircumflex
ENCODING 293
SWIDTH 859 0
DWIDTH 24 0
BBX 22 32 1 -3
BITMAP
001E00
006180
018060
021E20
066120
0E0020
1E1E20
1FFFE0
183F1C
101E04
302604
712E24
F11E24
F11E24
F11E24
F11E24
F10024
F10024
F1FFC4
F10024
F10024
F10024
F11E24
F11E24
F11E24
F11E24
F01E04
F01E04
F83F04
FFDFF8
FF1FE0
FE1FC0
ENDCHAR
STARTCHAR Hbar
ENCODING 294
SWIDTH 879 0
DWIDTH 25 0
BBX 24 24 0 -3
BITMAP
07F0FE
081182
181382
388F91
308011
308011
71FFFD
F08011
F08011
F88F91
F88F92
F88012
388012
38FFF2
388012
388012
388012
388F92
380F82
380F82
3C1782
3FE7FC
3FC7F8
3F07E0
ENDCHAR
STARTCHAR hbar
ENCODING 295
SWIDTH 879 0
DWIDTH 25 0
BBX 24 24 0 -3
BITMAP
07F0FE
081182
181382
388F91
308011
308011
71FFFD
F08011
F08011
F88F91
F88F92
F88012
388012
38FFF2
388012
388012
388012
388F92
380F82
380F82
3C1782
3FE7FC
3FC7F8
3F07E0
ENDCHAR
STARTCHAR Itilde
ENCODING 296
SWIDTH 705 0
DWIDTH 20 0
BBX 18 30 1 -3
BITMAP
03F300
0C0C80
180080
39FC80
780080
7BE100
741EC0
700040
700040
73FE40
F02040
F02040
FE2380
FE2300
FE2200
7E2200
0E2200
0E2200
0E2200
0E2200
0E2200
0E2380
102040
73FE40
F00040
F00040
F00040
FFFF80
FFFE00
FFFC00
ENDCHAR
STARTCHAR itilde
ENCODING 297
SWIDTH 705 0
DWIDTH 20 0
BBX 18 30 1 -3
BITMAP
03F300
0C0C80
180080
39FC80
780080
7BE100
741EC0
700040
700040
73FE40
F02040
F02040
FE2380
FE2300
FE2200
7E2200
0E2200
0E2200
0E2200
0E2200
0E2200
0E2380
102040
73FE40
F00040
F00040
F00040
FFFF80
FFFE00
FFFC00
ENDCHAR
STARTCHAR Imacron
ENCODING 298
SWIDTH 705 0
DWIDTH 20 0
BBX 18 30 1 -3
BITMAP
07FF00
080080
19FC80
380080
780080
780080
7FFFC0
700040
700040
73FE40
F02040
F02040
FE2380
FE2300
FE2200
7E2200
0E2200
0E2200
0E2200
0E2200
0E2200
0E2380
102040
73FE40
F00040
F00040
F00040
FFFF80
FFFE00
FFFC00
ENDCHAR
STARTCHAR imacron
ENCODING 299
SWIDTH 705 0
DWIDTH 20 0
BBX 18 30 1 -3
BITMAP
07FF00
080080
19FC80
380080
780080
780080
7FFFC0
700040
700040
73FE40
F02040
F02040
FE2380
FE2300
FE2200
7E2200
0E2200
0E2200
0E2200
0E2200
0E2200
0E2380
102040
73FE40
F00040
F00040
F00040
FFFF80
FFFE00
FFFC00
ENDCHAR
STARTCHAR Ibreve
ENCODING 300
SWIDTH 705 0
DWIDTH 20 0
BBX 18 32 1 -3
BITMAP
078F00
085080
187080
3A0280
790680
78F880
7C0100
7F0200
70FDC0
300040
300040
F3FE40
F02040
F02040
FE2380
FE2300
FE2200
7E2200
0E2200
0E2200
0E2200
0E2200
0E2200
0E2380
102040
73FE40
F00040
F00040
F00040
FFFF80
FFFE00
FFFC00
ENDCHAR
STARTCHAR ibreve
ENCODING 301
SWIDTH 705 0
DWIDTH 20 0
BBX 18 32 1 -3
BITMAP
078F00
085080
187080
3A0280
790680
78F880
7C0100
7F0200
70FDC0
300040
300040
F3FE40
F02040
F02040
FE2380
FE2300
FE2200
7E2200
0E2200
0E2200
0E2200
0E2200
0E2200
0E2380
102040
73FE40
F00040
F00040
F00040
FFFF80
FFFE00
FFFC00
ENDCHAR
STARTCHAR Iogonek
ENCODING 302
SWIDTH 705 0
DWIDTH 20 0
BBX 18 29 1 -8
BITMAP
1FFFC0
300040
700040
F3FE40
F02040
F02040
FE2380
FE2300
FE2200
7E2200
0E2200
0E2200
0E2200
0E2200
0E2200
0E2380
102040
73FE40
F00440
F00440
F00440
FFE580
FFE440
FFE640
01E040
01F040
01FF80
01FF00
01FE00
ENDCHAR
STARTCHAR iogonek
ENCODING 303
SWIDTH 705 0
DWIDTH 20 0
BBX 18 29 1 -8
BITMAP
1FFFC0
300040
700040
F3FE40
F02040
F02040
FE2380
FE2300
FE2200
7E2200
0E2200
0E2200
0E2200
0E2200
0E2200
0E2380
102040
73FE40
F00440
F00440
F00440
FFE580
FFE440
FFE640
01E040
01F040
01FF80
01FF00
01FE00
ENDCHAR
STARTCHAR Idotaccent
ENCODING 304
SWIDTH 705 0
DWIDTH 20 0
BBX 18 31 1 -3
BITMAP
00F800
010200
062200
0E2200
0E0200
0E0200
0F0400
10FBC0
300040
700040
F3FE40
F02040
F02040
FE2380
FE2300
FE2200
7E2200
0E2200
0E2200
0E2200
0E2200
0E2200
0E2380
102040
73FE40
F00040
F00040
F00040
FFFF80
FFFE00
FFFC00
ENDCHAR
STARTCHAR dotlessi
ENCODING 305
SWIDTH 705 0
DWIDTH 20 0
BBX 18 24 1 -3
BITMAP
1FFFC0
300040
700040
F3FE40
F02040
F02040
FE2380
FE2300
FE2200
7E2200
0E2200
0E2200
0E2200
0E2200
0E2200
0E2380
102040
73FE40
F00040
F00040
F00040
FFFF80
FFFE00
FFFC00
ENDCHAR
STARTCHAR IJ
ENCODING 306
SWIDTH 844 0
DWIDTH 24 0
BBX 22 24 1 -3
BITMAP
0FE3FC
102204
302E04
711E24
F11E24
F11E24
F11E24
F11E24
F11E24
F01E24
F01E24
F03E24
FFFE24
FFBE24
FF3E44
7FF844
100044
31FE88
700008
F00010
F800E0
FFFF80
FFFF00
FFFC00
ENDCHAR
STARTCHAR ij
ENCODING 307
SWIDTH 844 0
DWIDTH 24 0
BBX 22 24 1 -3
BITMAP
0FE3FC
102204
302E04
711E24
F11E24
F11E24
F11E24
F11E24
F11E24
F01E24
F01E24
F03E24
FFFE24
FFBE24
FF3E44
7FF844
100044
31FE88
700008
F00010
F800E0
FFFF80
FFFF00
FFFC00
ENDCHAR
STARTCHAR Jcircumflex
ENCODING 308
SWIDTH 788 0
DWIDTH 22 0
BBX 23 32 0 -3
BITMAP
0001E0
00061C
001802
0021E2
00661A
00E002
01E3FA
01FFFE
01FC04
00F408
009C08
001C48
003C48
003C48
003C48
003C48
003C48
0FFC48
103C48
303C48
713C48
F13C48
F11C48
F10048
F08088
F87F08
780010
7E0020
7FE3C0
3FFF80
1FFE00
07F800
ENDCHAR
STARTCHAR jcircumflex
ENCODING 309
SWIDTH 788 0
DWIDTH 22 0
BBX 23 32 0 -3
BITMAP
0001E0
00061C
001802
0021E2
00661A
00E002
01E3FA
01FFFE
01FC04
00F408
009C08
001C48
003C48
003C48
003C48
003C48
003C48
0FFC48
103C48
303C48
713C48
F13C48
F11C48
F10048
F08088
F87F08
780010
7E0020
7FE3C0
3FFF80
1FFE00
07F800
ENDCHAR
STARTCHAR Kcommaaccent
ENCODING 310
SWIDTH 846 0
DWIDTH 24 0
BBX 22 34 1 -13
BITMAP
0FE3F8
102408
302C08
711C88
F11890
F11910
F11120
F11220
F10218
F10204
F1FF84
F10044
F10024
F11E24
F11E24
F11E24
F11E24
F11E24
F01E04
F01E04
F83F04
FFFFF8
FFC0E0
FF80C0
039C80
038280
038280
03FA80
03C500
03D900
01C200
03FC00
03F000
03E000
ENDCHAR
STARTCHAR kcommaaccent
ENCODING 311
SWIDTH 846 0
DWIDTH 24 0
BBX 22 34 1 -13
BITMAP
0FE3F8
102408
302C08
711C88
F11890
F11910
F11120
F11220
F10218
F10204
F1FF84
F10044
F10024
F11E24
F11E24
F11E24
F11E24
F11E24
F01E04
F01E04
F83F04
FFFFF8
FFC0E0
FF80C0
039C80
038280
038280
03FA80
03C500
03D900
01C200
03FC00
03F000
03E000
ENDCHAR
STARTCHAR kgreenlandic
ENCODING 312
SWIDTH 846 0
DWIDTH 24 0
BBX 22 24 1 -3
BITMAP
0FE3F8
102408
302C08
711C88
F11890
F11910
F11120
F11220
F10218
F10204
F1FF84
F10044
F10024
F11E24
F11E24
F11E24
F11E24
F11E24
F01E04
F01E04
F83F04
FFDFF8
FF1FE0
FE1FC0
ENDCHAR
STARTCHAR Lacute
ENCODING 313
SWIDTH 795 0
DWIDTH 22 0
BBX 21 31 1 -3
BITMAP
000700
07F900
080080
31F880
700080
F00100
F07E00
FFF800
F01000
F02000
712000
F12000
F12000
F12000
F12000
F12000
F123F0
F12408
F12C08
F11C48
F11C48
F11C48
F10048
F10048
F1FFC8
F00008
F00008
F80008
FFFFF0
FFFFC0
FFFF80
ENDCHAR
STARTCHAR lacute
ENCODING 314
SWIDTH 795 0
DWIDTH 22 0
BBX 21 31 1 -3
BITMAP
000700
07F900
080080
31F880
700080
F00100
F07E00
FFF800
F01000
F02000
712000
F12000
F12000
F12000
F12000
F12000
F123F0
F12408
F12C08
F11C48
F11C48
F11C48
F10048
F10048
F1FFC8
F00008
F00008
F80008
FFFFF0
FFFFC0
FFFF80
ENDCHAR
STARTCHAR Lcommaaccent
ENCODING 315
SWIDTH 795 0
DWIDTH 22 0
BBX 21 34 1 -13
BITMAP
0FE000
102000
302000
712000
F12000
F12000
F12000
F12000
F12000
F123F0
F12408
F12C08
F11C48
F11C48
F11C48
F10048
F10048
F1FFC8
F00008
F00008
F00008
FFFFF0
FF81C0
FF8080
039D00
078500
078500
07FD00
07C500
079900
03C600
03F800
03F000
03E000
ENDCHAR
STARTCHAR lcommaaccent
ENCODING 316
SWIDTH 795 0
DWIDTH 22 0
BBX 21 34 1 -13
BITMAP
0FE000
102000
302000
712000
F12000
F12000
F12000
F12000
F12000
F123F0
F12408
F12C08
F11C48
F11C48
F11C48
F10048
F10048
F1FFC8
F00008
F00008
F00008
FFFFF0
FF81C0
FF8080
039D00
078500
078500
07FD00
07C500
079900
03C600
03F800
03F000
03E000
ENDCHAR
STARTCHAR Lcaron
ENCODING 317
SWIDTH 795 0
DWIDTH 22 0
BBX 21 24 1 -3
BITMAP
0FE3F8
102408
302C08
711C90
F11C90
F11C10
F11810
F11C20
F11FC0
F11FF0
F11C08
F12C08
F11C48
F11C48
F11C48
F10048
F10048
F1FFC8
F00008
F00008
F80008
FFFFF0
FFFFC0
FFFF80
ENDCHAR
STARTCHAR lcaron
ENCODING 318
SWIDTH 795 0
DWIDTH 22 0
BBX 21 24 1 -3
BITMAP
0FE3F8
102408
302C08
711C90
F11C90
F11C10
F11810
F11C20
F11FC0
F11FF0
F11C08
F12C08
F11C48
F11C48
F11C48
F10048
F10048
F1FFC8
F00008
F00008
F80008
FFFFF0
FFFFC0
FFFF80
ENDCHAR
STARTCHAR Ldot
ENCODING 319
SWIDTH 795 0
DWIDTH 22 0
BBX 21 24 1 -3
BITMAP
0FE000
102000
302000
712000
F123F0
F12408
F12C48
F11C48
F11C08
F11C08
F11FF0
F11FF0
F11C08
F12C08
F11C48
F10048
F10048
F1FFC8
F00008
F00008
F80018
FFFFE0
FFFFC0
FFFF80
ENDCHAR
STARTCHAR ldot
ENCODING 320
SWIDTH 795 0
DWIDTH 22 0
BBX 21 24 1 -3
BITMAP
0FE000
102000
302000
712000
F123F0
F12408
F12C48
F11C48
F11C08
F11C08
F11FF0
F11FF0
F11C08
F12C08
F11C48
F10048
F10048
F1FFC8
F00008
F00008
F80018
FFFFE0
FFFFC0
FFFF80
ENDCHAR
STARTCHAR Lslash
ENCODING 321
SWIDTH 805 0
DWIDTH 23 0
BBX 22 24 0 -3
BITMAP
07F000
081000
181000
389000
389000
389400
388A00
388200
309200
73E2F8
F08304
F08F04
F88F24
F88F24
F88F24
F88024
388024
38FFE4
380004
380004
3C0004
3FFFF8
3FFFE0
3FFFC0
ENDCHAR
STARTCHAR lslash
ENCODING 322
SWIDTH 805 0
DWIDTH 23 0
BBX 22 24 0 -3
BITMAP
07F000
081000
181000
389000
389000
389400
388A00
388200
309200
73E2F8
F08304
F08F04
F88F24
F88F24
F88F24
F88024
388024
38FFE4
380004
380004
3C0004
3FFFF8
3FFFE0
3FFFC0
ENDCHAR
STARTCHAR Nacute
ENCODING 323
SWIDTH 853 0
DWIDTH 24 0
BBX 22 31 1 -3
BITMAP
0001E0
00FE20
030010
063F10
0E0020
1E0060
1E0F80
19FF7C
103E04
301604
710E24
F18624
F14624
F12224
F11024
F10824
F10424
F12224
F12224
F13124
F138A4
F13C44
F13E24
F13E24
F13E24
F03E04
F03E04
F83F0C
FFDFF0
FF1FE0
FE1FC0
ENDCHAR
STARTCHAR nacute
ENCODING 324
SWIDTH 853 0
DWIDTH 24 0
BBX 22 31 1 -3
BITMAP
0001E0
00FE20
030010
063F10
0E0020
1E0060
1E0F80
19FF7C
103E04
301604
710E24
F18624
F14624
F12224
F11024
F10824
F10424
F12224
F12224
F13124
F138A4
F13C44
F13E24
F13E24
F13E24
F03E04
F03E04
F83F0C
FFDFF0
FF1FE0
FE1FC0
ENDCHAR
STARTCHAR Ncommaaccent
ENCODING 325
SWIDTH 853 0
DWIDTH 24 0
BBX 22 34 1 -13
BITMAP
0FC1FC
102204
301604
710E24
F18624
F14624
F12224
F11024
F10824
F10424
F12224
F12224
F13124
F138A4
F13C44
F13E24
F13E24
F13E24
F03E04
F03E04
F83F0C
FFFFF0
FF40E0
FFC0C0
03DC80
03C280
03C280
03FA80
03C500
03D900
01C200
03FC00
03F000
03E000
ENDCHAR
STARTCHAR ncommaaccent
ENCODING 326
SWIDTH 853 0
DWIDTH 24 0
BBX 22 34 1 -13
BITMAP
0FC1FC
102204
301604
710E24
F18624
F14624
F12224
F11024
F10824
F10424
F12224
F12224
F13124
F138A4
F13C44
F13E24
F13E24
F13E24
F03E04
F03E04
F83F0C
FFFFF0
FF40E0
FFC0C0
03DC80
03C280
03C280
03FA80
03C500
03D900
01C200
03FC00
03F000
03E000
ENDCHAR
STARTCHAR Ncaron
ENCODING 327
SWIDTH 853 0
DWIDTH 24 0
BBX 22 31 1 -3
BITMAP
03C1E0
063E20
0E4120
1E3E20
1E0020
1F00C0
1FE300
187FFC
103A04
301604
710E24
F18624
F14624
F12224
F11024
F10824
F10424
F12224
F12224
F13124
F138A4
F13C44
F13E24
F13E24
F13E24
F03E04
F03E04
F83F0C
FFDFF0
FF1FE0
FE1FC0
ENDCHAR
STARTCHAR ncaron
ENCODING 328
SWIDTH 853 0
DWIDTH 24 0
BBX 22 31 1 -3
BITMAP
03C1E0
063E20
0E4120
1E3E20
1E0020
1F00C0
1FE300
187FFC
103A04
301604
710E24
F18624
F14624
F12224
F11024
F10824
F10424
F12224
F12224
F13124
F138A4
F13C44
F13E24
F13E24
F13E24
F03E04
F03E04
F83F0C
FFDFF0
FF1FE0
FE1FC0
ENDCHAR
STARTCHAR napostrophe
ENCODING 329
SWIDTH 853 0
DWIDTH 24 0
BBX 22 34 1 -3
BITMAP
0FC000
102000
302000
77A000
F0A000
F0A000
FEA000
F0A000
F74000
708000
FFC1F8
F02204
F02604
711E24
F18E24
F14624
F12224
F11024
F10824
F10424
F12224
F12224
F13124
F138A4
F13C44
F13E24
F13E24
F13E24
F03E04
F03E04
F83F0C
FFDFF0
FF1FE0
FE1FC0
ENDCHAR
STARTCHAR Eng
ENCODING 330
SWIDTH 846 0
DWIDTH 24 0
BBX 22 26 1 -5
BITMAP
01FFC0
060030
087D08
108084
310044
710024
713E24
F13E24
F13E24
F13E24
F13E24
F13E24
F13E24
F13E24
F13E24
F13E24
F13E24
F13E24
F03024
F03044
F03188
FFF008
FFF030
FEFFC0
00FF80
00FE00
ENDCHAR
STARTCHAR eng
ENCODING 331
SWIDTH 846 0
DWIDTH 24 0
BBX 22 26 1 -5
BITMAP
01FFC0
060030
087D08
108084
310044
710024
713E24
F13E24
F13E24
F13E24
F13E24
F13E24
F13E24
F13E24
F13E24
F13E24
F13E24
F13E24
F03024
F03044
F03188
FFF008
FFF030
FEFFC0
00FF80
00FE00
ENDCHAR
STARTCHAR Omacron
ENCODING 332
SWIDTH 837 0
DWIDTH 23 0
BBX 22 30 1 -3
BITMAP
01FFC0
020020
0E7F20
1E0020
1E0020
1E0020
1FFFC0
1E0020
087F18
108088
710044
711E44
F13E24
F13E24
F13E24
F13E24
F13E24
F13E24
F13E24
F13E24
F13E44
F10044
F08084
F05D08
F80008
FC0010
7FE3E0
7FFF80
3FFF00
07FC00
ENDCHAR
STARTCHAR omacron
ENCODING 333
SWIDTH 837 0
DWIDTH 23 0
BBX 22 30 1 -3
BITMAP
01FFC0
020020
0E7F20
1E0020
1E0020
1E0020
1FFFC0
1E0020
087F18
108088
710044
711E44
F13E24
F13E24
F13E24
F13E24
F13E24
F13E24
F13E24
F13E24
F13E44
F10044
F08084
F05D08
F80008
FC0010
7FE3E0
7FFF80
3FFF00
07FC00
ENDCHAR
STARTCHAR Obreve
ENCODING 334
SWIDTH 837 0
DWIDTH 23 0
BBX 22 32 1 -3
BITMAP
01E3C0
021420
0C1C20
1C80A0
1E4120
1E3E20
1E0040
1F8080
1FFFC0
0E0030
087F08
108088
710044
711E44
F13E24
F13E24
F13E24
F13E24
F13E24
F13E24
F13E24
F13E24
F13E44
F10044
F08084
F05D08
F80008
FC0010
7FE3E0
7FFF80
3FFF00
07FC00
ENDCHAR
STARTCHAR obreve
ENCODING 335
SWIDTH 837 0
DWIDTH 23 0
BBX 22 32 1 -3
BITMAP
01E3C0
021420
0C1C20
1C80A0
1E4120
1E3E20
1E0040
1F8080
1FFFC0
0E0030
087F08
108088
710044
711E44
F13E24
F13E24
F13E24
F13E24
F13E24
F13E24
F13E24
F13E24
F13E44
F10044
F08084
F05D08
F80008
FC0010
7FE3E0
7FFF80
3FFF00
07FC00
ENDCHAR
STARTCHAR Ohungarumlaut
ENCODING 336
SWIDTH 837 0
DWIDTH 23 0
BBX 22 34 1 -3
BITMAP
00F1E0
010A08
030608
070E10
0E4E50
0E4C90
0E4C90
1E0C20
1C1C20
1C1C20
1FFFC0
3E0020
087F18
108088
710044
711E44
F13E24
F13E24
F13E24
F13E24
F13E24
F13E24
F13E24
F13E24
F13E44
F10044
F08084
F05D08
F80008
FC0010
7FE3E0
7FFF80
3FFF00
07FC00
ENDCHAR
STARTCHAR ohungarumlaut
ENCODING 337
SWIDTH 837 0
DWIDTH 23 0
BBX 22 34 1 -3
BITMAP
00F1E0
010A08
030608
070E10
0E4E50
0E4C90
0E4C90
1E0C20
1C1C20
1C1C20
1FFFC0
3E0020
087F18
108088
710044
711E44
F13E24
F13E24
F13E24
F13E24
F13E24
F13E24
F13E24
F13E24
F13E44
F10044
F08084
F05D08
F80008
FC0010
7FE3E0
7FFF80
3FFF00
07FC00
ENDCHAR
STARTCHAR OE
ENCODING 338
SWIDTH 1115 0
DWIDTH 31 0
BBX 30 24 1 -3
BITMAP
03FFFFFC
04000004
08000004
107FFFC4
31804004
71004004
F13E47F8
F13E47E0
F13E4010
F13E4010
F13E3F10
F13E4010
F13E4010
F13E47E0
F13E4780
F11E47F8
F1004004
F0FFFFC4
F8000004
FC000004
7F80000C
7FFFFFF0
3FFFFFE0
0FFFFFC0
ENDCHAR
STARTCHAR oe
ENCODING 339
SWIDTH 1115 0
DWIDTH 31 0
BBX 30 24 1 -3
BITMAP
03FFFFFC
04000004
08000004
107FFFC4
31804004
71004004
F13E47F8
F13E47E0
F13E4010
F13E4010
F13E3F10
F13E4010
F13E4010
F13E47E0
F13E4780
F11E47F8
F1004004
F0FFFFC4
F8000004
FC000004
7F80000C
7FFFFFF0
3FFFFFE0
0FFFFFC0
ENDCHAR
STARTCHAR Racute
ENCODING 340
SWIDTH 843 0
DWIDTH 24 0
BBX 22 31 1 -3
BITMAP
0001C0
01FE20
020020
047F20
0C0020
1C0040
1E1F80
1FFFC0
100020
300010
71FC10
F10108
F13888
F13C88
F13C88
F13C90
F100B0
F10088
F1FF04
F10064
F10024
F13E24
F13E24
F13E24
F13E24
F02E04
F02E04
F82F04
FFCFF8
FF0FF0
FE0FC0
ENDCHAR
STARTCHAR racute
ENCODING 341
SWIDTH 843 0
DWIDTH 24 0
BBX 22 31 1 -3
BITMAP
0001C0
01FE20
020020
047F20
0C0020
1C0040
1E1F80
1FFFC0
100020
300010
71FC10
F10108
F13888
F13C88
F13C88
F13C90
F100B0
F10088
F1FF04
F10064
F10024
F13E24
F13E24
F13E24
F13E24
F02E04
F02E04
F82F04
FFCFF8
FF0FF0
FE0FC0
ENDCHAR
STARTCHAR Rcommaaccent
ENCODING 342
SWIDTH 843 0
DWIDTH 24 0
BBX 22 34 1 -13
BITMAP
0FFFC0
100020
300010
71FC10
F10108
F13888
F13C88
F13C88
F13C90
F100B0
F10088
F1FF04
F10064
F10024
F13E24
F13E24
F13E24
F13E24
F02E04
F02E04
F82F04
FFFFF8
FF40F0
FEC0C0
03DE80
03C280
03C280
03FA80
03C280
03DD00
01C200
03FC00
03F000
03E000
ENDCHAR
STARTCHAR rcommaaccent
ENCODING 343
SWIDTH 843 0
DWIDTH 24 0
BBX 22 34 1 -13
BITMAP
0FFFC0
100020
300010
71FC10
F10108
F13888
F13C88
F13C88
F13C90
F100B0
F10088
F1FF04
F10064
F10024
F13E24
F13E24
F13E24
F13E24
F02E04
F02E04
F82F04
FFFFF8
FF40F0
FEC0C0
03DE80
03C280
03C280
03FA80
03C280
03DD00
01C200
03FC00
03F000
03E000
ENDCHAR
STARTCHAR Rcaron
ENCODING 344
SWIDTH 843 0
DWIDTH 24 0
BBX 22 31 1 -3
BITMAP
03C1E0
063E20
0E4120
1E3E20
1E0020
1F0040
1FE380
1FFF80
100060
300010
71FC10
F10108
F13888
F13C88
F13C88
F13C90
F100B0
F10088
F1FF04
F10064
F10024
F13E24
F13E24
F13E24
F13E24
F02E04
F02E04
F82F04
FFCFF8
FF0FF0
FE0FC0
ENDCHAR
STARTCHAR rcaron
ENCODING 345
SWIDTH 843 0
DWIDTH 24 0
BBX 22 31 1 -3
BITMAP
03C1E0
063E20
0E4120
1E3E20
1E0020
1F0040
1FE380
1FFF80
100060
300010
71FC10
F10108
F13888
F13C88
F13C88
F13C90
F100B0
F10088
F1FF04
F10064
F10024
F13E24
F13E24
F13E24
F13E24
F02E04
F02E04
F82F04
FFCFF8
FF0FF0
FE0FC0
ENDCHAR
STARTCHAR Sacute
ENCODING 346
SWIDTH 750 0
DWIDTH 21 0
BBX 20 31 1 -3
BITMAP
000380
03FC40
040040
0CFE40
1C0040
3C0080
3C7F00
3F80E0
380020
300020
10FF20
310020
720020
F23FC0
F23F00
F200C0
F18020
F07C20
F80310
FC0090
FFC090
7FF890
3FF090
300110
73FE10
F00020
F00040
F00180
FFFF00
FFFE00
FFF800
ENDCHAR
STARTCHAR sacute
ENCODING 347
SWIDTH 750 0
DWIDTH 21 0
BBX 20 31 1 -3
BITMAP
000380
03FC40
040040
0CFE40
1C0040
3C0080
3C7F00
3F80E0
380020
300020
10FF20
310020
720020
F23FC0
F23F00
F200C0
F18020
F07C20
F80310
FC0090
FFC090
7FF890
3FF090
300110
73FE10
F00020
F00040
F00180
FFFF00
FFFE00
FFF800
ENDCHAR
STARTCHAR Scircumflex
ENCODING 348
SWIDTH 750 0
DWIDTH 21 0
BBX 20 32 1 -3
BITMAP
003800
01C700
060080
047840
188640
380040
387C40
3FFF80
3F0060
380020
300020
10FF20
310020
720020
F23FC0
F23F00
F200C0
F18020
F07C20
F80310
FC0090
FFC090
7FF890
3FF090
300110
73FE10
F00020
F00040
F00180
FFFF00
FFFE00
FFF800
ENDCHAR
STARTCHAR scircumflex
ENCODING 349
SWIDTH 750 0
DWIDTH 21 0
BBX 20 32 1 -3
BITMAP
003800
01C700
060080
047840
188640
380040
387C40
3FFF80
3F0060
380020
300020
10FF20
310020
720020
F23FC0
F23F00
F200C0
F18020
F07C20
F80310
FC0090
FFC090
7FF890
3FF090
300110
73FE10
F00020
F00040
F00180
FFFF00
FFFE00
FFF800
ENDCHAR
STARTCHAR Scedilla
ENCODING 350
SWIDTH 750 0
DWIDTH 21 0
BBX 20 27 1 -6
BITMAP
03FFE0
040020
080020
30FF20
710020
F20020
F23FC0
F23F00
F200C0
F18020
F07C20
F00310
FC0090
FFC090
7FF890
3FF890
300110
73FE10
F01020
F01040
FF1380
FF0300
FE0400
FE0400
0FF800
0FE000
1FC000
ENDCHAR
STARTCHAR scedilla
ENCODING 351
SWIDTH 750 0
DWIDTH 21 0
BBX 20 27 1 -6
BITMAP
03FFE0
040020
080020
30FF20
710020
F20020
F23FC0
F23F00
F200C0
F18020
F07C20
F00310
FC0090
FFC090
7FF890
3FF890
300110
73FE10
F01020
F01040
FF1380
FF0300
FE0400
FE0400
0FF800
0FE000
1FC000
ENDCHAR
STARTCHAR Scaron
ENCODING 352
SWIDTH 750 0
DWIDTH 21 0
BBX 20 31 1 -3
BITMAP
0783C0
0C7C40
1C8240
3C7C40
3C0040
3E0180
3FC600
3F39E0
180020
080020
10FF20
310020
720020
F23FC0
F23F00
F200C0
F18020
F07C20
F80310
FC0090
FFC090
7FF890
3FF090
300110
73FE10
F00020
F00040
F00180
FFFF00
FFFE00
FFF800
ENDCHAR
STARTCHAR scaron
ENCODING 353
SWIDTH 750 0
DWIDTH 21 0
BBX 20 31 1 -3
BITMAP
0783C0
0C7C40
1C8240
3C7C40
3C0040
3E0180
3FC600
3F39E0
180020
080020
10FF20
310020
720020
F23FC0
F23F00
F200C0
F18020
F07C20
F80310
FC0090
FFC090
7FF890
3FF090
300110
73FE10
F00020
F00040
F00180
FFFF00
FFFE00
FFF800
ENDCHAR
STARTCHAR Tcommaaccent
ENCODING 354
SWIDTH 756 0
DWIDTH 21 0
BBX 21 34 0 -13
BITMAP
0FFFF8
100008
300008
F1FFC8
F00808
F00808
FF88F0
FF88E0
FF88C0
078900
078900
078900
078900
078900
078900
078900
078900
078900
078100
078100
078100
07FE00
078100
078100
039D00
078500
078500
07FD00
07C500
079900
03C600
03F800
03F000
03E000
ENDCHAR
STARTCHAR tcommaaccent
ENCODING 355
SWIDTH 756 0
DWIDTH 21 0
BBX 21 34 0 -13
BITMAP
0FFFF8
100008
300008
F1FFC8
F00808
F00808
FF88F0
FF88E0
FF88C0
078900
078900
078900
078900
078900
078900
078900
078900
078900
078100
078100
078100
07FE00
078100
078100
039D00
078500
078500
07FD00
07C500
079900
03C600
03F800
03F000
03E000
ENDCHAR
STARTCHAR Tcaron
ENCODING 356
SWIDTH 756 0
DWIDTH 21 0
BBX 21 31 0 -3
BITMAP
03C1E0
063E20
0E4120
1E3E20
1E0020
1F00C0
1FE300
101CF8
100008
300008
71FFC8
F00808
F00808
FF88F0
FF88E0
FF88C0
078900
078900
078900
078900
078900
078900
078900
078900
078900
078100
078100
07C100
07FE00
07F800
07F000
ENDCHAR
STARTCHAR tcaron
ENCODING 357
SWIDTH 756 0
DWIDTH 21 0
BBX 21 31 0 -3
BITMAP
03C1E0
063E20
0E4120
1E3E20
1E0020
1F00C0
1FE300
101CF8
100008
300008
71FFC8
F00808
F00808
FF88F0
FF88E0
FF88C0
078900
078900
078900
078900
078900
078900
078900
078900
078900
078100
078100
07C100
07FE00
07F800
07F000
ENDCHAR
STARTCHAR Tbar
ENCODING 358
SWIDTH 756 0
DWIDTH 21 0
BBX 21 24 0 -3
BITMAP
0FFFF8
100008
300008
F1FFC8
F00808
F00808
FF88F0
FF88E0
FF88C0
0788C0
040820
0CFF20
3C0820
3C0820
3F88E0
3F8880
3F8900
1F8900
078100
078100
07C100
07FE00
07F800
07F000
ENDCHAR
STARTCHAR tbar
ENCODING 359
SWIDTH 756 0
DWIDTH 21 0
BBX 21 24 0 -3
BITMAP
0FFFF8
100008
300008
F1FFC8
F00808
F00808
FF88F0
FF88E0
FF88C0
0788C0
040820
0CFF20
3C0820
3C0820
3F88E0
3F8880
3F8900
1F8900
078100
078100
07C100
07FE00
07F800
07F000
ENDCHAR
STARTCHAR Utilde
ENCODING 360
SWIDTH 846 0
DWIDTH 24 0
BBX 22 31 1 -3
BITMAP
00FC40
0303A0
060020
0E7820
1E0720
1E0020
1EF040
113FBC
103E04
703E04
F13E24
F13E24
F13E24
F13E24
F13E24
F13E24
F13E24
F13E24
F13E24
F13E24
F13E24
F11C24
F10044
F080C4
F07D04
F80008
FC0010
7FE3E0
7FFF80
1FFF00
07FC00
ENDCHAR
STARTCHAR utilde
ENCODING 361
SWIDTH 846 0
DWIDTH 24 0
BBX 22 31 1 -3
BITMAP
00FC40
0303A0
060020
0E7820
1E0720
1E0020
1EF040
113FBC
103E04
703E04
F13E24
F13E24
F13E24
F13E24
F13E24
F13E24
F13E24
F13E24
F13E24
F13E24
F13E24
F11C24
F10044
F080C4
F07D04
F80008
FC0010
7FE3E0
7FFF80
1FFF00
07FC00
ENDCHAR
STARTCHAR Umacron
ENCODING 362
SWIDTH 846 0
DWIDTH 24 0
BBX 22 30 1 -3
BITMAP
01FFC0
020020
067F20
0E0020
1E0020
1E0020
1FFFF8
103E04
303E04
712E24
F13E24
F13E24
F13E24
F13E24
F13E24
F13E24
F13E24
F13E24
F13E24
F13E24
F11E24
F10044
F080C4
F05D04
F80008
FC0010
7FE3E0
7FFF80
3FFF00
07FC00
ENDCHAR
STARTCHAR umacron
ENCODING 363
SWIDTH 846 0
DWIDTH 24 0
BBX 22 30 1 -3
BITMAP
01FFC0
020020
067F20
0E0020
1E0020
1E0020
1FFFF8
103E04
303E04
712E24
F13E24
F13E24
F13E24
F13E24
F13E24
F13E24
F13E24
F13E24
F13E24
F13E24
F11E24
F10044
F080C4
F05D04
F80008
FC0010
7FE3E0
7FFF80
3FFF00
07FC00
ENDCHAR
STARTCHAR Ubreve
ENCODING 364
SWIDTH 846 0
DWIDTH 24 0
BBX 22 32 1 -3
BITMAP
01E3C0
021420
061C20
0E80A0
1E41A0
1E3E20
1F0040
1FC080
103F7C
103E04
303E04
F12E24
F13E24
F13E24
F13E24
F13E24
F13E24
F13E24
F13E24
F13E24
F13E24
F13E24
F11E24
F10044
F080C4
F05D04
F80008
FC0010
7FE3E0
7FFF80
1FFF00
07FC00
ENDCHAR
STARTCHAR ubreve
ENCODING 365
SWIDTH 846 0
DWIDTH 24 0
BBX 22 32 1 -3
BITMAP
01E3C0
021420
061C20
0E80A0
1E41A0
1E3E20
1F0040
1FC080
103F7C
103E04
303E04
F12E24
F13E24
F13E24
F13E24
F13E24
F13E24
F13E24
F13E24
F13E24
F13E24
F13E24
F11E24
F10044
F080C4
F05D04
F80008
FC0010
7FE3E0
7FFF80
1FFF00
07FC00
ENDCHAR
STARTCHAR Uring
ENCODING 366
SWIDTH 846 0
DWIDTH 24 0
BBX 22 36 1 -3
BITMAP
007D00
0180C0
023E20
064120
0E9CA0
1E9CA0
1E9CA0
1E80A0
1E4120
1E3E20
1E0040
1FC080
103F7C
103E04
703604
F12E24
F13E24
F13E24
F13E24
F13E24
F13E24
F13E24
F13E24
F13E24
F13E24
F13E24
F13E24
F11E44
F080C4
F07D04
F80008
FC0010
7FE3E0
7FFF80
1FFF00
07FC00
ENDCHAR
STARTCHAR uring
ENCODING 367
SWIDTH 846 0
DWIDTH 24 0
BBX 22 36 1 -3
BITMAP
007D00
0180C0
023E20
064120
0E9CA0
1E9CA0
1E9CA0
1E80A0
1E4120
1E3E20
1E0040
1FC080
103F7C
103E04
703604
F12E24
F13E24
F13E24
F13E24
F13E24
F13E24
F13E24
F13E24
F13E24
F13E24
F13E24
F13E24
F11E44
F080C4
F07D04
F80008
FC0010
7FE3E0
7FFF80
1FFF00
07FC00
ENDCHAR
STARTCHAR Uhungarumlaut
ENCODING 368
SWIDTH 846 0
DWIDTH 24 0
BBX 22 34 1 -3
BITMAP
00F0F0
010508
030A08
070608
0F4E50
0E4E50
0E4C90
0E0C10
1E0C20
1E1C20
1FFFF8
103E04
303E04
712E24
F13E24
F13E24
F13E24
F13E24
F13E24
F13E24
F13E24
F13E24
F13E24
F13E24
F11E24
F10044
F080C4
F05D04
F80008
FC0010
7FE3E0
7FFF80
3FFF00
07FC00
ENDCHAR
STARTCHAR uhungarumlaut
ENCODING 369
SWIDTH 846 0
DWIDTH 24 0
BBX 22 34 1 -3
BITMAP
00F0F0
010508
030A08
070608
0F4E50
0E4E50
0E4C90
0E0C10
1E0C20
1E1C20
1FFFF8
103E04
303E04
712E24
F13E24
F13E24
F13E24
F13E24
F13E24
F13E24
F13E24
F13E24
F13E24
F13E24
F11E24
F10044
F080C4
F05D04
F80008
FC0010
7FE3E0
7FFF80
3FFF00
07FC00
ENDCHAR
STARTCHAR Uogonek
ENCODING 370
SWIDTH 846 0
DWIDTH 24 0
BBX 22 29 1 -8
BITMAP
0FE1FC
102204
702604
F12E24
F13E24
F13E24
F13E24
F13E24
F13E24
F13E24
F13E24
F13E24
F13E24
F13E24
F13E24
F10C24
F10044
F08084
F87D08
FC0810
7F0860
7FC980
3FC880
0FCC80
03C080
03E080
03FF00
03FE00
01FC00
ENDCHAR
STARTCHAR uogonek
ENCODING 371
SWIDTH 846 0
DWIDTH 24 0
BBX 22 29 1 -8
BITMAP
0FE1FC
102204
702604
F12E24
F13E24
F13E24
F13E24
F13E24
F13E24
F13E24
F13E24
F13E24
F13E24
F13E24
F13E24
F10C24
F10044
F08084
F87D08
FC0810
7F0860
7FC980
3FC880
0FCC80
03C080
03E080
03FF00
03FE00
01FC00
ENDCHAR
STARTCHAR Wcircumflex
ENCODING 372
SWIDTH 931 0
DWIDTH 26 0
BBX 24 32 1 -3
BITMAP
000F00
0070C0
008030
010F10
033090
070010
0F0F10
0FFFF0
103FCF
303FC1
7023C1
F123C9
F123C9
F123C9
F123C9
F12FC9
F130C9
F120C9
F12049
F12649
F10909
F11089
F11089
F12649
F92651
F8C622
F80E02
7C0F02
7E1F04
7FFFF8
3FCFE0
3F0FC0
ENDCHAR
STARTCHAR wcircumflex
ENCODING 373
SWIDTH 931 0
DWIDTH 26 0
BBX 24 32 1 -3
BITMAP
000F00
0070C0
008030
010F10
033090
070010
0F0F10
0FFFF0
103FCF
303FC1
7023C1
F123C9
F123C9
F123C9
F123C9
F12FC9
F130C9
F120C9
F12049
F12649
F10909
F11089
F11089
F12649
F92651
F8C622
F80E02
7C0F02
7E1F04
7FFFF8
3FCFE0
3F0FC0
ENDCHAR
STARTCHAR Ycircumflex
ENCODING 374
SWIDTH 805 0
DWIDTH 23 0
BBX 21 32 1 -3
BITMAP
003C00
00C300
0300C0
043C20
0CC320
1C0020
3C3C20
3FFFC0
307E38
203E08
604E08
E25E48
E25E48
E25E48
E25E48
E23C48
F11848
F10888
F88110
F84220
FC4220
7E3C40
7F0880
3F0880
1F8900
0F8900
0F8100
078100
078100
07FE00
07F800
07F000
ENDCHAR
STARTCHAR ycircumflex
ENCODING 375
SWIDTH 805 0
DWIDTH 23 0
BBX 21 32 1 -3
BITMAP
003C00
00C300
0300C0
043C20
0CC320
1C0020
3C3C20
3FFFC0
307E38
203E08
604E08
E25E48
E25E48
E25E48
E25E48
E23C48
F11848
F10888
F88110
F84220
FC4220
7E3C40
7F0880
3F0880
1F8900
0F8900
0F8100
078100
078100
07FE00
07F800
07F000
ENDCHAR
STARTCHAR Ydieresis
ENCODING 376
SWIDTH 805 0
DWIDTH 23 0
BBX 21 31 1 -3
BITMAP
03E7C0
041820
1C1820
3C9920
3C1820
3C1820
3C1820
3FFFF8
303E08
603E08
E04E08
E25E48
E25E48
E25E48
E23C48
F21C48
F11888
F08110
F84110
FC4220
7E3C40
7E0880
3F0880
1F8900
0F8900
0F8100
078100
078100
07FE00
07F800
07F000
ENDCHAR
STARTCHAR Zacute
ENCODING 377
SWIDTH 760 0
DWIDTH 21 0
BBX 20 31 1 -3
BITMAP
0003C0
03FC40
040040
0CFE40
1C0040
3C00C0
3C7F00
3380E0
300010
300010
F1FE10
F00110
F00110
FFE220
FFC420
FF8840
010880
021100
042100
0C4200
188400
110800
310FE0
720010
F1FF90
F00010
F00010
F00010
FFFFE0
FFFF80
FFFF00
ENDCHAR
STARTCHAR zacute
ENCODING 378
SWIDTH 760 0
DWIDTH 21 0
BBX 20 31 1 -3
BITMAP
0003C0
03FC40
040040
0CFE40
1C0040
3C00C0
3C7F00
3380E0
300010
300010
F1FE10
F00110
F00110
FFE220
FFC420
FF8840
010880
021100
042100
0C4200
188400
110800
310FE0
720010
F1FF90
F00010
F00010
F00010
FFFFE0
FFFF80
FFFF00
ENDCHAR
STARTCHAR Zdotaccent
ENCODING 379
SWIDTH 760 0
DWIDTH 21 0
BBX 20 31 1 -3
BITMAP
00FC00
010200
031200
071200
0F0200
0F0200
0F0200
08FDE0
100010
300010
F1FE10
F00110
F00110
FFE220
FFC420
FF8840
010880
021100
042100
0C4200
188400
110800
310FE0
720010
F1FF90
F00010
F00010
F00010
FFFFE0
FFFF80
FFFF00
ENDCHAR
STARTCHAR zdotaccent
ENCODING 380
SWIDTH 760 0
DWIDTH 21 0
BBX 20 31 1 -3
BITMAP
00FC00
010200
031200
071200
0F0200
0F0200
0F0200
08FDE0
100010
300010
F1FE10
F00110
F00110
FFE220
FFC420
FF8840
010880
021100
042100
0C4200
188400
110800
310FE0
720010
F1FF90
F00010
F00010
F00010
FFFFE0
FFFF80
FFFF00
ENDCHAR
STARTCHAR Zcaron
ENCODING 381
SWIDTH 760 0
DWIDTH 21 0
BBX 20 31 1 -3
BITMAP
0783C0
0C7C40
1C8240
3C7C40
3C0040
3E0180
3FC600
3039E0
100010
300010
71FE10
F00110
F00110
FFE220
FFC420
FF8840
010880
021100
042100
0C4200
188400
110800
310FE0
720010
F1FF90
F00010
F00010
F00010
FFFFE0
FFFF80
FFFF00
ENDCHAR
STARTCHAR zcaron
ENCODING 382
SWIDTH 760 0
DWIDTH 21 0
BBX 20 31 1 -3
BITMAP
0783C0
0C7C40
1C8240
3C7C40
3C0040
3E0180
3FC600
3039E0
100010
300010
71FE10
F00110
F00110
FFE220
FFC420
FF8840
010880
021100
042100
0C4200
188400
110800
310FE0
720010
F1FF90
F00010
F00010
F00010
FFFFE0
FFFF80
FFFF00
ENDCHAR
STARTCHAR Schwa
ENCODING 399
SWIDTH 815 0
DWIDTH 23 0
BBX 21 24 1 -3
BITMAP
07FFC0
0C0030
1CFF08
3C0088
3C0048
3FFE48
3FFE48
380048
100048
300048
F1FFC8
F20048
F20048
F23E48
F23C48
F20048
F10088
F0FD08
F80010
FC0020
FFE3C0
7FFF80
3FFF00
0FF800
ENDCHAR
STARTCHAR florin
ENCODING 402
SWIDTH 674 0
DWIDTH 19 0
BBX 17 24 1 -3
BITMAP
007F80
008080
010080
020E80
063080
0E2080
0E2300
1E2700
102080
202080
E3FE80
E02080
F02080
FE2700
FE2600
F02400
204400
638400
E00800
E01000
F0E000
FF8000
FF0000
FE0000
ENDCHAR
STARTCHAR Ohorn
ENCODING 416
SWIDTH 847 0
DWIDTH 24 0
BBX 23 27 1 -3
BITMAP
00003C
000042
0000C2
01FF0A
060012
087FE4
108044
310044
711E24
F13E24
F13E24
F13E24
F13E24
F13E24
F13E24
F13E24
F13E24
F13E44
F10044
F08084
F05D08
F80008
FC0030
FFE3C0
7FFF80
3FFF00
0FFC00
ENDCHAR
STARTCHAR ohorn
ENCODING 417
SWIDTH 847 0
DWIDTH 24 0
BBX 23 27 1 -3
BITMAP
00003C
000042
0000C2
01FF0A
060012
087FE4
108044
310044
711E24
F13E24
F13E24
F13E24
F13E24
F13E24
F13E24
F13E24
F13E24
F13E44
F10044
F08084
F05D08
F80008
FC0030
FFE3C0
7FFF80
3FFF00
0FFC00
ENDCHAR
STARTCHAR Uhorn
ENCODING 431
SWIDTH 856 0
DWIDTH 24 0
BBX 23 27 1 -3
BITMAP
00003E
000042
0000C2
0FE30A
10260A
702E12
F13E24
F13E24
F13E24
F13E24
F13E24
F13E24
F13E24
F13E24
F13E24
F13E24
F13E24
F11C24
F10044
F080C4
F07D04
F80008
FC0010
7FE3E0
7FFF80
3FFF00
07FC00
ENDCHAR
STARTCHAR uhorn
ENCODING 432
SWIDTH 856 0
DWIDTH 24 0
BBX 23 27 1 -3
BITMAP
00003E
000042
0000C2
0FE30A
10260A
702E12
F13E24
F13E24
F13E24
F13E24
F13E24
F13E24
F13E24
F13E24
F13E24
F13E24
F13E24
F11C24
F10044
F080C4
F07D04
F80008
FC0010
7FE3E0
7FFF80
3FFF00
07FC00
ENDCHAR
STARTCHAR Acaron
ENCODING 461
SWIDTH 830 0
DWIDTH 23 0
BBX 21 31 1 -3
BITMAP
03C1E0
063E20
0E4120
1E3E20
1E0020
1F00C0
1FE300
1F1CC0
0E0040
060020
0C3E20
1C4110
1C8110
189890
389C88
391C48
711C48
713E48
720048
F20028
F1FFC8
F20028
F20028
F23E28
F23E28
F03E08
F05E08
F05E08
FF9FF0
FF1FE0
FC1FC0
ENDCHAR
STARTCHAR acaron
ENCODING 462
SWIDTH 830 0
DWIDTH 23 0
BBX 21 31 1 -3
BITMAP
03C1E0
063E20
0E4120
1E3E20
1E0020
1F00C0
1FE300
1F1CC0
0E0040
060020
0C3E20
1C4110
1C8110
189890
389C88
391C48
711C48
713E48
720048
F20028
F1FFC8
F20028
F20028
F23E28
F23E28
F03E08
F05E08
F05E08
FF9FF0
FF1FE0
FC1FC0
ENDCHAR
STARTCHAR Icaron
ENCODING 463
SWIDTH 705 0
DWIDTH 20 0
BBX 18 31 1 -3
BITMAP
0F8780
187880
390480
78F880
780080
7C0300
7FCC00
7033C0
100040
700040
F3FE40
F02040
F02040
FE2380
FE2300
FE2200
7E2200
0E2200
0E2200
0E2200
0E2200
0E2200
0E2380
102040
73FE40
F00040
F00040
F00040
FFFF80
FFFE00
FFFC00
ENDCHAR
STARTCHAR icaron
ENCODING 464
SWIDTH 705 0
DWIDTH 20 0
BBX 18 31 1 -3
BITMAP
0F8780
187880
390480
78F880
780080
7C0300
7FCC00
7033C0
100040
700040
F3FE40
F02040
F02040
FE2380
FE2300
FE2200
7E2200
0E2200
0E2200
0E2200
0E2200
0E2200
0E2380
102040
73FE40
F00040
F00040
F00040
FFFF80
FFFE00
FFFC00
ENDCHAR
STARTCHAR Ocaron
ENCODING 465
SWIDTH 837 0
DWIDTH 23 0
BBX 22 32 1 -3
BITMAP
01C1E0
023E20
060020
1E6320
1E1C20
1E0020
1F80C0
1FE300
1FFFC0
040030
087F08
108088
310044
711E44
F13E24
F13E24
F13E24
F13E24
F13E24
F13E24
F13E24
F13E24
F13E44
F10044
F08084
F05D08
F80008
FC0010
7FE3E0
7FFF80
3FFF00
07FC00
ENDCHAR
STARTCHAR ocaron
ENCODING 466
SWIDTH 837 0
DWIDTH 23 0
BBX 22 32 1 -3
BITMAP
01C1E0
023E20
060020
1E6320
1E1C20
1E0020
1F80C0
1FE300
1FFFC0
040030
087F08
108088
310044
711E44
F13E24
F13E24
F13E24
F13E24
F13E24
F13E24
F13E24
F13E24
F13E44
F10044
F08084
F05D08
F80008
FC0010
7FE3E0
7FFF80
3FFF00
07FC00
ENDCHAR
STARTCHAR Ucaron
ENCODING 467
SWIDTH 846 0
DWIDTH 24 0
BBX 22 32 1 -3
BITMAP
01C1E0
023E20
060020
0E6320
1E1C20
1E0020
1F80C0
1FE300
103EFC
103A04
702E04
F13E24
F13E24
F13E24
F13E24
F13E24
F13E24
F13E24
F13E24
F13E24
F13E24
F13E24
F11C24
F10044
F080C4
F07D04
F80008
FC0010
7FE3E0
7FFF80
1FFF00
07FC00
ENDCHAR
STARTCHAR ucaron
ENCODING 468
SWIDTH 846 0
DWIDTH 24 0
BBX 22 32 1 -3
BITMAP
01C1E0
023E20
060020
0E6320
1E1C20
1E0020
1F80C0
1FE300
103EFC
103A04
702E04
F13E24
F13E24
F13E24
F13E24
F13E24
F13E24
F13E24
F13E24
F13E24
F13E24
F13E24
F11C24
F10044
F080C4
F07D04
F80008
FC0010
7FE3E0
7FFF80
1FFF00
07FC00
ENDCHAR
STARTCHAR Udieresismacron
ENCODING 469
SWIDTH 846 0
DWIDTH 24 0
BBX 22 37 1 -3
BITMAP
01FFC0
020020
060020
0E7F20
1E0020
1E0020
1FFFE0
1C0C10
1C0810
1C8890
3C0810
3C0810
3C0820
3FFFF8
303E04
703E04
F12E24
F13E24
F13E24
F13E24
F13E24
F13E24
F13E24
F13E24
F13E24
F13E24
F13E24
F11E24
F10044
F080C4
F05D04
F80008
FC0010
7FE3E0
7FFF80
1FFF00
07FC00
ENDCHAR
STARTCHAR udieresismacron
ENCODING 470
SWIDTH 846 0
DWIDTH 24 0
BBX 22 37 1 -3
BITMAP
01FFC0
020020
060020
0E7F20
1E0020
1E0020
1FFFE0
1C0C10
1C0810
1C8890
3C0810
3C0810
3C0820
3FFFF8
303E04
703E04
F12E24
F13E24
F13E24
F13E24
F13E24
F13E24
F13E24
F13E24
F13E24
F13E24
F13E24
F11E24
F10044
F080C4
F05D04
F80008
FC0010
7FE3E0
7FFF80
1FFF00
07FC00
ENDCHAR
STARTCHAR Udieresisacute
ENCODING 471
SWIDTH 846 0
DWIDTH 24 0
BBX 22 37 1 -3
BITMAP
000F80
003080
006680
00E880
01E080
01E100
03FFE0
040810
0C0810
1C8890
3C0810
3C0810
3C0820
3FFFF8
303E04
703E04
F12E24
F13E24
F13E24
F13E24
F13E24
F13E24
F13E24
F13E24
F13E24
F13E24
F13E24
F11E24
F10044
F080C4
F05D04
F80008
FC0010
7FE3E0
7FFF80
1FFF00
07FC00
ENDCHAR
STARTCHAR udieresisacute
ENCODING 472
SWIDTH 846 0
DWIDTH 24 0
BBX 22 37 1 -3
BITMAP
000F80
003080
006680
00E880
01E080
01E100
03FFE0
040810
0C0810
1C8890
3C0810
3C0810
3C0820
3FFFF8
303E04
703E04
F12E24
F13E24
F13E24
F13E24
F13E24
F13E24
F13E24
F13E24
F13E24
F13E24
F13E24
F11E24
F10044
F080C4
F05D04
F80008
FC0010
7FE3E0
7FFF80
1FFF00
07FC00
ENDCHAR
STARTCHAR Udieresiscaron
ENCODING 473
SWIDTH 846 0
DWIDTH 24 0
BBX 22 38 1 -3
BITMAP
03C1E0
023E20
0E0020
1E6320
1E1C20
1F8040
1FE380
1FFFE0
1C0810
0C0810
1C8890
3C0810
3C0810
3C0820
3FFFF8
303E04
703E04
F12E24
F13E24
F13E24
F13E24
F13E24
F13E24
F13E24
F13E24
F13E24
F13E24
F13E24
F11E24
F10044
F080C4
F05D04
F80008
FC0010
7FE3E0
7FFF80
1FFF00
07FC00
ENDCHAR
STARTCHAR udieresiscaron
ENCODING 474
SWIDTH 846 0
DWIDTH 24 0
BBX 22 38 1 -3
BITMAP
03C1E0
023E20
0E0020
1E6320
1E1C20
1F8040
1FE380
1FFFE0
1C0810
0C0810
1C8890
3C0810
3C0810
3C0820
3FFFF8
303E04
703E04
F12E24
F13E24
F13E24
F13E24
F13E24
F13E24
F13E24
F13E24
F13E24
F13E24
F13E24
F11E24
F10044
F080C4
F05D04
F80008
FC0010
7FE3E0
7FFF80
1FFF00
07FC00
ENDCHAR
STARTCHAR Udieresisgrave
ENCODING 475
SWIDTH 846 0
DWIDTH 24 0
BBX 22 37 1 -3
BITMAP
007C00
018600
039900
038500
078100
07C100
07FFE0
040810
0C0810
1C8890
3C0810
3C0810
3C0820
3FFFF8
303E04
703E04
F12E24
F13E24
F13E24
F13E24
F13E24
F13E24
F13E24
F13E24
F13E24
F13E24
F13E24
F11E24
F10044
F080C4
F05D04
F80008
FC0010
7FE3E0
7FFF80
1FFF00
07FC00
ENDCHAR
STARTCHAR udieresisgrave
ENCODING 476
SWIDTH 846 0
DWIDTH 24 0
BBX 22 37 1 -3
BITMAP
007C00
018600
039900
038500
078100
07C100
07FFE0
040810
0C0810
1C8890
3C0810
3C0810
3C0820
3FFFF8
303E04
703E04
F12E24
F13E24
F13E24
F13E24
F13E24
F13E24
F13E24
F13E24
F13E24
F13E24
F13E24
F11E24
F10044
F080C4
F05D04
F80008
FC0010
7FE3E0
7FFF80
1FFF00
07FC00
ENDCHAR
STARTCHAR Gcaron
ENCODING 486
SWIDTH 808 0
DWIDTH 23 0
BBX 21 31 1 -3
BITMAP
03C3E0
043C20
0C4020
1C3E20
3C0040
3F0080
3FE700
3F98E0
0C0020
080020
10FF20
310020
710020
F13FC0
F13F80
F13F00
F123F0
F12408
F12C08
F13C48
F13C48
F13C48
F10048
F10048
F0FFC8
F80008
FC0008
7F8008
7FFFF0
3FFFC0
0FFF80
ENDCHAR
STARTCHAR gcaron
ENCODING 487
SWIDTH 808 0
DWIDTH 23 0
BBX 21 31 1 -3
BITMAP
03C3E0
043C20
0C4020
1C3E20
3C0040
3F0080
3FE700
3F98E0
0C0020
080020
10FF20
310020
710020
F13FC0
F13F80
F13F00
F123F0
F12408
F12C08
F13C48
F13C48
F13C48
F10048
F10048
F0FFC8
F80008
FC0008
7F8008
7FFFF0
3FFFC0
0FFF80
ENDCHAR
STARTCHAR Scommaaccent
ENCODING 536
SWIDTH 750 0
DWIDTH 21 0
BBX 20 34 1 -13
BITMAP
03FFE0
040020
080020
30FF20
710020
F20020
F23FC0
F23F00
F20080
F18060
F07C20
F80310
FC0090
FFC090
7FF890
3FF090
300110
73FE10
F00020
F00060
F00080
FFFF00
FF8200
FF0200
073A00
0F0600
0F0600
0FF600
0F8A00
0FB200
078400
07F800
07E000
07C000
ENDCHAR
STARTCHAR scommaaccent
ENCODING 537
SWIDTH 750 0
DWIDTH 21 0
BBX 20 34 1 -13
BITMAP
03FFE0
040020
080020
30FF20
710020
F20020
F23FC0
F23F00
F20080
F18060
F07C20
F80310
FC0090
FFC090
7FF890
3FF090
300110
73FE10
F00020
F00060
F00080
FFFF00
FF8200
FF0200
073A00
0F0600
0F0600
0FF600
0F8A00
0FB200
078400
07F800
07E000
07C000
ENDCHAR
STARTCHAR uni021A
ENCODING 538
SWIDTH 756 0
DWIDTH 21 0
BBX 21 34 0 -13
BITMAP
0FFFF8
100008
300008
F1FFC8
F00808
F00808
FF88F0
FF88E0
FF88C0
078900
078900
078900
078900
078900
078900
078900
078900
078900
078100
078100
078100
07FE00
078100
078100
039D00
078500
078500
07FD00
07C500
079900
03C600
03F800
03F000
03E000
ENDCHAR
STARTCHAR uni021B
ENCODING 539
SWIDTH 756 0
DWIDTH 21 0
BBX 21 34 0 -13
BITMAP
0FFFF8
100008
300008
F1FFC8
F00808
F00808
FF88F0
FF88E0
FF88C0
078900
078900
078900
078900
078900
078900
078900
078900
078900
078100
078100
078100
07FE00
078100
078100
039D00
078500
078500
07FD00
07C500
079900
03C600
03F800
03F000
03E000
ENDCHAR
STARTCHAR dotlessj
ENCODING 567
SWIDTH 788 0
DWIDTH 22 0
BBX 21 24 0 -3
BITMAP
0003F8
000408
000C08
001C48
003C48
003C48
003C48
003C48
003C48
0FFC48
103C48
303C48
713C48
F13C48
F11C48
F10048
F08088
F87F08
780010
7E0020
7FE3C0
3FFF80
1FFE00
07F800
ENDCHAR
STARTCHAR ascript
ENCODING 593
SWIDTH 846 0
DWIDTH 24 0
BBX 21 24 1 -3
BITMAP
01FFC0
060030
087F08
108088
310048
711C48
F13E48
F13E48
F13E48
F13E48
F13E48
F13E48
F13E48
F13E48
F13E48
F10048
F18048
F07FC8
F80008
FC0008
FF8008
7FFFF0
3FFFE0
0FFFC0
ENDCHAR
STARTCHAR schwa
ENCODING 601
SWIDTH 815 0
DWIDTH 23 0
BBX 21 24 1 -3
BITMAP
07FFC0
0C0030
1CFF08
3C0088
3C0048
3FFE48
3FFE48
380048
100048
300048
F1FFC8
F20048
F20048
F23E48
F23C48
F20048
F10088
F0FD08
F80010
FC0020
FFE3C0
7FFF80
3FFF00
0FF800
ENDCHAR
STARTCHAR gscript
ENCODING 609
SWIDTH 815 0
DWIDTH 23 0
BBX 21 26 1 -5
BITMAP
01FFC0
060030
080008
10FF08
310088
720048
F23C48
F23E48
F23E48
F23E48
F20048
F10048
F0FFC8
F80048
FE0048
FFFE48
7FFC48
3C0048
040048
0C00C8
3CFE08
3C0030
3C01C0
3FFF80
3FFF00
3FFC00
ENDCHAR
STARTCHAR commaturnedmod
ENCODING 699
SWIDTH 600 0
DWIDTH 17 0
BBX 11 12 3 9
BITMAP
07E0
0BA0
1420
35C0
7420
F420
F3A0
F020
F020
FFC0
FF80
FF00
ENDCHAR
STARTCHAR apostrophemod
ENCODING 700
SWIDTH 600 0
DWIDTH 17 0
BBX 11 13 3 8
BITMAP
0FC0
1020
3020
73A0
F0A0
F0A0
FEA0
F0A0
F320
70C0
FF00
FE00
FC00
ENDCHAR
STARTCHAR ringhalfright
ENCODING 702
SWIDTH 412 0
DWIDTH 12 0
BBX 11 13 0 8
BITMAP
0FC0
1320
30A0
F0A0
FEA0
FEA0
FEA0
10A0
3320
7040
FF80
FF00
FC00
ENDCHAR
STARTCHAR ringhalfleft
ENCODING 703
SWIDTH 412 0
DWIDTH 12 0
BBX 11 13 0 8
BITMAP
07E0
09A0
1220
7260
72C0
F280
F2E0
F220
F9A0
FC20
FFC0
7F80
7F00
ENDCHAR
STARTCHAR circumflex
ENCODING 710
SWIDTH 600 0
DWIDTH 17 0
BBX 16 11 0 18
BITMAP
00F0
030E
0C01
10F1
330D
7001
F0F9
FFFF
FFFE
F8FC
4010
ENDCHAR
STARTCHAR caron
ENCODING 711
SWIDTH 600 0
DWIDTH 17 0
BBX 16 10 0 18
BITMAP
0F0F
10F1
3001
710D
F0F1
FC02
FF8C
FFF8
7FF0
1FC0
ENDCHAR
STARTCHAR verticallinemod
ENCODING 712
SWIDTH 456 0
DWIDTH 13 0
BBX 11 14 1 7
BITMAP
1FE0
3020
7020
F120
F120
F120
F120
F120
F020
F020
F020
FFC0
FF80
FF00
ENDCHAR
STARTCHAR firsttonechinese
ENCODING 713
SWIDTH 600 0
DWIDTH 17 0
BBX 16 8 0 18
BITMAP
0FFF
1001
31FD
7001
F001
FFFF
FFFC
FFF8
ENDCHAR
STARTCHAR secondtonechinese
ENCODING 714
SWIDTH 600 0
DWIDTH 17 0
BBX 16 9 0 18
BITMAP
07FF
0801
107D
3181
7001
F9FE
FFFC
FFF0
7E00
ENDCHAR
STARTCHAR fourthtonechinese
ENCODING 715
SWIDTH 600 0
DWIDTH 17 0
BBX 16 9 0 18
BITMAP
0FFE
3001
71E1
F01D
F801
FFF9
FFFE
7FFC
03F8
ENDCHAR
STARTCHAR verticallinelowmod
ENCODING 716
SWIDTH 456 0
DWIDTH 13 0
BBX 11 14 1 -7
BITMAP
1FE0
3020
7020
F120
F120
F120
F120
F120
F020
F020
F020
FFC0
FF80
FF00
ENDCHAR
STARTCHAR breve
ENCODING 728
SWIDTH 600 0
DWIDTH 17 0
BBX 17 10 0 18
BITMAP
0F0F00
109080
30F080
720280
F20480
F97900
FE0200
FFFC00
7FF800
3FE000
ENDCHAR
STARTCHAR dotaccent
ENCODING 729
SWIDTH 600 0
DWIDTH 17 0
BBX 11 9 3 18
BITMAP
0FC0
1020
3120
7120
F020
F020
FFC0
FF80
FE00
ENDCHAR
STARTCHAR ring
ENCODING 730
SWIDTH 600 0
DWIDTH 17 0
BBX 17 14 0 18
BITMAP
017C00
060200
08F900
130480
327480
727280
F27280
F20480
F20480
F97900
FE0200
FFFC00
7FF800
3FE000
ENDCHAR
STARTCHAR ogonek
ENCODING 731
SWIDTH 600 0
DWIDTH 17 0
BBX 11 11 3 -8
BITMAP
0FC0
1A40
3240
7260
7220
73A0
F020
F820
FFC0
FF80
7F00
ENDCHAR
STARTCHAR tilde
ENCODING 732
SWIDTH 600 0
DWIDTH 17 0
BBX 16 9 0 18
BITMAP
07F3
080D
1001
31FD
7001
F181
FFFE
FFFC
FFF0
ENDCHAR
STARTCHAR hungarumlaut
ENCODING 733
SWIDTH 600 0
DWIDTH 17 0
BBX 18 11 -1 18
BITMAP
03C780
042840
183840
393240
393240
797280
707080
706080
7FFF00
FEFE00
FCF800
ENDCHAR
STARTCHAR gravecmb
ENCODING 768
SWIDTH 100 0
DWIDTH 3 0
BBX 16 9 -7 18
BITMAP
0FFE
3001
71E1
F01D
F801
FFF9
FFFE
7FFC
03F8
ENDCHAR
STARTCHAR acutecmb
ENCODING 769
SWIDTH 100 0
DWIDTH 3 0
BBX 16 9 -7 18
BITMAP
07FF
0801
107D
3181
7001
F9FE
FFFC
FFF0
7E00
ENDCHAR
STARTCHAR circumflexcmb
ENCODING 770
SWIDTH 100 0
DWIDTH 3 0
BBX 16 11 -7 18
BITMAP
00F0
030E
0C01
10F1
330D
7001
F0F9
FFFF
FFFE
F8FC
4010
ENDCHAR
STARTCHAR tildecmb
ENCODING 771
SWIDTH 100 0
DWIDTH 3 0
BBX 16 9 -7 18
BITMAP
07F3
080D
1001
31FD
7001
F181
FFFE
FFFC
FFF0
ENDCHAR
STARTCHAR uni0304
ENCODING 772
SWIDTH 600 0
DWIDTH 17 0
BBX 16 8 0 18
BITMAP
0FFF
1001
31FD
7001
F001
FFFF
FFFC
FFF8
ENDCHAR
STARTCHAR brevecmb
ENCODING 774
SWIDTH 100 0
DWIDTH 3 0
BBX 17 10 -7 18
BITMAP
0F0F00
109080
30F080
720280
F20480
F97900
FE0200
FFFC00
7FF800
3FE000
ENDCHAR
STARTCHAR dotaccentcmb
ENCODING 775
SWIDTH 100 0
DWIDTH 3 0
BBX 11 9 -4 18
BITMAP
0FC0
1020
3120
7120
F020
F020
FFC0
FF80
FE00
ENDCHAR
STARTCHAR dieresiscmb
ENCODING 776
SWIDTH 100 0
DWIDTH 3 0
BBX 17 9 -7 18
BITMAP
0F9F00
106080
306080
F26480
F06080
F06080
FFFF00
FFFE00
FFFC00
ENDCHAR
STARTCHAR hookcmb
ENCODING 777
SWIDTH 100 0
DWIDTH 3 0
BBX 13 12 -4 18
BITMAP
0FE0
1010
37C8
7028
FFA8
F828
F9C8
7810
3DE0
7FC0
7F80
3E00
ENDCHAR
STARTCHAR ringcmb
ENCODING 778
SWIDTH 100 0
DWIDTH 3 0
BBX 17 14 -7 18
BITMAP
017C00
060200
08F900
130480
327480
727280
F27280
F20480
F20480
F97900
FE0200
FFFC00
7FF800
3FE000
ENDCHAR
STARTCHAR hungarumlautcmb
ENCODING 779
SWIDTH 100 0
DWIDTH 3 0
BBX 18 11 -7 18
BITMAP
03C780
042840
0C3840
393A40
393240
393240
707080
707080
7FFF00
7EFE00
FCF800
ENDCHAR
STARTCHAR caroncmb
ENCODING 780
SWIDTH 100 0
DWIDTH 3 0
BBX 16 10 -7 18
BITMAP
0F0F
10F1
3001
710D
F0F1
FC02
FF8C
FFF8
7FF0
1FC0
ENDCHAR
STARTCHAR horncmb
ENCODING 795
SWIDTH 100 0
DWIDTH 3 0
BBX 10 10 -4 14
BITMAP
07C0
0840
1840
3140
7240
7840
F180
FE00
FC00
F800
ENDCHAR
STARTCHAR dotbelowcmb
ENCODING 803
SWIDTH 100 0
DWIDTH 3 0
BBX 11 9 -4 -10
BITMAP
0FC0
1020
3120
7120
F020
F020
FFC0
FF80
FE00
ENDCHAR
STARTCHAR dieresisbelowcmb
ENCODING 804
SWIDTH 100 0
DWIDTH 3 0
BBX 17 9 -7 -10
BITMAP
0F9F00
106080
306080
F26480
F06080
F06080
FFFF00
FFFE00
FFFC00
ENDCHAR
STARTCHAR commaaccent
ENCODING 806
SWIDTH 600 0
DWIDTH 17 0
BBX 11 13 3 -13
BITMAP
0FC0
1020
3020
73A0
F0A0
F0A0
FEA0
F0A0
F320
70C0
FF00
FE00
FC00
ENDCHAR
STARTCHAR cedillacmb
ENCODING 807
SWIDTH 100 0
DWIDTH 3 0
BBX 12 12 -5 -7
BITMAP
03C0
0620
0C90
1C90
1890
3920
3820
3020
7840
7F80
FF00
FC00
ENDCHAR
STARTCHAR ogonekcmb
ENCODING 808
SWIDTH 100 0
DWIDTH 3 0
BBX 11 11 -3 -8
BITMAP
0F80
1280
3280
72C0
F220
F320
F020
F820
FFC0
FF80
FF00
ENDCHAR
STARTCHAR brevebelowcmb
ENCODING 814
SWIDTH 100 0
DWIDTH 3 0
BBX 17 10 -7 -11
BITMAP
0F0F00
109080
30F080
720280
F20480
F97900
FE0200
FFFC00
7FF800
3FE000
ENDCHAR
STARTCHAR macronbelowcmb
ENCODING 817
SWIDTH 100 0
DWIDTH 3 0
BBX 16 8 -7 -9
BITMAP
0FFF
1001
31FD
7001
F001
FFFF
FFFC
7FF8
ENDCHAR
STARTCHAR uni0394
ENCODING 916
SWIDTH 830 0
DWIDTH 23 0
BBX 21 24 1 -3
BITMAP
01FF00
020040
060020
0E3E20
1C4120
1C8120
1C8910
3C9890
389890
389C90
391C88
791C48
713C48
713E48
723E48
F23E48
F20048
F20048
F1FF88
F00008
F00008
FFFFF0
FFFFE0
FFFFC0
ENDCHAR
STARTCHAR uni03A9
ENCODING 937
SWIDTH 877 0
DWIDTH 25 0
BBX 24 24 0 -3
BITMAP
007FF0
018008
020004
043FC2
0C4022
188012
388F12
388F12
388F12
388F12
389712
389712
389712
389712
3C9712
3C8F12
304621
302641
71C639
F00601
F00601
FFFFFE
FFFFFC
FFDFF8
ENDCHAR
STARTCHAR uni03BC
ENCODING 956
SWIDTH 813 0
DWIDTH 23 0
BBX 21 22 1 -5
BITMAP
0FC3F0
102408
312C48
713C48
F13C48
F13C48
F13C48
F13C48
F13C48
F13C48
F13C48
F10048
F18088
F17F08
F10010
F10020
F03FC0
F03F80
F03E00
FFFC00
FF0000
FE0000
ENDCHAR
STARTCHAR pi
ENCODING 960
SWIDTH 821 0
DWIDTH 23 0
BBX 21 19 1 -3
BITMAP
1FFFF8
300008
71FFC8
F10048
F10048
F13C48
F13C48
F13C48
F13C48
F13C48
F13C48
F13C48
F13C48
F03C08
F03C08
F03E08
FFFFF0
FF3FE0
FE3FC0
ENDCHAR
STARTCHAR Ddotbelow
ENCODING 7692
SWIDTH 846 0
DWIDTH 24 0
BBX 22 31 1 -10
BITMAP
0FFFE0
100010
300008
71FE84
F10044
F10024
F11E24
F11E24
F11E24
F11E24
F11E24
F11E24
F11E24
F11E24
F11E24
F11C24
F10044
F1FE84
F00008
F00018
F00020
FFFFC0
FFC080
FF8080
038880
038880
038080
03C100
03FE00
03FC00
03F000
ENDCHAR
STARTCHAR ddotbelow
ENCODING 7693
SWIDTH 846 0
DWIDTH 24 0
BBX 22 31 1 -10
BITMAP
0FFFE0
100010
300008
71FE84
F10044
F10024
F11E24
F11E24
F11E24
F11E24
F11E24
F11E24
F11E24
F11E24
F11E24
F11C24
F10044
F1FE84
F00008
F00018
F00020
FFFFC0
FFC080
FF8080
038880
038880
038080
03C100
03FE00
03FC00
03F000
ENDCHAR
STARTCHAR Dlinebelow
ENCODING 7694
SWIDTH 846 0
DWIDTH 24 0
BBX 22 30 1 -9
BITMAP
0FFFE0
100010
300008
71FE84
F10044
F10024
F11E24
F11E24
F11E24
F11E24
F11E24
F11E24
F11E24
F11E24
F11E24
F11C24
F10044
F1FE84
F00008
F00010
FFFFE0
FFFFC0
FE0020
FE0020
0E7F20
1E0020
1E0020
1FFFC0
1FFF00
1FFE00
ENDCHAR
STARTCHAR dlinebelow
ENCODING 7695
SWIDTH 846 0
DWIDTH 24 0
BBX 22 30 1 -9
BITMAP
0FFFE0
100010
300008
71FE84
F10044
F10024
F11E24
F11E24
F11E24
F11E24
F11E24
F11E24
F11E24
F11E24
F11E24
F11C24
F10044
F1FE84
F00008
F00010
FFFFE0
FFFFC0
FE0020
FE0020
0E7F20
1E0020
1E0020
1FFFC0
1FFF00
1FFE00
ENDCHAR
STARTCHAR Gmacron
ENCODING 7712
SWIDTH 808 0
DWIDTH 23 0
BBX 21 30 1 -3
BITMAP
01FFC0
020020
063F20
0E0020
1E0020
1E0020
1FFFE0
1F0020
1C0020
08FF20
310020
710020
713FC0
F13F80
F13F00
F123F0
F12408
F12C08
F13C48
F13C48
F13C48
F10048
F10048
F0FFC8
F80008
FC0008
7F8008
7FFFF0
3FFFC0
0FFF80
ENDCHAR
STARTCHAR gmacron
ENCODING 7713
SWIDTH 808 0
DWIDTH 23 0
BBX 21 30 1 -3
BITMAP
01FFC0
020020
063F20
0E0020
1E0020
1E0020
1FFFE0
1F0020
1C0020
08FF20
310020
710020
713FC0
F13F80
F13F00
F123F0
F12408
F12C08
F13C48
F13C48
F13C48
F10048
F10048
F0FFC8
F80008
FC0008
7F8008
7FFFF0
3FFFC0
0FFF80
ENDCHAR
STARTCHAR Hdotbelow
ENCODING 7716
SWIDTH 859 0
DWIDTH 24 0
BBX 22 31 1 -10
BITMAP
0FE1FC
102204
302604
712E24
F11E24
F11E24
F11E24
F11E24
F10024
F10024
F1FFC4
F10024
F10024
F10024
F11E24
F11E24
F11E24
F11E24
F01E04
F01E04
F83F04
FFFFF8
FF40E0
FEC0C0
01C880
03C880
03C080
03C100
03FE00
03FC00
03F800
ENDCHAR
STARTCHAR hdotbelow
ENCODING 7717
SWIDTH 859 0
DWIDTH 24 0
BBX 22 31 1 -10
BITMAP
0FE1FC
102204
302604
712E24
F11E24
F11E24
F11E24
F11E24
F10024
F10024
F1FFC4
F10024
F10024
F10024
F11E24
F11E24
F11E24
F11E24
F01E04
F01E04
F83F04
FFFFF8
FF40E0
FEC0C0
01C880
03C880
03C080
03C100
03FE00
03FC00
03F800
ENDCHAR
STARTCHAR Hbrevebelow
ENCODING 7722
SWIDTH 859 0
DWIDTH 24 0
BBX 22 31 1 -10
BITMAP
0FE1FC
102204
302604
712E24
F11E24
F11E24
F11E24
F11E24
F10024
F10024
F1FFC4
F10024
F10024
F11E24
F11E24
F11E24
F11E24
F11E24
F01E04
F03E04
FFDFF8
FFFFF0
FE1E10
FE1C10
0E4090
1E3F20
1F0040
1FFF80
1FFF00
0FFE00
03F800
ENDCHAR
STARTCHAR hbrevebelow
ENCODING 7723
SWIDTH 859 0
DWIDTH 24 0
BBX 22 31 1 -10
BITMAP
0FE1FC
102204
302604
712E24
F11E24
F11E24
F11E24
F11E24
F10024
F10024
F1FFC4
F10024
F10024
F11E24
F11E24
F11E24
F11E24
F11E24
F01E04
F03E04
FFDFF8
FFFFF0
FE1E10
FE1C10
0E4090
1E3F20
1F0040
1FFF80
1FFF00
0FFE00
03F800
ENDCHAR
STARTCHAR Ldotbelow
ENCODING 7734
SWIDTH 795 0
DWIDTH 22 0
BBX 21 31 1 -10
BITMAP
0FE000
102000
302000
712000
F12000
F12000
F12000
F12000
F12000
F123F0
F12408
F12C08
F11C48
F11C48
F11C48
F10048
F10048
F1FFC8
F00008
F00008
F00008
FFFFF0
FF81C0
FF8080
038900
078900
078100
07C100
07FE00
07F800
07F000
ENDCHAR
STARTCHAR ldotbelow
ENCODING 7735
SWIDTH 795 0
DWIDTH 22 0
BBX 21 31 1 -10
BITMAP
0FE000
102000
302000
712000
F12000
F12000
F12000
F12000
F12000
F123F0
F12408
F12C08
F11C48
F11C48
F11C48
F10048
F10048
F1FFC8
F00008
F00008
F00008
FFFFF0
FF81C0
FF8080
038900
078900
078100
07C100
07FE00
07F800
07F000
ENDCHAR
STARTCHAR Ldotbelowmacron
ENCODING 7736
SWIDTH 795 0
DWIDTH 22 0
BBX 21 37 1 -10
BITMAP
03FF80
040040
0C7E20
1C0020
3C0020
3C0040
3FFF80
303F00
301E00
712000
F12000
F12000
F12000
F12000
F12000
F123F0
F12408
F12C08
F11C48
F11C48
F11C48
F10048
F10048
F1FFC8
F00008
F00008
F00008
FFFFF0
FF81C0
FF8080
038900
078900
078100
07C100
07FE00
07F800
07F000
ENDCHAR
STARTCHAR ldotbelowmacron
ENCODING 7737
SWIDTH 795 0
DWIDTH 22 0
BBX 21 37 1 -10
BITMAP
03FF80
040040
0C7E20
1C0020
3C0020
3C0040
3FFF80
303F00
301E00
712000
F12000
F12000
F12000
F12000
F12000
F123F0
F12408
F12C08
F11C48
F11C48
F11C48
F10048
F10048
F1FFC8
F00008
F00008
F00008
FFFFF0
FF81C0
FF8080
038900
078900
078100
07C100
07FE00
07F800
07F000
ENDCHAR
STARTCHAR Llinebelow
ENCODING 7738
SWIDTH 795 0
DWIDTH 22 0
BBX 21 29 1 -8
BITMAP
0FE000
102000
302000
712000
F12000
F12000
F12000
F12000
F12000
F123F0
F12408
F12C08
F11C48
F11C48
F11C48
F10048
F10048
F1FFC8
F00008
F00008
FFFFF0
FC0020
FC0040
FC7E40
1C0040
3C0040
3FFF80
3FFF00
3FFE00
ENDCHAR
STARTCHAR llinebelow
ENCODING 7739
SWIDTH 795 0
DWIDTH 22 0
BBX 21 29 1 -8
BITMAP
0FE000
102000
302000
712000
F12000
F12000
F12000
F12000
F12000
F123F0
F12408
F12C08
F11C48
F11C48
F11C48
F10048
F10048
F1FFC8
F00008
F00008
FFFFF0
FC0020
FC0040
FC7E40
1C0040
3C0040
3FFF80
3FFF00
3FFE00
ENDCHAR
STARTCHAR Mdotbelow
ENCODING 7746
SWIDTH 949 0
DWIDTH 27 0
BBX 24 31 1 -10
BITMAP
0FE07F
101081
301181
718B19
F14629
F12649
F11089
F11089
F10909
F12649
F12049
F12049
F130C9
F13FC9
F13FC9
F13BC9
F133C9
F123C9
F023C1
F023C1
F863C1
FF9FFE
FF207C
FE6078
00E240
01E240
01E040
01E080
01FF00
01FE00
01FC00
ENDCHAR
STARTCHAR mdotbelow
ENCODING 7747
SWIDTH 949 0
DWIDTH 27 0
BBX 24 31 1 -10
BITMAP
0FE07F
101081
301181
718B19
F14629
F12649
F11089
F11089
F10909
F12649
F12049
F12049
F130C9
F13FC9
F13FC9
F13BC9
F133C9
F123C9
F023C1
F023C1
F863C1
FF9FFE
FF207C
FE6078
00E240
01E240
01E040
01E080
01FF00
01FE00
01FC00
ENDCHAR
STARTCHAR Ndotaccent
ENCODING 7748
SWIDTH 853 0
DWIDTH 24 0
BBX 22 31 1 -3
BITMAP
003E00
004080
01C880
03C880
03C080
03C080
03C100
0C7FFC
103E04
301E04
710E24
F18624
F14624
F12224
F11024
F10824
F10424
F12224
F12224
F13124
F138A4
F13C44
F13E24
F13E24
F13E24
F03E04
F03E04
F83F0C
FFDFF0
FF1FE0
FE1FC0
ENDCHAR
STARTCHAR ndotaccent
ENCODING 7749
SWIDTH 853 0
DWIDTH 24 0
BBX 22 31 1 -3
BITMAP
003E00
004080
01C880
03C880
03C080
03C080
03C100
0C7FFC
103E04
301E04
710E24
F18624
F14624
F12224
F11024
F10824
F10424
F12224
F12224
F13124
F138A4
F13C44
F13E24
F13E24
F13E24
F03E04
F03E04
F83F0C
FFDFF0
FF1FE0
FE1FC0
ENDCHAR
STARTCHAR Ndotbelow
ENCODING 7750
SWIDTH 853 0
DWIDTH 24 0
BBX 22 31 1 -10
BITMAP
0FC1FC
102204
301604
710E24
F18624
F14624
F12224
F11024
F10824
F10424
F12224
F12224
F13124
F138A4
F13C44
F13E24
F13E24
F13E24
F03E04
F03E04
F83F0C
FFFFF0
FF40E0
FEC0C0
03C880
03C880
03C080
03C100
03FE00
03FC00
03F000
ENDCHAR
STARTCHAR ndotbelow
ENCODING 7751
SWIDTH 853 0
DWIDTH 24 0
BBX 22 31 1 -10
BITMAP
0FC1FC
102204
301604
710E24
F18624
F14624
F12224
F11024
F10824
F10424
F12224
F12224
F13124
F138A4
F13C44
F13E24
F13E24
F13E24
F03E04
F03E04
F83F0C
FFFFF0
FF40E0
FEC0C0
03C880
03C880
03C080
03C100
03FE00
03FC00
03F000
ENDCHAR
STARTCHAR Nlinebelow
ENCODING 7752
SWIDTH 853 0
DWIDTH 24 0
BBX 22 29 1 -8
BITMAP
0FC1FC
102204
301604
710E24
F18624
F14224
F12224
F11024
F10824
F10424
F12224
F12124
F130A4
F138A4
F13C44
F13E24
F13E24
F13E24
F03E04
F03E04
F85F08
FFFFF0
FE0020
FE7F20
0E0020
1E0020
1FFFC0
1FFF80
1FFF00
ENDCHAR
STARTCHAR nlinebelow
ENCODING 7753
SWIDTH 853 0
DWIDTH 24 0
BBX 22 29 1 -8
BITMAP
0FC1FC
102204
301604
710E24
F18624
F14224
F12224
F11024
F10824
F10424
F12224
F12124
F130A4
F138A4
F13C44
F13E24
F13E24
F13E24
F03E04
F03E04
F85F08
FFFFF0
FE0020
FE7F20
0E0020
1E0020
1FFFC0
1FFF80
1FFF00
ENDCHAR
STARTCHAR Rdotbelow
ENCODING 7770
SWIDTH 843 0
DWIDTH 24 0
BBX 22 31 1 -10
BITMAP
0FFFC0
100020
300010
71FC10
F10108
F13888
F13C88
F13C88
F13C90
F100B0
F10088
F1FF04
F10064
F10024
F13E24
F13E24
F13E24
F13E24
F02E04
F02E04
F82F04
FFFFF8
FF40F0
FEC0C0
01C480
03C480
03C080
03C100
03FE00
03FC00
03F800
ENDCHAR
STARTCHAR rdotbelow
ENCODING 7771
SWIDTH 843 0
DWIDTH 24 0
BBX 22 31 1 -10
BITMAP
0FFFC0
100020
300010
71FC10
F10108
F13888
F13C88
F13C88
F13C90
F100B0
F10088
F1FF04
F10064
F10024
F13E24
F13E24
F13E24
F13E24
F02E04
F02E04
F82F04
FFFFF8
FF40F0
FEC0C0
01C480
03C480
03C080
03C100
03FE00
03FC00
03F800
ENDCHAR
STARTCHAR Rdotbelowmacron
ENCODING 7772
SWIDTH 843 0
DWIDTH 24 0
BBX 22 37 1 -10
BITMAP
03FF80
040040
0CFE40
1C0040
3C0040
3C0040
3FFF80
300060
300010
71FC10
F10108
F13888
F13C88
F13C88
F13C90
F100B0
F10088
F1FF04
F10064
F10024
F13E24
F13E24
F13E24
F13E24
F02E04
F02E04
F82F04
FFFFF8
FF40F0
FEC0C0
01C480
03C480
03C080
03C100
03FE00
03FC00
03F800
ENDCHAR
STARTCHAR rdotbelowmacron
ENCODING 7773
SWIDTH 843 0
DWIDTH 24 0
BBX 22 37 1 -10
BITMAP
03FF80
040040
0CFE40
1C0040
3C0040
3C0040
3FFF80
300060
300010
71FC10
F10108
F13888
F13C88
F13C88
F13C90
F100B0
F10088
F1FF04
F10064
F10024
F13E24
F13E24
F13E24
F13E24
F02E04
F02E04
F82F04
FFFFF8
FF40F0
FEC0C0
01C480
03C480
03C080
03C100
03FE00
03FC00
03F800
ENDCHAR
STARTCHAR Rlinebelow
ENCODING 7774
SWIDTH 843 0
DWIDTH 24 0
BBX 22 29 1 -8
BITMAP
0FFFC0
100020
31FC10
710110
F10088
F13888
F13C88
F13C88
F13C90
F100B0
F10088
F1FF04
F10064
F10024
F13E24
F13E24
F13E24
F13E24
F02E04
F02E04
F84F04
FFFFF8
FE0020
FE7F20
0E0020
1E0020
1FFFC0
1FFF80
1FFE00
ENDCHAR
STARTCHAR rlinebelow
ENCODING 7775
SWIDTH 843 0
DWIDTH 24 0
BBX 22 29 1 -8
BITMAP
0FFFC0
100020
31FC10
710110
F10088
F13888
F13C88
F13C88
F13C90
F100B0
F10088
F1FF04
F10064
F10024
F13E24
F13E24
F13E24
F13E24
F02E04
F02E04
F84F04
FFFFF8
FE0020
FE7F20
0E0020
1E0020
1FFFC0
1FFF80
1FFE00
ENDCHAR
STARTCHAR Sdotaccent
ENCODING 7776
SWIDTH 750 0
DWIDTH 21 0
BBX 20 31 1 -3
BITMAP
00FC00
010200
031200
071200
0F0200
0F0200
0F0200
0FFDE0
080020
080020
10FF20
710020
720020
F23FC0
F23F00
F200C0
F18020
F07C20
F80310
FC0090
FFC090
7FF890
3FF090
300110
73FE10
F00020
F00040
F00180
FFFF00
FFFE00
FFF800
ENDCHAR
STARTCHAR sdotaccent
ENCODING 7777
SWIDTH 750 0
DWIDTH 21 0
BBX 20 31 1 -3
BITMAP
00FC00
010200
031200
071200
0F0200
0F0200
0F0200
0FFDE0
080020
080020
10FF20
710020
720020
F23FC0
F23F00
F200C0
F18020
F07C20
F80310
FC0090
FFC090
7FF890
3FF090
300110
73FE10
F00020
F00040
F00180
FFFF00
FFFE00
FFF800
ENDCHAR
STARTCHAR Sdotbelow
ENCODING 7778
SWIDTH 750 0
DWIDTH 21 0
BBX 20 31 1 -10
BITMAP
03FFE0
040020
080020
30FF20
710020
F20020
F23FC0
F23F00
F20080
F18060
F07C20
F80310
FC0090
FFC090
7FF890
3FF090
300110
73FE10
F00020
F00020
F000C0
FFFF00
FF8200
FF0200
071200
0F1200
0F0200
0F8200
0FFC00
0FF800
07E000
ENDCHAR
STARTCHAR sdotbelow
ENCODING 7779
SWIDTH 750 0
DWIDTH 21 0
BBX 20 31 1 -10
BITMAP
03FFE0
040020
080020
30FF20
710020
F20020
F23FC0
F23F00
F20080
F18060
F07C20
F80310
FC0090
FFC090
7FF890
3FF090
300110
73FE10
F00020
F00020
F000C0
FFFF00
FF8200
FF0200
071200
0F1200
0F0200
0F8200
0FFC00
0FF800
07E000
ENDCHAR
STARTCHAR Tdotbelow
ENCODING 7788
SWIDTH 756 0
DWIDTH 21 0
BBX 21 31 0 -10
BITMAP
0FFFF8
100008
300008
F1FFC8
F00808
F00808
FF88F0
FF88E0
FF88C0
078900
078900
078900
078900
078900
078900
078900
078900
078900
078100
078100
078100
07FE00
078100
078100
038900
078900
078100
07C100
07FE00
07F800
07F000
ENDCHAR
STARTCHAR tdotbelow
ENCODING 7789
SWIDTH 756 0
DWIDTH 21 0
BBX 21 31 0 -10
BITMAP
0FFFF8
100008
300008
F1FFC8
F00808
F00808
FF88F0
FF88E0
FF88C0
078900
078900
078900
078900
078900
078900
078900
078900
078900
078100
078100
078100
07FE00
078100
078100
038900
078900
078100
07C100
07FE00
07F800
07F000
ENDCHAR
STARTCHAR Tlinebelow
ENCODING 7790
SWIDTH 756 0
DWIDTH 21 0
BBX 21 29 0 -8
BITMAP
0FFFF8
100008
71FFC8
F00808
F00808
F80808
FF88F0
FF88E0
FF8880
078900
078900
078900
078900
078900
078900
078900
078900
078900
078100
078100
07C100
07FFC0
060020
0E7F20
1E0020
1E0020
1FFFC0
1FFF80
1FFE00
ENDCHAR
STARTCHAR tlinebelow
ENCODING 7791
SWIDTH 756 0
DWIDTH 21 0
BBX 21 29 0 -8
BITMAP
0FFFF8
100008
71FFC8
F00808
F00808
F80808
FF88F0
FF88E0
FF8880
078900
078900
078900
078900
078900
078900
078900
078900
078900
078100
078100
07C100
07FFC0
060020
0E7F20
1E0020
1E0020
1FFFC0
1FFF80
1FFE00
ENDCHAR
STARTCHAR Wgrave
ENCODING 7808
SWIDTH 931 0
DWIDTH 26 0
BBX 24 31 1 -3
BITMAP
00E000
011FE0
070010
0F3F90
0F0010
0F0010
0FFE10
083FEF
103FC1
702FC1
F123C9
F123C9
F123C9
F123C9
F12FC9
F130C9
F120C9
F12049
F12649
F10909
F11089
F11089
F12649
F92651
F8C622
F80E02
7C0F02
7E1F04
7FFFF8
3FCFE0
3F0FC0
ENDCHAR
STARTCHAR wgrave
ENCODING 7809
SWIDTH 931 0
DWIDTH 26 0
BBX 24 31 1 -3
BITMAP
00E000
011FE0
070010
0F3F90
0F0010
0F0010
0FFE10
083FEF
103FC1
702FC1
F123C9
F123C9
F123C9
F123C9
F12FC9
F130C9
F120C9
F12049
F12649
F10909
F11089
F11089
F12649
F92651
F8C622
F80E02
7C0F02
7E1F04
7FFFF8
3FCFE0
3F0FC0
ENDCHAR
STARTCHAR Wacute
ENCODING 7810
SWIDTH 931 0
DWIDTH 26 0
BBX 24 31 1 -3
BITMAP
0000F0
007F08
018008
031F88
070008
0F0010
0F07E0
10FFFF
103FC1
7021C1
F123C9
F123C9
F123C9
F123C9
F12FC9
F130C9
F120C9
F12049
F12649
F10909
F11089
F11089
F12649
F92651
F8C622
F80E02
7C0F02
7E1F04
7FFFF8
3FCFE0
3F0FC0
ENDCHAR
STARTCHAR wacute
ENCODING 7811
SWIDTH 931 0
DWIDTH 26 0
BBX 24 31 1 -3
BITMAP
0000F0
007F08
018008
031F88
070008
0F0010
0F07E0
10FFFF
103FC1
7021C1
F123C9
F123C9
F123C9
F123C9
F12FC9
F130C9
F120C9
F12049
F12649
F10909
F11089
F11089
F12649
F92651
F8C622
F80E02
7C0F02
7E1F04
7FFFF8
3FCFE0
3F0FC0
ENDCHAR
STARTCHAR Wdieresis
ENCODING 7812
SWIDTH 931 0
DWIDTH 26 0
BBX 24 31 1 -3
BITMAP
01F1F0
020608
060608
0E2648
0E0608
1E0608
1E0610
1FFFFF
103FC1
303FC1
7121C9
F123C9
F123C9
F123C9
F12FC9
F130C9
F120C9
F12049
F12649
F10909
F11089
F11089
F12649
F92651
F8C632
F80E02
7C0F02
7E1F04
7FFFF8
3FCFE0
3F0FC0
ENDCHAR
STARTCHAR wdieresis
ENCODING 7813
SWIDTH 931 0
DWIDTH 26 0
BBX 24 31 1 -3
BITMAP
01F1F0
020608
060608
0E2648
0E0608
1E0608
1E0610
1FFFFF
103FC1
303FC1
7121C9
F123C9
F123C9
F123C9
F12FC9
F130C9
F120C9
F12049
F12649
F10909
F11089
F11089
F12649
F92651
F8C632
F80E02
7C0F02
7E1F04
7FFFF8
3FCFE0
3F0FC0
ENDCHAR
STARTCHAR Ydotaccent
ENCODING 7822
SWIDTH 805 0
DWIDTH 23 0
BBX 21 31 1 -3
BITMAP
007E00
008100
018900
038900
078100
078100
078100
187EF8
203E08
603E08
E05E08
E25E48
E25E48
E25E48
E23C48
F21C48
F11888
F88110
F84120
FC4220
7E3C40
7F0880
3F0880
1F8900
0F8900
0F8100
078100
078100
07FE00
07F800
07F000
ENDCHAR
STARTCHAR ydotaccent
ENCODING 7823
SWIDTH 805 0
DWIDTH 23 0
BBX 21 31 1 -3
BITMAP
007E00
008100
018900
038900
078100
078100
078100
187EF8
203E08
603E08
E05E08
E25E48
E25E48
E25E48
E23C48
F21C48
F11888
F88110
F84120
FC4220
7E3C40
7F0880
3F0880
1F8900
0F8900
0F8100
078100
078100
07FE00
07F800
07F000
ENDCHAR
STARTCHAR Zdotbelow
ENCODING 7826
SWIDTH 760 0
DWIDTH 21 0
BBX 20 31 1 -10
BITMAP
0FFFE0
100010
300010
F1FE10
F00110
F00110
FFE220
FFC420
FF8840
010880
021100
062100
0C4200
188400
110800
310FE0
720010
F1FF90
F00010
F00010
F00010
FFFFE0
FF8180
FF8100
079100
079100
078100
078200
07FC00
07F800
07E000
ENDCHAR
STARTCHAR zdotbelow
ENCODING 7827
SWIDTH 760 0
DWIDTH 21 0
BBX 20 31 1 -10
BITMAP
0FFFE0
100010
300010
F1FE10
F00110
F00110
FFE220
FFC420
FF8840
010880
021100
062100
0C4200
188400
110800
310FE0
720010
F1FF90
F00010
F00010
F00010
FFFFE0
FF8180
FF8100
079100
079100
078100
078200
07FC00
07F800
07E000
ENDCHAR
STARTCHAR tdieresis
ENCODING 7831
SWIDTH 756 0
DWIDTH 21 0
BBX 21 31 0 -3
BITMAP
03F7C0
040810
0C0810
1C8890
3C0810
3C0810
3C1820
33E7D8
300008
300008
F1FFC8
F00808
F00808
FF88F0
FF88E0
FF88C0
078900
078900
078900
078900
078900
078900
078900
078900
078900
078100
078100
07C100
07FE00
07F800
07F000
ENDCHAR
STARTCHAR Germandbls
ENCODING 7838
SWIDTH 859 0
DWIDTH 24 0
BBX 23 24 1 -3
BITMAP
0FFFC0
100020
300010
71FF10
F10090
F10090
F11890
F11910
F11918
F11904
F119C2
F11022
F11012
F11F12
F11F12
F11F12
F11022
F111C2
F01002
F01004
F83838
FFFFE0
FFFFC0
FEFF00
ENDCHAR
STARTCHAR Adotbelow
ENCODING 7840
SWIDTH 830 0
DWIDTH 23 0
BBX 21 31 1 -10
BITMAP
01FFC0
020040
060020
0C3E20
1C4110
1C8110
189890
389C88
391C48
711C48
713E48
720048
F20028
F1FFC8
F20028
F20028
F23E28
F23E28
F03E08
F05E08
F05E08
FFFFF0
FF80E0
FD80C0
038900
078900
078100
07C100
07FE00
07F800
03F000
ENDCHAR
STARTCHAR adotbelow
ENCODING 7841
SWIDTH 830 0
DWIDTH 23 0
BBX 21 31 1 -10
BITMAP
01FFC0
020040
060020
0C3E20
1C4110
1C8110
189890
389C88
391C48
711C48
713E48
720048
F20028
F1FFC8
F20028
F20028
F23E28
F23E28
F03E08
F05E08
F05E08
FFFFF0
FF80E0
FD80C0
038900
078900
078100
07C100
07FE00
07F800
03F000
ENDCHAR
STARTCHAR Ahookabove
ENCODING 7842
SWIDTH 830 0
DWIDTH 23 0
BBX 21 33 1 -3
BITMAP
007F00
018080
03BC80
078280
07FA80
07C280
07DC80
01C180
03FE00
0301C0
020040
060020
0C3E20
1C4110
1C8110
189890
389C88
391C48
711C48
713E48
720048
F20028
F1FFC8
F20028
F20028
F23E28
F23E28
F03E08
F05E08
F05E08
FF9FF0
FF1FE0
FC1FC0
ENDCHAR
STARTCHAR ahookabove
ENCODING 7843
SWIDTH 830 0
DWIDTH 23 0
BBX 21 33 1 -3
BITMAP
007F00
018080
03BC80
078280
07FA80
07C280
07DC80
01C180
03FE00
0301C0
020040
060020
0C3E20
1C4110
1C8110
189890
389C88
391C48
711C48
713E48
720048
F20028
F1FFC8
F20028
F20028
F23E28
F23E28
F03E08
F05E08
F05E08
FF9FF0
FF1FE0
FC1FC0
ENDCHAR
STARTCHAR Acircumflexacute
ENCODING 7844
SWIDTH 830 0
DWIDTH 23 0
BBX 21 38 1 -3
BITMAP
000020
0003D0
000410
000DD0
003C10
003C10
003C60
006380
018040
023C20
064320
0E0020
1E3E20
1FFFC0
1F0040
1E0040
1E0020
0C3E20
1C4110
1C8110
189890
389C88
391C48
711C48
713E48
720048
F20028
F1FFC8
F20028
F20028
F23E28
F23E28
F03E08
F05E08
F05E08
FF9FF0
FF1FE0
FC1FC0
ENDCHAR
STARTCHAR acircumflexacute
ENCODING 7845
SWIDTH 830 0
DWIDTH 23 0
BBX 21 38 1 -3
BITMAP
000020
0003D0
000410
000DD0
003C10
003C10
003C60
006380
018040
023C20
064320
0E0020
1E3E20
1FFFC0
1F0040
1E0040
1E0020
0C3E20
1C4110
1C8110
189890
389C88
391C48
711C48
713E48
720048
F20028
F1FFC8
F20028
F20028
F23E28
F23E28
F03E08
F05E08
F05E08
FF9FF0
FF1FE0
FC1FC0
ENDCHAR
STARTCHAR Acircumflexgrave
ENCODING 7846
SWIDTH 830 0
DWIDTH 23 0
BBX 21 37 1 -3
BITMAP
000700
0008E0
001820
0079A0
007820
007C20
0063A0
018040
023C20
064320
0E0020
1E3E20
1FFFC0
1F0040
1E0040
1E0020
0C3E20
1C4110
1C8110
189890
389C88
391C48
711C48
713E48
720048
F20028
F1FFC8
F20028
F20028
F23E28
F23E28
F03E08
F05E08
F05E08
FF9FF0
FF1FE0
FC1FC0
ENDCHAR
STARTCHAR acircumflexgrave
ENCODING 7847
SWIDTH 830 0
DWIDTH 23 0
BBX 21 37 1 -3
BITMAP
000700
0008E0
001820
0079A0
007820
007C20
0063A0
018040
023C20
064320
0E0020
1E3E20
1FFFC0
1F0040
1E0040
1E0020
0C3E20
1C4110
1C8110
189890
389C88
391C48
711C48
713E48
720048
F20028
F1FFC8
F20028
F20028
F23E28
F23E28
F03E08
F05E08
F05E08
FF9FF0
FF1FE0
FC1FC0
ENDCHAR
STARTCHAR Acircumflexhookabove
ENCODING 7848
SWIDTH 830 0
DWIDTH 23 0
BBX 22 39 1 -3
BITMAP
0003F8
000C04
001DE4
003C14
003FD4
003E14
003EE4
001E08
0062F0
018060
023C20
064320
0E0020
1E3E20
1FFFC0
1F0040
1E0040
1E0020
0C3E20
1C4110
1C8110
189890
389C88
391C48
711C48
713E44
720044
F20024
F1FFC4
F20024
F20024
F23E24
F23E24
F03E04
F05E04
F05E08
FF9FF0
FF1FE0
FC1FC0
ENDCHAR
STARTCHAR acircumflexhookabove
ENCODING 7849
SWIDTH 830 0
DWIDTH 23 0
BBX 22 39 1 -3
BITMAP
0003F8
000C04
001DE4
003C14
003FD4
003E14
003EE4
001E08
0062F0
018060
023C20
064320
0E0020
1E3E20
1FFFC0
1F0040
1E0040
1E0020
0C3E20
1C4110
1C8110
189890
389C88
391C48
711C48
713E44
720044
F20024
F1FFC4
F20024
F20024
F23E24
F23E24
F03E04
F05E04
F05E08
FF9FF0
FF1FE0
FC1FC0
ENDCHAR
STARTCHAR Acircumflextilde
ENCODING 7850
SWIDTH 830 0
DWIDTH 23 0
BBX 21 38 1 -3
BITMAP
01FCC0
020320
060020
0E7F20
1E0020
1E0040
1FFF80
1FE300
1F00C0
123C20
064320
0E0020
1E3E20
1FFFC0
1F0040
1E0040
1E0020
0C3E20
1C4110
1C8110
189890
389C88
391C48
711C48
713E48
720048
F20028
F1FFC8
F20028
F20028
F23E28
F23E28
F03E08
F05E08
F05E08
FF9FF0
FF1FE0
FC1FC0
ENDCHAR
STARTCHAR acircumflextilde
ENCODING 7851
SWIDTH 830 0
DWIDTH 23 0
BBX 21 38 1 -3
BITMAP
01FCC0
020320
060020
0E7F20
1E0020
1E0040
1FFF80
1FE300
1F00C0
123C20
064320
0E0020
1E3E20
1FFFC0
1F0040
1E0040
1E0020
0C3E20
1C4110
1C8110
189890
389C88
391C48
711C48
713E48
720048
F20028
F1FFC8
F20028
F20028
F23E28
F23E28
F03E08
F05E08
F05E08
FF9FF0
FF1FE0
FC1FC0
ENDCHAR
STARTCHAR Acircumflexdotbelow
ENCODING 7852
SWIDTH 830 0
DWIDTH 23 0
BBX 21 39 1 -10
BITMAP
001C00
00E380
010040
023C20
064320
0E0020
1E3E20
1FFFC0
1F0040
1E0040
1E0020
0C3E20
1C4110
1C8110
189890
389C88
391C48
711C48
713E48
720048
F20028
F1FFC8
F20028
F20028
F23E28
F23E28
F03E08
F05E08
F05E08
FFFFF0
FF80E0
FD80C0
038900
078900
078100
07C100
07FE00
07F800
03F000
ENDCHAR
STARTCHAR acircumflexdotbelow
ENCODING 7853
SWIDTH 830 0
DWIDTH 23 0
BBX 21 39 1 -10
BITMAP
001C00
00E380
010040
023C20
064320
0E0020
1E3E20
1FFFC0
1F0040
1E0040
1E0020
0C3E20
1C4110
1C8110
189890
389C88
391C48
711C48
713E48
720048
F20028
F1FFC8
F20028
F20028
F23E28
F23E28
F03E08
F05E08
F05E08
FFFFF0
FF80E0
FD80C0
038900
078900
078100
07C100
07FE00
07F800
03F000
ENDCHAR
STARTCHAR Abreveacute
ENCODING 7854
SWIDTH 830 0
DWIDTH 23 0
BBX 21 38 1 -3
BITMAP
000380
001E80
002080
006E80
01E080
01E080
03E3C0
041C20
0C1C20
1C80A0
1C4120
3E3E20
3E0040
1F8080
1FFFC0
1E0040
0E0020
0E3E20
1C4120
1C8110
189890
389C88
391C48
711C48
713E48
720048
F20028
F1FFC8
F20028
F20028
F23E28
F23E28
F03E08
F05E08
F05E08
FF9FF0
FF1FE0
FC1FC0
ENDCHAR
STARTCHAR abreveacute
ENCODING 7855
SWIDTH 830 0
DWIDTH 23 0
BBX 21 38 1 -3
BITMAP
000380
001E80
002080
006E80
01E080
01E080
03E3C0
041C20
0C1C20
1C80A0
1C4120
3E3E20
3E0040
1F8080
1FFFC0
1E0040
0E0020
0E3E20
1C4120
1C8110
189890
389C88
391C48
711C48
713E48
720048
F20028
F1FFC8
F20028
F20028
F23E28
F23E28
F03E08
F05E08
F05E08
FF9FF0
FF1FE0
FC1FC0
ENDCHAR
STARTCHAR Abrevegrave
ENCODING 7856
SWIDTH 830 0
DWIDTH 23 0
BBX 21 38 1 -3
BITMAP
00E000
013C00
030400
0F3200
0F0200
0F0200
0FE3C0
0C1C20
0C1C20
1C80A0
1C4120
3E3E20
3E0040
1F8080
1FFFC0
1E0040
0E0020
0E3E20
1C4120
1C8110
189890
389C88
391C48
711C48
713E48
720048
F20028
F1FFC8
F20028
F20028
F23E28
F23E28
F03E08
F05E08
F05E08
FF9FF0
FF1FE0
FC1FC0
ENDCHAR
STARTCHAR abrevegrave
ENCODING 7857
SWIDTH 830 0
DWIDTH 23 0
BBX 21 38 1 -3
BITMAP
00E000
013C00
030400
0F3200
0F0200
0F0200
0FE3C0
0C1C20
0C1C20
1C80A0
1C4120
3E3E20
3E0040
1F8080
1FFFC0
1E0040
0E0020
0E3E20
1C4120
1C8110
189890
389C88
391C48
711C48
713E48
720048
F20028
F1FFC8
F20028
F20028
F23E28
F23E28
F03E08
F05E08
F05E08
FF9FF0
FF1FE0
FC1FC0
ENDCHAR
STARTCHAR Abrevehookabove
ENCODING 7858
SWIDTH 830 0
DWIDTH 23 0
BBX 21 40 1 -3
BITMAP
007F80
008040
019E40
03C540
07F940
07E140
03EE40
01E180
01FFC0
021C20
041C20
0C80A0
1C4120
3E3E20
3E0040
1F8080
1FFFC0
1E0040
0E0020
0E3E20
1C4120
1C8110
189890
389C88
391C48
711C48
713E48
720048
F20028
F1FFC8
F20028
F20028
F23E28
F23E28
F03E08
F05E08
F05E08
FF9FF0
FF1FE0
FC1FC0
ENDCHAR
STARTCHAR abrevehookabove
ENCODING 7859
SWIDTH 830 0
DWIDTH 23 0
BBX 21 40 1 -3
BITMAP
007F80
008040
019E40
03C540
07F940
07E140
03EE40
01E180
01FFC0
021C20
041C20
0C80A0
1C4120
3E3E20
3E0040
1F8080
1FFFC0
1E0040
0E0020
0E3E20
1C4120
1C8110
189890
389C88
391C48
711C48
713E48
720048
F20028
F1FFC8
F20028
F20028
F23E28
F23E28
F03E08
F05E08
F05E08
FF9FF0
FF1FE0
FC1FC0
ENDCHAR
STARTCHAR Abrevetilde
ENCODING 7860
SWIDTH 830 0
DWIDTH 23 0
BBX 21 38 1 -3
BITMAP
01FCC0
020320
066020
0E1F20
1E0020
1FFCC0
1FFFC0
1C1C20
1C1C20
1C80A0
1C4120
3E3E20
3E0040
1F8080
1FFFC0
1E0040
0E0020
0E3E20
1C4120
1C8110
189890
389C88
391C48
711C48
713E48
720048
F20028
F1FFC8
F20028
F20028
F23E28
F23E28
F03E08
F05E08
F05E08
FF9FF0
FF1FE0
FC1FC0
ENDCHAR
STARTCHAR abrevetilde
ENCODING 7861
SWIDTH 830 0
DWIDTH 23 0
BBX 21 38 1 -3
BITMAP
01FCC0
020320
066020
0E1F20
1E0020
1FFCC0
1FFFC0
1C1C20
1C1C20
1C80A0
1C4120
3E3E20
3E0040
1F8080
1FFFC0
1E0040
0E0020
0E3E20
1C4120
1C8110
189890
389C88
391C48
711C48
713E48
720048
F20028
F1FFC8
F20028
F20028
F23E28
F23E28
F03E08
F05E08
F05E08
FF9FF0
FF1FE0
FC1FC0
ENDCHAR
STARTCHAR Abrevedotbelow
ENCODING 7862
SWIDTH 830 0
DWIDTH 23 0
BBX 21 39 1 -10
BITMAP
03E3C0
041420
0C1C20
1C80A0
1C4120
3E3E20
3E0040
1F8080
1FFFC0
1E0040
0E0020
0E3E20
1C4120
1C8110
189890
389C88
391C48
711C48
713E48
720048
F20028
F1FFC8
F20028
F20028
F23E28
F23E28
F03E08
F05E08
F05E08
FFFFF0
FF80E0
FD80C0
038900
078900
078100
07C100
07FE00
07F800
03F000
ENDCHAR
STARTCHAR abrevedotbelow
ENCODING 7863
SWIDTH 830 0
DWIDTH 23 0
BBX 21 39 1 -10
BITMAP
03E3C0
041420
0C1C20
1C80A0
1C4120
3E3E20
3E0040
1F8080
1FFFC0
1E0040
0E0020
0E3E20
1C4120
1C8110
189890
389C88
391C48
711C48
713E48
720048
F20028
F1FFC8
F20028
F20028
F23E28
F23E28
F03E08
F05E08
F05E08
FFFFF0
FF80E0
FD80C0
038900
078900
078100
07C100
07FE00
07F800
03F000
ENDCHAR
STARTCHAR Edotbelow
ENCODING 7864
SWIDTH 754 0
DWIDTH 21 0
BBX 19 31 1 -10
BITMAP
0FFFE0
100020
300020
71FFA0
F10020
F10020
F13FC0
F13F80
F10080
F10040
F1FC40
F10040
F10080
F13F00
F13E00
F13FE0
F10020
F1FFA0
F00020
F00020
F00020
FFFFC0
FF8180
FF8100
079100
079100
078100
078200
07FC00
07F800
07E000
ENDCHAR
STARTCHAR edotbelow
ENCODING 7865
SWIDTH 754 0
DWIDTH 21 0
BBX 19 31 1 -10
BITMAP
0FFFE0
100020
300020
71FFA0
F10020
F10020
F13FC0
F13F80
F10080
F10040
F1FC40
F10040
F10080
F13F00
F13E00
F13FE0
F10020
F1FFA0
F00020
F00020
F00020
FFFFC0
FF8180
FF8100
079100
079100
078100
078200
07FC00
07F800
07E000
ENDCHAR
STARTCHAR Ehookabove
ENCODING 7866
SWIDTH 754 0
DWIDTH 21 0
BBX 19 33 1 -3
BITMAP
00FE00
010100
077900
0F0280
0FF280
0F8280
0FBD00
038100
07FE00
0803E0
100020
300020
71FFA0
F10020
F10020
F13FC0
F13F80
F10080
F10040
F1FC40
F10040
F10080
F13F00
F13E00
F13FE0
F10020
F1FFA0
F00020
F00020
F80020
FFFFC0
FFFF80
FFFF00
ENDCHAR
STARTCHAR ehookabove
ENCODING 7867
SWIDTH 754 0
DWIDTH 21 0
BBX 19 33 1 -3
BITMAP
00FE00
010100
077900
0F0280
0FF280
0F8280
0FBD00
038100
07FE00
0803E0
100020
300020
71FFA0
F10020
F10020
F13FC0
F13F80
F10080
F10040
F1FC40
F10040
F10080
F13F00
F13E00
F13FE0
F10020
F1FFA0
F00020
F00020
F80020
FFFFC0
FFFF80
FFFF00
ENDCHAR
STARTCHAR Etilde
ENCODING 7868
SWIDTH 754 0
DWIDTH 21 0
BBX 19 30 1 -3
BITMAP
01F980
060640
0C0040
1CFE40
3C0040
3DF080
3A0F60
300020
300020
71FFA0
F10020
F10020
F13FC0
F13F80
F10080
F10040
F1FC40
F10040
F10080
F13F00
F13E00
F13FE0
F10020
F1FFA0
F00020
F00020
F80020
FFFFC0
FFFF80
FFFF00
ENDCHAR
STARTCHAR etilde
ENCODING 7869
SWIDTH 754 0
DWIDTH 21 0
BBX 19 30 1 -3
BITMAP
01F980
060640
0C0040
1CFE40
3C0040
3DF080
3A0F60
300020
300020
71FFA0
F10020
F10020
F13FC0
F13F80
F10080
F10040
F1FC40
F10040
F10080
F13F00
F13E00
F13FE0
F10020
F1FFA0
F00020
F00020
F80020
FFFFC0
FFFF80
FFFF00
ENDCHAR
STARTCHAR Ecircumflexacute
ENCODING 7870
SWIDTH 754 0
DWIDTH 21 0
BBX 19 38 1 -3
BITMAP
000040
0007A0
000820
001BA0
003820
007820
0078C0
00C700
030080
043C40
0CC240
1C0040
3C7C40
3FFFC0
380020
300020
300020
71FFA0
F10020
F10020
F13FC0
F13F80
F10080
F10040
F1FC40
F10040
F10080
F13F00
F13E00
F13FE0
F10020
F1FFA0
F00020
F00020
F80020
FFFFC0
FFFF80
FFFF00
ENDCHAR
STARTCHAR ecircumflexacute
ENCODING 7871
SWIDTH 754 0
DWIDTH 21 0
BBX 19 38 1 -3
BITMAP
000040
0007A0
000820
001BA0
003820
007820
0078C0
00C700
030080
043C40
0CC240
1C0040
3C7C40
3FFFC0
380020
300020
300020
71FFA0
F10020
F10020
F13FC0
F13F80
F10080
F10040
F1FC40
F10040
F10080
F13F00
F13E00
F13FE0
F10020
F1FFA0
F00020
F00020
F80020
FFFFC0
FFFF80
FFFF00
ENDCHAR
STARTCHAR Ecircumflexgrave
ENCODING 7872
SWIDTH 754 0
DWIDTH 21 0
BBX 19 37 1 -3
BITMAP
000E00
0011C0
003020
007320
00F020
00F820
00C740
030080
043C40
0CC240
1C0040
3C7C40
3FFFC0
380020
300020
300020
71FFA0
F10020
F10020
F13FC0
F13F80
F10080
F10040
F1FC40
F10040
F10080
F13F00
F13E00
F13FE0
F10020
F1FFA0
F00020
F00020
F80020
FFFFC0
FFFF80
FFFF00
ENDCHAR
STARTCHAR ecircumflexgrave
ENCODING 7873
SWIDTH 754 0
DWIDTH 21 0
BBX 19 37 1 -3
BITMAP
000E00
0011C0
003020
007320
00F020
00F820
00C740
030080
043C40
0CC240
1C0040
3C7C40
3FFFC0
380020
300020
300020
71FFA0
F10020
F10020
F13FC0
F13F80
F10080
F10040
F1FC40
F10040
F10080
F13F00
F13E00
F13FE0
F10020
F1FFA0
F00020
F00020
F80020
FFFFC0
FFFF80
FFFF00
ENDCHAR
STARTCHAR Ecircumflexhookabove
ENCODING 7874
SWIDTH 754 0
DWIDTH 21 0
BBX 21 39 1 -3
BITMAP
0007F0
000808
003BC8
007818
007F98
007C18
007DE8
001C18
00E7E0
0300C0
043C40
0CC240
1C0040
3C7C40
3FFFC0
380030
300010
300010
71FF90
F10010
F10010
F13FE0
F13F80
F10080
F10040
F1FC40
F10040
F10080
F13F00
F13E00
F13FE0
F10010
F1FF90
F00010
F00010
F80030
FFFFC0
FFFF80
FFFF00
ENDCHAR
STARTCHAR ecircumflexhookabove
ENCODING 7875
SWIDTH 754 0
DWIDTH 21 0
BBX 21 39 1 -3
BITMAP
0007F0
000808
003BC8
007818
007F98
007C18
007DE8
001C18
00E7E0
0300C0
043C40
0CC240
1C0040
3C7C40
3FFFC0
380030
300010
300010
71FF90
F10010
F10010
F13FE0
F13F80
F10080
F10040
F1FC40
F10040
F10080
F13F00
F13E00
F13FE0
F10010
F1FF90
F00010
F00010
F80030
FFFFC0
FFFF80
FFFF00
ENDCHAR
STARTCHAR Ecircumflextilde
ENCODING 7876
SWIDTH 754 0
DWIDTH 21 0
BBX 19 38 1 -3
BITMAP
01F880
060740
0C0040
1CFE40
3C0040
3C0040
3FFF80
3FC200
3E0180
243C40
0CC240
1C0040
3C7C40
3FFFC0
380020
300020
300020
71FFA0
F10020
F10020
F13FC0
F13F80
F10080
F10040
F1FC40
F10040
F10080
F13F00
F13E00
F13FE0
F10020
F1FFA0
F00020
F00020
F80020
FFFFC0
FFFF80
FFFF00
ENDCHAR
STARTCHAR ecircumflextilde
ENCODING 7877
SWIDTH 754 0
DWIDTH 21 0
BBX 19 38 1 -3
BITMAP
01F880
060740
0C0040
1CFE40
3C0040
3C0040
3FFF80
3FC200
3E0180
243C40
0CC240
1C0040
3C7C40
3FFFC0
380020
300020
300020
71FFA0
F10020
F10020
F13FC0
F13F80
F10080
F10040
F1FC40
F10040
F10080
F13F00
F13E00
F13FE0
F10020
F1FFA0
F00020
F00020
F80020
FFFFC0
FFFF80
FFFF00
ENDCHAR
STARTCHAR Ecircumflexdotbelow
ENCODING 7878
SWIDTH 754 0
DWIDTH 21 0
BBX 19 39 1 -10
BITMAP
003800
01C700
0200C0
043C40
1CC240
3C0040
3C7C40
3FFF80
380060
300020
700020
F1FFA0
F10020
F10020
F13FC0
F13F80
F10080
F10040
F1FC40
F10040
F10080
F13F00
F13E00
F13FE0
F10020
F1FFA0
F00020
F00020
F00020
FFFFC0
FF0380
FF0100
071200
0F1200
0F0200
0F8200
0FFC00
0FF000
0FE000
ENDCHAR
STARTCHAR ecircumflexdotbelow
ENCODING 7879
SWIDTH 754 0
DWIDTH 21 0
BBX 19 39 1 -10
BITMAP
003800
01C700
0200C0
043C40
1CC240
3C0040
3C7C40
3FFF80
380060
300020
700020
F1FFA0
F10020
F10020
F13FC0
F13F80
F10080
F10040
F1FC40
F10040
F10080
F13F00
F13E00
F13FE0
F10020
F1FFA0
F00020
F00020
F00020
FFFFC0
FF0380
FF0100
071200
0F1200
0F0200
0F8200
0FFC00
0FF000
0FE000
ENDCHAR
STARTCHAR Ihookabove
ENCODING 7880
SWIDTH 705 0
DWIDTH 20 0
BBX 18 33 1 -3
BITMAP
01FC00
060200
0EFA00
1E0600
1FE600
1F0A00
1F7200
070200
0FFC00
1007C0
300040
700040
F3FE40
F02040
F02040
FE2380
FE2300
FE2200
7E2200
0E2200
0E2200
0E2200
0E2200
0E2200
0E2380
102040
73FE40
F00040
F00040
F00040
FFFF80
FFFE00
FFFC00
ENDCHAR
STARTCHAR ihookabove
ENCODING 7881
SWIDTH 705 0
DWIDTH 20 0
BBX 18 33 1 -3
BITMAP
01FC00
060200
0EFA00
1E0600
1FE600
1F0A00
1F7200
070200
0FFC00
1007C0
300040
700040
F3FE40
F02040
F02040
FE2380
FE2300
FE2200
7E2200
0E2200
0E2200
0E2200
0E2200
0E2200
0E2380
102040
73FE40
F00040
F00040
F00040
FFFF80
FFFE00
FFFC00
ENDCHAR
STARTCHAR Idotbelow
ENCODING 7882
SWIDTH 705 0
DWIDTH 20 0
BBX 18 31 1 -10
BITMAP
1FFFC0
300040
700040
F3FE40
F02040
F02040
FE2380
FE2300
FE2200
7E2200
0E2200
0E2200
0E2200
0E2200
0E2200
0E2380
102040
73FE40
F00040
F00040
F00040
FFFF80
FF0300
FE0200
0E2200
0E2200
0E0200
0F0400
0FF800
0FF000
0FC000
ENDCHAR
STARTCHAR idotbelow
ENCODING 7883
SWIDTH 705 0
DWIDTH 20 0
BBX 18 31 1 -10
BITMAP
1FFFC0
300040
700040
F3FE40
F02040
F02040
FE2380
FE2300
FE2200
7E2200
0E2200
0E2200
0E2200
0E2200
0E2200
0E2380
102040
73FE40
F00040
F00040
F00040
FFFF80
FF0300
FE0200
0E2200
0E2200
0E0200
0F0400
0FF800
0FF000
0FC000
ENDCHAR
STARTCHAR Odotbelow
ENCODING 7884
SWIDTH 837 0
DWIDTH 23 0
BBX 22 31 1 -10
BITMAP
01FFC0
060030
080008
107F08
308084
710044
F13E44
F13E24
F13E24
F13E24
F13E24
F13E24
F13E24
F13E24
F13E24
F11E44
F10044
F08084
F85D08
F80010
FE0020
FFFFC0
7F8080
3F8100
038900
038900
078100
07C100
07FE00
07F800
03F000
ENDCHAR
STARTCHAR odotbelow
ENCODING 7885
SWIDTH 837 0
DWIDTH 23 0
BBX 22 31 1 -10
BITMAP
01FFC0
060030
080008
107F08
308084
710044
F13E44
F13E24
F13E24
F13E24
F13E24
F13E24
F13E24
F13E24
F13E24
F11E44
F10044
F08084
F85D08
F80010
FE0020
FFFFC0
7F8080
3F8100
038900
038900
078100
07C100
07FE00
07F800
03F000
ENDCHAR
STARTCHAR Ohookabove
ENCODING 7886
SWIDTH 837 0
DWIDTH 23 0
BBX 22 33 1 -3
BITMAP
007F00
018080
03BC80
078280
07FA80
07C280
07DC80
01C080
03FF00
0300E0
040010
087F08
108084
710044
711E44
F13E24
F13E24
F13E24
F13E24
F13E24
F13E24
F13E24
F13E24
F13E44
F10044
F08084
F05D08
F80008
FC0010
7FE3E0
7FFF80
3FFF00
07FC00
ENDCHAR
STARTCHAR ohookabove
ENCODING 7887
SWIDTH 837 0
DWIDTH 23 0
BBX 22 33 1 -3
BITMAP
007F00
018080
03BC80
078280
07FA80
07C280
07DC80
01C080
03FF00
0300E0
040010
087F08
108084
710044
711E44
F13E24
F13E24
F13E24
F13E24
F13E24
F13E24
F13E24
F13E24
F13E44
F10044
F08084
F05D08
F80008
FC0010
7FE3E0
7FFF80
3FFF00
07FC00
ENDCHAR
STARTCHAR Ocircumflexacute
ENCODING 7888
SWIDTH 837 0
DWIDTH 23 0
BBX 22 38 1 -3
BITMAP
000070
0003D0
000C50
001D90
003C10
003C10
003C60
00C380
030040
021C20
0E6320
1E0020
1E3E20
1FFFC0
1F0020
1C0010
187F08
108084
710044
711E44
F13E24
F13E24
F13E24
F13E24
F13E24
F13E24
F13E24
F13E24
F13E44
F10044
F08084
F05D08
F80008
FC0010
7FE3E0
7FFF80
3FFF00
07FC00
ENDCHAR
STARTCHAR ocircumflexacute
ENCODING 7889
SWIDTH 837 0
DWIDTH 23 0
BBX 22 38 1 -3
BITMAP
000070
0003D0
000C50
001D90
003C10
003C10
003C60
00C380
030040
021C20
0E6320
1E0020
1E3E20
1FFFC0
1F0020
1C0010
187F08
108084
710044
711E44
F13E24
F13E24
F13E24
F13E24
F13E24
F13E24
F13E24
F13E24
F13E44
F10044
F08084
F05D08
F80008
FC0010
7FE3E0
7FFF80
3FFF00
07FC00
ENDCHAR
STARTCHAR Ocircumflexgrave
ENCODING 7890
SWIDTH 837 0
DWIDTH 23 0
BBX 22 37 1 -3
BITMAP
000780
0018E0
003990
007810
007810
007C10
00C3A0
030040
021C20
0E6320
1E0020
1E3E20
1FFFC0
1F0020
1C0010
187F08
108084
710044
711E44
F13E24
F13E24
F13E24
F13E24
F13E24
F13E24
F13E24
F13E24
F13E44
F10044
F08084
F05D08
F80008
FC0010
7FE3E0
7FFF80
3FFF00
07FC00
ENDCHAR
STARTCHAR ocircumflexgrave
ENCODING 7891
SWIDTH 837 0
DWIDTH 23 0
BBX 22 37 1 -3
BITMAP
000780
0018E0
003990
007810
007810
007C10
00C3A0
030040
021C20
0E6320
1E0020
1E3E20
1FFFC0
1F0020
1C0010
187F08
108084
710044
711E44
F13E24
F13E24
F13E24
F13E24
F13E24
F13E24
F13E24
F13E24
F13E44
F10044
F08084
F05D08
F80008
FC0010
7FE3E0
7FFF80
3FFF00
07FC00
ENDCHAR
STARTCHAR Ocircumflexhookabove
ENCODING 7892
SWIDTH 837 0
DWIDTH 23 0
BBX 22 39 1 -3
BITMAP
0003F8
000DF4
001C0C
003FCC
003E0C
003E74
003E84
001E78
0061F0
018060
021C20
066320
1E0020
1E3E20
1FFFC0
1F0020
1C0010
187F08
108084
710044
711E44
F13E24
F13E24
F13E24
F13E24
F13E24
F13E24
F13E24
F13E24
F13E44
F10044
F08084
F05D08
F80008
FC0010
7FE3E0
7FFF80
3FFF00
07FC00
ENDCHAR
STARTCHAR ocircumflexhookabove
ENCODING 7893
SWIDTH 837 0
DWIDTH 23 0
BBX 22 39 1 -3
BITMAP
0003F8
000DF4
001C0C
003FCC
003E0C
003E74
003E84
001E78
0061F0
018060
021C20
066320
1E0020
1E3E20
1FFFC0
1F0020
1C0010
187F08
108084
710044
711E44
F13E24
F13E24
F13E24
F13E24
F13E24
F13E24
F13E24
F13E24
F13E44
F10044
F08084
F05D08
F80008
FC0010
7FE3E0
7FFF80
3FFF00
07FC00
ENDCHAR
STARTCHAR Ocircumflextilde
ENCODING 7894
SWIDTH 837 0
DWIDTH 23 0
BBX 22 38 1 -3
BITMAP
01FCC0
020320
060020
0E7F20
1E0020
1E0060
1FFF80
1FE300
1F00C0
121C20
066320
1E0020
1E3E20
1FFFC0
1F0020
1C0010
187F08
108084
710044
711E44
F13E24
F13E24
F13E24
F13E24
F13E24
F13E24
F13E24
F13E24
F13E44
F10044
F08084
F05D08
F80008
FC0010
7FE3E0
7FFF80
3FFF00
07FC00
ENDCHAR
STARTCHAR ocircumflextilde
ENCODING 7895
SWIDTH 837 0
DWIDTH 23 0
BBX 22 38 1 -3
BITMAP
01FCC0
020320
060020
0E7F20
1E0020
1E0060
1FFF80
1FE300
1F00C0
121C20
066320
1E0020
1E3E20
1FFFC0
1F0020
1C0010
187F08
108084
710044
711E44
F13E24
F13E24
F13E24
F13E24
F13E24
F13E24
F13E24
F13E24
F13E44
F10044
F08084
F05D08
F80008
FC0010
7FE3E0
7FFF80
3FFF00
07FC00
ENDCHAR
STARTCHAR Ocircumflexdotbelow
ENCODING 7896
SWIDTH 837 0
DWIDTH 23 0
BBX 22 38 1 -10
BITMAP
001C00
00E380
031C60
066320
0E0020
1E1C20
1FFFC0
1F0060
1C0010
187F08
108084
710044
710044
F13E24
F13E24
F13E24
F13E24
F13E24
F13E24
F13E24
F13E24
F13E24
F11E44
F10044
F08084
F85D08
FC0010
FF0020
7FFFC0
7F8080
1F8100
038900
038900
078100
07C100
07FE00
07F800
03F000
ENDCHAR
STARTCHAR ocircumflexdotbelow
ENCODING 7897
SWIDTH 837 0
DWIDTH 23 0
BBX 22 38 1 -10
BITMAP
001C00
00E380
031C60
066320
0E0020
1E1C20
1FFFC0
1F0060
1C0010
187F08
108084
710044
710044
F13E24
F13E24
F13E24
F13E24
F13E24
F13E24
F13E24
F13E24
F13E24
F11E44
F10044
F08084
F85D08
FC0010
FF0020
7FFFC0
7F8080
1F8100
038900
038900
078100
07C100
07FE00
07F800
03F000
ENDCHAR
STARTCHAR Ohornacute
ENCODING 7898
SWIDTH 847 0
DWIDTH 24 0
BBX 23 31 1 -3
BITMAP
000180
01FE40
060E40
0CF040
1C007C
3C0042
3C7FC2
3F800A
3C0012
287FE4
308044
710044
711E24
F13E24
F13E24
F13E24
F13E24
F13E24
F13E24
F13E24
F13E24
F13E44
F10044
F08084
F05D08
F80008
FC0030
FFE3C0
7FFF80
3FFF00
0FFC00
ENDCHAR
STARTCHAR ohornacute
ENCODING 7899
SWIDTH 847 0
DWIDTH 24 0
BBX 23 31 1 -3
BITMAP
000180
01FE40
060E40
0CF040
1C007C
3C0042
3C7FC2
3F800A
3C0012
287FE4
308044
710044
711E24
F13E24
F13E24
F13E24
F13E24
F13E24
F13E24
F13E24
F13E24
F13E44
F10044
F08084
F05D08
F80008
FC0030
FFE3C0
7FFF80
3FFF00
0FFC00
ENDCHAR
STARTCHAR Ohorngrave
ENCODING 7900
SWIDTH 847 0
DWIDTH 24 0
BBX 23 31 1 -3
BITMAP
07F800
080F80
38F840
780640
78007C
7E0042
7FFFC2
3F000A
040012
087FE4
108044
710044
711E24
F13E24
F13E24
F13E24
F13E24
F13E24
F13E24
F13E24
F13E24
F13E44
F10044
F08084
F05D08
F80008
FC0030
FFE3C0
7FFF80
3FFF00
0FFC00
ENDCHAR
STARTCHAR ohorngrave
ENCODING 7901
SWIDTH 847 0
DWIDTH 24 0
BBX 23 31 1 -3
BITMAP
07F800
080F80
38F840
780640
78007C
7E0042
7FFFC2
3F000A
040012
087FE4
108044
710044
711E24
F13E24
F13E24
F13E24
F13E24
F13E24
F13E24
F13E24
F13E24
F13E44
F10044
F08084
F05D08
F80008
FC0030
FFE3C0
7FFF80
3FFF00
0FFC00
ENDCHAR
STARTCHAR Ohornhookabove
ENCODING 7902
SWIDTH 847 0
DWIDTH 24 0
BBX 23 33 1 -3
BITMAP
007F00
018080
03BC80
078280
07FA80
07C280
07DCBC
01C0C2
03FFC2
03000A
040012
087FE4
108044
710044
711E24
F13E24
F13E24
F13E24
F13E24
F13E24
F13E24
F13E24
F13E24
F13E44
F10044
F08084
F05D08
F80008
FC0030
FFE3C0
7FFF80
3FFF00
0FFC00
ENDCHAR
STARTCHAR ohornhookabove
ENCODING 7903
SWIDTH 847 0
DWIDTH 24 0
BBX 23 33 1 -3
BITMAP
007F00
018080
03BC80
078280
07FA80
07C280
07DCBC
01C0C2
03FFC2
03000A
040012
087FE4
108044
710044
711E24
F13E24
F13E24
F13E24
F13E24
F13E24
F13E24
F13E24
F13E24
F13E44
F10044
F08084
F05D08
F80008
FC0030
FFE3C0
7FFF80
3FFF00
0FFC00
ENDCHAR
STARTCHAR Ohorntilde
ENCODING 7904
SWIDTH 847 0
DWIDTH 24 0
BBX 23 31 1 -3
BITMAP
03F980
040640
0CC040
1C3E40
3C007C
3CE042
3FFFC2
3F000A
3C0012
087FE4
108044
710044
711E24
F13E24
F13E24
F13E24
F13E24
F13E24
F13E24
F13E24
F13E24
F13E44
F10044
F08084
F05D08
F80008
FC0030
FFE3C0
7FFF80
3FFF00
0FFC00
ENDCHAR
STARTCHAR ohorntilde
ENCODING 7905
SWIDTH 847 0
DWIDTH 24 0
BBX 23 31 1 -3
BITMAP
03F980
040640
0CC040
1C3E40
3C007C
3CE042
3FFFC2
3F000A
3C0012
087FE4
108044
710044
711E24
F13E24
F13E24
F13E24
F13E24
F13E24
F13E24
F13E24
F13E24
F13E44
F10044
F08084
F05D08
F80008
FC0030
FFE3C0
7FFF80
3FFF00
0FFC00
ENDCHAR
STARTCHAR Ohorndotbelow
ENCODING 7906
SWIDTH 847 0
DWIDTH 24 0
BBX 23 34 1 -10
BITMAP
00003E
000042
0000C2
01FF0A
06000A
087F12
1080E4
310044
710044
F13E24
F13E24
F13E24
F13E24
F13E24
F13E24
F13E24
F13E24
F13E24
F11E44
F10044
F08084
F85D08
FC0010
FE0020
FFFFC0
7F8080
3F8100
038900
038900
078100
07C100
07FE00
07F800
03F000
ENDCHAR
STARTCHAR ohorndotbelow
ENCODING 7907
SWIDTH 847 0
DWIDTH 24 0
BBX 23 34 1 -10
BITMAP
00003E
000042
0000C2
01FF0A
06000A
087F12
1080E4
310044
710044
F13E24
F13E24
F13E24
F13E24
F13E24
F13E24
F13E24
F13E24
F13E24
F11E44
F10044
F08084
F85D08
FC0010
FE0020
FFFFC0
7F8080
3F8100
038900
038900
078100
07C100
07FE00
07F800
03F000
ENDCHAR
STARTCHAR Udotbelow
ENCODING 7908
SWIDTH 846 0
DWIDTH 24 0
BBX 22 30 1 -9
BITMAP
0FE1FC
102204
302604
F12E24
F13E24
F13E24
F13E24
F13E24
F13E24
F13E24
F13E24
F13E24
F13E24
F13E24
F13E24
F10C24
F10044
F08084
F87D08
FC0010
FF0020
7FFFC0
3F8080
1F8080
038880
038880
038100
03FE00
03FC00
03F800
ENDCHAR
STARTCHAR udotbelow
ENCODING 7909
SWIDTH 846 0
DWIDTH 24 0
BBX 22 30 1 -9
BITMAP
0FE1FC
102204
302604
F12E24
F13E24
F13E24
F13E24
F13E24
F13E24
F13E24
F13E24
F13E24
F13E24
F13E24
F13E24
F10C24
F10044
F08084
F87D08
FC0010
FF0020
7FFFC0
3F8080
1F8080
038880
038880
038100
03FE00
03FC00
03F800
ENDCHAR
STARTCHAR Uhookabove
ENCODING 7910
SWIDTH 846 0
DWIDTH 24 0
BBX 22 33 1 -3
BITMAP
007F80
008040
019E40
038140
07FD40
07E140
07EE40
00E080
01EF00
0E3EFC
103E04
702E04
F13E24
F13E24
F13E24
F13E24
F13E24
F13E24
F13E24
F13E24
F13E24
F13E24
F13E24
F11C24
F10044
F080C4
F07D04
F80008
FC0010
7FE3E0
7FFF80
1FFF00
07FC00
ENDCHAR
STARTCHAR uhookabove
ENCODING 7911
SWIDTH 846 0
DWIDTH 24 0
BBX 22 33 1 -3
BITMAP
007F80
008040
019E40
038140
07FD40
07E140
07EE40
00E080
01EF00
0E3EFC
103E04
702E04
F13E24
F13E24
F13E24
F13E24
F13E24
F13E24
F13E24
F13E24
F13E24
F13E24
F13E24
F11C24
F10044
F080C4
F07D04
F80008
FC0010
7FE3E0
7FFF80
1FFF00
07FC00
ENDCHAR
STARTCHAR Uhornacute
ENCODING 7912
SWIDTH 856 0
DWIDTH 24 0
BBX 23 31 1 -3
BITMAP
000380
03FC40
040E40
0CF040
3C007E
3C0042
3C7FC2
3BBD0A
303E0A
702E12
F13E24
F13E24
F13E24
F13E24
F13E24
F13E24
F13E24
F13E24
F13E24
F13E24
F13E24
F11E24
F10044
F080C4
F07D04
F80008
FC0010
7FE3E0
7FFF80
3FFF00
07FC00
ENDCHAR
STARTCHAR uhornacute
ENCODING 7913
SWIDTH 856 0
DWIDTH 24 0
BBX 23 31 1 -3
BITMAP
000380
03FC40
040E40
0CF040
3C007E
3C0042
3C7FC2
3BBD0A
303E0A
702E12
F13E24
F13E24
F13E24
F13E24
F13E24
F13E24
F13E24
F13E24
F13E24
F13E24
F13E24
F11E24
F10044
F080C4
F07D04
F80008
FC0010
7FE3E0
7FFF80
3FFF00
07FC00
ENDCHAR
STARTCHAR Uhorngrave
ENCODING 7914
SWIDTH 856 0
DWIDTH 24 0
BBX 23 31 1 -3
BITMAP
07C000
087F80
19E080
381E40
78007E
7C0042
7FF842
783F8A
103E0A
703E12
F13E24
F13E24
F13E24
F13E24
F13E24
F13E24
F13E24
F13E24
F13E24
F13E24
F13E24
F11E24
F10044
F080C4
F07D04
F80008
FC0010
7FE3E0
7FFF80
3FFF00
07FC00
ENDCHAR
STARTCHAR uhorngrave
ENCODING 7915
SWIDTH 856 0
DWIDTH 24 0
BBX 23 31 1 -3
BITMAP
07C000
087F80
19E080
381E40
78007E
7C0042
7FF842
783F8A
103E0A
703E12
F13E24
F13E24
F13E24
F13E24
F13E24
F13E24
F13E24
F13E24
F13E24
F13E24
F13E24
F11E24
F10044
F080C4
F07D04
F80008
FC0010
7FE3E0
7FFF80
3FFF00
07FC00
ENDCHAR
STARTCHAR Uhornhookabove
ENCODING 7916
SWIDTH 856 0
DWIDTH 24 0
BBX 23 33 1 -3
BITMAP
007F00
008080
01BE40
078140
07FD40
07C140
07DE7E
01E0C2
03FFC2
0C3E0A
103E0A
702E12
F13E24
F13E24
F13E24
F13E24
F13E24
F13E24
F13E24
F13E24
F13E24
F13E24
F13E24
F11C24
F10044
F080C4
F07D04
F80008
FC0010
7FE3E0
7FFF80
3FFF00
07FC00
ENDCHAR
STARTCHAR uhornhookabove
ENCODING 7917
SWIDTH 856 0
DWIDTH 24 0
BBX 23 33 1 -3
BITMAP
007F00
008080
01BE40
078140
07FD40
07C140
07DE7E
01E0C2
03FFC2
0C3E0A
103E0A
702E12
F13E24
F13E24
F13E24
F13E24
F13E24
F13E24
F13E24
F13E24
F13E24
F13E24
F13E24
F11C24
F10044
F080C4
F07D04
F80008
FC0010
7FE3E0
7FFF80
3FFF00
07FC00
ENDCHAR
STARTCHAR Uhorntilde
ENCODING 7918
SWIDTH 856 0
DWIDTH 24 0
BBX 23 31 1 -3
BITMAP
03F980
040640
0C0040
1CFE40
3C007E
3C0042
3DE0C2
3A3F0A
303E0A
703E12
F13E24
F13E24
F13E24
F13E24
F13E24
F13E24
F13E24
F13E24
F13E24
F13E24
F13E24
F11E24
F10044
F080C4
F07D04
F80008
FC0010
7FE3E0
7FFF80
3FFF00
07FC00
ENDCHAR
STARTCHAR uhorntilde
ENCODING 7919
SWIDTH 856 0
DWIDTH 24 0
BBX 23 31 1 -3
BITMAP
03F980
040640
0C0040
1CFE40
3C007E
3C0042
3DE0C2
3A3F0A
303E0A
703E12
F13E24
F13E24
F13E24
F13E24
F13E24
F13E24
F13E24
F13E24
F13E24
F13E24
F13E24
F11E24
F10044
F080C4
F07D04
F80008
FC0010
7FE3E0
7FFF80
3FFF00
07FC00
ENDCHAR
STARTCHAR Uhorndotbelow
ENCODING 7920
SWIDTH 856 0
DWIDTH 24 0
BBX 23 33 1 -9
BITMAP
00003C
000042
0000C2
0FE10A
10220A
302612
F12E24
F13E24
F13E24
F13E24
F13E24
F13E24
F13E24
F13E24
F13E24
F13E24
F13E24
F13E24
F10C24
F10044
F08084
F87D08
FC0010
FF0020
7FFFC0
3F8080
1F8080
038880
038880
038100
03FE00
03FC00
03F800
ENDCHAR
STARTCHAR uhorndotbelow
ENCODING 7921
SWIDTH 856 0
DWIDTH 24 0
BBX 23 33 1 -9
BITMAP
00003C
000042
0000C2
0FE10A
10220A
302612
F12E24
F13E24
F13E24
F13E24
F13E24
F13E24
F13E24
F13E24
F13E24
F13E24
F13E24
F13E24
F10C24
F10044
F08084
F87D08
FC0010
FF0020
7FFFC0
3F8080
1F8080
038880
038880
038100
03FE00
03FC00
03F800
ENDCHAR
STARTCHAR Ygrave
ENCODING 7922
SWIDTH 805 0
DWIDTH 23 0
BBX 21 31 1 -3
BITMAP
03C000
043F80
0C0040
3CFE40
3C0040
3C0040
3FF840
307FB8
203E08
604E08
E25E48
E25E48
E25E48
E25E48
E23C48
F11C48
F11888
F88110
F84120
FC4220
7E3C40
7F0880
3F0880
1F8900
0F8900
0F8100
078100
078100
07FE00
07F800
07F000
ENDCHAR
STARTCHAR ygrave
ENCODING 7923
SWIDTH 805 0
DWIDTH 23 0
BBX 21 31 1 -3
BITMAP
03C000
043F80
0C0040
3CFE40
3C0040
3C0040
3FF840
307FB8
203E08
604E08
E25E48
E25E48
E25E48
E25E48
E23C48
F11C48
F11888
F88110
F84120
FC4220
7E3C40
7F0880
3F0880
1F8900
0F8900
0F8100
078100
078100
07FE00
07F800
07F000
ENDCHAR
STARTCHAR Ydotbelow
ENCODING 7924
SWIDTH 805 0
DWIDTH 23 0
BBX 21 31 1 -10
BITMAP
1FC3F8
204608
604E08
E25E48
E25E48
E25E48
E25E48
E23C48
F11C48
F11888
F88110
F84110
FC4220
7E3C40
7E0880
3F0880
1F8900
1F8900
0F8900
078100
078100
07FE00
078100
078100
038900
078900
078100
078300
07FC00
07F800
07F000
ENDCHAR
STARTCHAR ydotbelow
ENCODING 7925
SWIDTH 805 0
DWIDTH 23 0
BBX 21 31 1 -10
BITMAP
1FC3F8
204608
604E08
E25E48
E25E48
E25E48
E25E48
E23C48
F11C48
F11888
F88110
F84110
FC4220
7E3C40
7E0880
3F0880
1F8900
1F8900
0F8900
078100
078100
07FE00
078100
078100
038900
078900
078100
078300
07FC00
07F800
07F000
ENDCHAR
STARTCHAR Yhookabove
ENCODING 7926
SWIDTH 805 0
DWIDTH 23 0
BBX 21 33 1 -3
BITMAP
00FC00
010100
033C80
070280
0FFA80
0FC280
0FDC80
01C100
03DE00
1C7FF8
203E08
604E08
E25E48
E25E48
E25E48
E25E48
E23C48
F11C48
F11888
F88110
F84120
FC4220
7E3C40
7F0880
3F0880
1F8900
0F8900
0F8100
078100
078100
07FE00
07F800
07F000
ENDCHAR
STARTCHAR yhookabove
ENCODING 7927
SWIDTH 805 0
DWIDTH 23 0
BBX 21 33 1 -3
BITMAP
00FC00
010100
033C80
070280
0FFA80
0FC280
0FDC80
01C100
03DE00
1C7FF8
203E08
604E08
E25E48
E25E48
E25E48
E25E48
E23C48
F11C48
F11888
F88110
F84120
FC4220
7E3C40
7F0880
3F0880
1F8900
0F8900
0F8100
078100
078100
07FE00
07F800
07F000
ENDCHAR
STARTCHAR Ytilde
ENCODING 7928
SWIDTH 805 0
DWIDTH 23 0
BBX 21 30 1 -3
BITMAP
01FCC0
020320
040020
1C7E20
3C0040
3CE040
337FB8
203E08
603E08
E25E48
E25E48
E25E48
E25E48
E23C48
F11C48
F11888
F88110
F84120
FC4220
7E3C40
7F0880
3F0880
1F8900
0F8900
0F8100
078100
078100
07FE00
07F800
07F000
ENDCHAR
STARTCHAR ytilde
ENCODING 7929
SWIDTH 805 0
DWIDTH 23 0
BBX 21 30 1 -3
BITMAP
01FCC0
020320
040020
1C7E20
3C0040
3CE040
337FB8
203E08
603E08
E25E48
E25E48
E25E48
E25E48
E23C48
F11C48
F11888
F88110
F84120
FC4220
7E3C40
7F0880
3F0880
1F8900
0F8900
0F8100
078100
078100
07FE00
07F800
07F000
ENDCHAR
STARTCHAR enspace
ENCODING 8192
SWIDTH 500 0
DWIDTH 14 0
BBX 1 1 0 0
BITMAP
00
ENDCHAR
STARTCHAR emspace
ENCODING 8193
SWIDTH 1000 0
DWIDTH 28 0
BBX 1 1 0 0
BITMAP
00
ENDCHAR
STARTCHAR uni2002
ENCODING 8194
SWIDTH 500 0
DWIDTH 14 0
BBX 1 1 0 0
BITMAP
00
ENDCHAR
STARTCHAR uni2003
ENCODING 8195
SWIDTH 1000 0
DWIDTH 28 0
BBX 1 1 0 0
BITMAP
00
ENDCHAR
STARTCHAR space.tab_en
ENCODING 8199
SWIDTH 1100 0
DWIDTH 31 0
BBX 1 1 0 0
BITMAP
00
ENDCHAR
STARTCHAR uni2010
ENCODING 8208
SWIDTH 520 0
DWIDTH 15 0
BBX 14 10 0 4
BITMAP
0FF8
1004
3004
71E4
F004
F004
F804
FFF8
FFF0
7FC0
ENDCHAR
STARTCHAR figuredash
ENCODING 8210
SWIDTH 834 0
DWIDTH 23 0
BBX 21 10 1 4
BITMAP
0FFFF8
100008
300008
71FFC8
F00008
F00008
F80008
FFFFF0
FFFFE0
FFFF80
ENDCHAR
STARTCHAR endash
ENCODING 8211
SWIDTH 834 0
DWIDTH 23 0
BBX 21 10 1 4
BITMAP
0FFFF8
100008
300008
71FFC8
F00008
F00008
F80008
FFFFF0
FFFFE0
FFFF80
ENDCHAR
STARTCHAR emdash
ENCODING 8212
SWIDTH 1234 0
DWIDTH 35 0
BBX 32 10 1 4
BITMAP
0FFFFFFE
10000001
30000001
71FFFFF9
F0000001
F0000001
F8000001
FFFFFFFE
FFFFFFFC
FFFFFFF8
ENDCHAR
STARTCHAR horizontalbar
ENCODING 8213
SWIDTH 1234 0
DWIDTH 35 0
BBX 32 10 1 4
BITMAP
0FFFFFFE
10000001
30000001
71FFFFF9
F0000001
F0000001
F8000001
FFFFFFFE
FFFFFFFC
FFFFFFF8
ENDCHAR
STARTCHAR quoteleft
ENCODING 8216
SWIDTH 484 0
DWIDTH 14 0
BBX 12 14 1 7
BITMAP
07F0
0810
1190
33E0
7430
F410
F410
F390
F010
F010
F010
FFE0
FF80
FF00
ENDCHAR
STARTCHAR quoteright
ENCODING 8217
SWIDTH 484 0
DWIDTH 14 0
BBX 12 14 1 7
BITMAP
1FF0
3010
7010
F390
F050
F050
FF50
F050
F090
F320
7040
FF80
FF00
FC00
ENDCHAR
STARTCHAR quotesinglbase
ENCODING 8218
SWIDTH 484 0
DWIDTH 14 0
BBX 12 15 1 -6
BITMAP
0FE0
1010
3010
7390
F050
F050
F050
FF50
F090
F320
7020
FFC0
FF00
FE00
7800
ENDCHAR
STARTCHAR quotedblleft
ENCODING 8220
SWIDTH 784 0
DWIDTH 22 0
BBX 20 14 1 7
BITMAP
07E3F0
082410
1399D0
35FAE0
641210
E41210
E41210
E793D0
E01010
E01010
F01810
FFFFE0
FFFFC0
FF7F80
ENDCHAR
STARTCHAR quotedblright
ENCODING 8221
SWIDTH 784 0
DWIDTH 22 0
BBX 20 14 1 7
BITMAP
1FEFF0
201010
601010
E793D0
E05030
F05830
FF5FB0
F09850
F09850
F73B90
707820
FFFFC0
FF7F00
FC7E00
ENDCHAR
STARTCHAR quotedblbase
ENCODING 8222
SWIDTH 784 0
DWIDTH 22 0
BBX 20 15 1 -6
BITMAP
0FE7F0
101810
601010
E793D0
E05030
E05030
F05830
FF5FD0
F09850
F71B90
703820
FFFFC0
FF7F80
FE7F00
707800
ENDCHAR
STARTCHAR dagger
ENCODING 8224
SWIDTH 818 0
DWIDTH 23 0
BBX 21 24 1 -3
BITMAP
007F00
008100
018100
078900
078900
1989F8
300808
700808
F3FFC8
F00808
F00808
FFC9F8
FFC9F0
FFC9C0
C38980
038900
038900
038900
078100
078100
078100
07FE00
07F800
07F000
ENDCHAR
STARTCHAR daggerdbl
ENCODING 8225
SWIDTH 818 0
DWIDTH 23 0
BBX 21 24 1 -3
BITMAP
007F00
018100
0F81F8
100808
300808
F3FFC8
F00808
F00808
FFC9F8
FF89F0
FF89C0
CFC9F8
100808
700808
F3FFC8
F00808
F00808
F08988
FF81F0
FF81E0
FF81C0
07FE00
07F800
07F000
ENDCHAR
STARTCHAR bullet
ENCODING 8226
SWIDTH 543 0
DWIDTH 15 0
BBX 14 14 1 2
BITMAP
0FF8
1004
6004
E3E4
E224
E224
E224
E3E4
E004
E004
F00C
FFF0
FFE0
FFC0
ENDCHAR
STARTCHAR ellipsis
ENCODING 8230
SWIDTH 1210 0
DWIDTH 34 0
BBX 32 12 1 -3
BITMAP
0FE3F8FE
10140501
301C0301
711C4311
F11C4311
F11C4311
F01C0301
F01C0301
F01C0781
FFFFFFFE
FFBFEFF8
FF3FCFF0
ENDCHAR
STARTCHAR perthousand
ENCODING 8240
SWIDTH 1517 0
DWIDTH 42 0
BBX 43 24 0 -3
BITMAP
07F87E000000
09F4C2000000
1A0B82000000
320B92000000
72CB94000000
72CBA4000000
F2CB24000000
F2CB24000000
F24B29782F80
F20B4A064040
F9F24CF19E20
7C0649092120
7FFE492524A0
7FFE99652CA0
3FDC99652CA0
001C99652CA0
001C99652CA0
003CB9092120
003838A11420
00383C038040
003FFF0FF180
007FFFFFFF00
007F3FE7FC00
007C1FC3F800
ENDCHAR
STARTCHAR minute
ENCODING 8242
SWIDTH 456 0
DWIDTH 13 0
BBX 11 14 1 7
BITMAP
0FE0
1020
3020
F120
F120
F120
F120
F120
F020
F020
F020
FFC0
FF00
FE00
ENDCHAR
STARTCHAR second
ENCODING 8243
SWIDTH 766 0
DWIDTH 21 0
BBX 20 14 1 7
BITMAP
0FEFF0
101810
301810
F11890
F11890
F11910
F13910
F13910
F03810
F03010
F03820
FFFFC0
FF7F80
FE7F00
ENDCHAR
STARTCHAR guilsinglleft
ENCODING 8249
SWIDTH 663 0
DWIDTH 19 0
BBX 16 17 1 0
BITMAP
003F
03C1
0401
0839
11C1
7201
721E
F23C
F203
F101
F0F9
F801
FE01
FFF1
7FFE
3FFC
01F8
ENDCHAR
STARTCHAR guilsinglright
ENCODING 8250
SWIDTH 663 0
DWIDTH 19 0
BBX 16 17 2 0
BITMAP
1F80
2078
6004
E382
E071
F009
FF09
FFC9
F009
2019
63E1
E002
E00C
E1F0
FFE0
FFC0
F800
ENDCHAR
STARTCHAR fraction
ENCODING 8260
SWIDTH 417 0
DWIDTH 12 0
BBX 12 24 0 -3
BITMAP
03F0
0210
0E10
1C50
1C90
1C90
1C90
3C90
3CA0
3920
3920
3920
7920
7940
7140
7240
7240
F240
F040
E080
F080
FF00
FC00
F800
ENDCHAR
STARTCHAR zero.sups
ENCODING 8304
SWIDTH 656 0
DWIDTH 18 0
BBX 15 18 1 3
BITMAP
07FC
1802
23F2
640A
64EA
E5EA
E5EA
E5EA
E5EA
E5EA
E5EA
E40A
E40A
E2D2
F006
7F38
7FF0
1FC0
ENDCHAR
STARTCHAR foursuperior
ENCODING 8308
SWIDTH 608 0
DWIDTH 17 0
BBX 15 18 1 3
BITMAP
1FBE
20E2
64EA
E4EA
E4EA
E4EA
E4EA
E40A
E40A
F3FA
F00A
FC0A
FFEA
FFE2
7FE2
01FC
01F8
01F0
ENDCHAR
STARTCHAR five.sups
ENCODING 8309
SWIDTH 593 0
DWIDTH 17 0
BBX 15 18 1 3
BITMAP
1FFE
3002
73F2
F202
F27C
F204
F202
F3F2
F00A
FFCA
FFCA
F00A
73F2
F002
F004
FFF8
FFE0
FFC0
ENDCHAR
STARTCHAR six.sups
ENCODING 8310
SWIDTH 628 0
DWIDTH 18 0
BBX 16 19 1 2
BITMAP
07FE
0802
11F2
3202
72FC
F286
F201
F369
F205
F2E5
F2E5
F265
F205
F179
F802
FFFC
7FF0
7FE0
1F80
ENDCHAR
STARTCHAR seven.sups
ENCODING 8311
SWIDTH 577 0
DWIDTH 16 0
BBX 15 18 0 3
BITMAP
0FFE
1002
33FA
F00A
FFEA
FFEA
FF0A
020A
0472
0C84
1C98
3CB0
3CA0
3C20
3C20
3FC0
3F80
3F00
ENDCHAR
STARTCHAR eight.sups
ENCODING 8312
SWIDTH 638 0
DWIDTH 18 0
BBX 16 19 1 2
BITMAP
03FC
0C02
0951
3209
7269
7AE9
7E0A
71F9
7205
7445
F4F5
F4E5
F205
F1F9
F802
FFFC
FFF8
7FF0
0F80
ENDCHAR
STARTCHAR nine.sups
ENCODING 8313
SWIDTH 628 0
DWIDTH 18 0
BBX 16 18 1 3
BITMAP
07FC
0802
1151
3209
74E5
F4E5
F465
F209
F1D5
F805
FFE5
F805
7809
19E2
7804
7FF8
7FF0
7FC0
ENDCHAR
STARTCHAR parenleft.sups
ENCODING 8317
SWIDTH 434 0
DWIDTH 12 0
BBX 10 21 1 2
BITMAP
0580
1840
2340
6440
E880
E900
E900
E900
E900
E900
E900
E900
E900
E900
E880
E440
E340
F040
FEC0
7F00
3E00
ENDCHAR
STARTCHAR parenright.sups
ENCODING 8318
SWIDTH 435 0
DWIDTH 12 0
BBX 10 21 1 2
BITMAP
1A00
2180
6840
E240
E140
F940
F940
3940
3940
3940
3940
3940
3940
3940
3940
2240
6840
E080
E700
FC00
F800
ENDCHAR
STARTCHAR n.sups
ENCODING 8319
SWIDTH 673 0
DWIDTH 19 0
BBX 16 17 1 4
BITMAP
07FC
1802
11F1
6609
6445
E4E5
E4E5
E4E5
E4E5
E4E5
E4E5
E4E5
E4E5
E0E1
E1E1
FEFE
FCFC
ENDCHAR
STARTCHAR zero.sinf
ENCODING 8320
SWIDTH 656 0
DWIDTH 18 0
BBX 15 18 1 -3
BITMAP
07FC
1802
23F2
640A
64EA
E5EA
E5EA
E5EA
E5EA
E5EA
E5EA
E40A
E40A
E2D2
F006
7F38
7FF0
1FC0
ENDCHAR
STARTCHAR one.sinf
ENCODING 8321
SWIDTH 557 0
DWIDTH 16 0
BBX 14 18 1 -3
BITMAP
1FF0
3010
7390
F090
FE90
FE90
FE90
1E90
1E90
1E90
1E9C
1084
3084
F7F4
F004
FFF8
FFF0
FFE0
ENDCHAR
STARTCHAR two.sinf
ENCODING 8322
SWIDTH 585 0
DWIDTH 16 0
BBX 16 18 0 -3
BITMAP
0FFC
0802
39F1
7809
7FE5
7FC5
7E09
08F2
1904
3238
727E
7201
F3FD
F001
F001
FFFE
FFFC
FFF0
ENDCHAR
STARTCHAR three.sinf
ENCODING 8323
SWIDTH 584 0
DWIDTH 16 0
BBX 15 18 1 -3
BITMAP
1FF0
3008
77C4
F024
FF94
FF14
F82C
79F2
380A
7FCA
7FCA
700A
77F2
F002
F004
FFF8
FFE0
FFC0
ENDCHAR
STARTCHAR four.sinf
ENCODING 8324
SWIDTH 620 0
DWIDTH 17 0
BBX 16 18 0 -3
BITMAP
0F9F
10A1
3265
F265
F265
F265
F265
F205
F205
F1FD
F805
FE05
FFE5
7FE1
3FE1
01FE
01FC
01F8
ENDCHAR
STARTCHAR five.sinf
ENCODING 8325
SWIDTH 593 0
DWIDTH 17 0
BBX 15 18 1 -3
BITMAP
1FFE
3002
73F2
F202
F27C
F204
F202
F3F2
F00A
FFCA
FFCA
F00A
73F2
F002
F004
FFF8
FFE0
FFC0
ENDCHAR
STARTCHAR six.sinf
ENCODING 8326
SWIDTH 628 0
DWIDTH 18 0
BBX 16 19 1 -4
BITMAP
07FE
0802
11F2
3202
72FC
F286
F201
F369
F205
F2E5
F2E5
F265
F205
F179
F802
FFFC
7FF0
7FE0
1F80
ENDCHAR
STARTCHAR seven.sinf
ENCODING 8327
SWIDTH 577 0
DWIDTH 16 0
BBX 15 18 0 -3
BITMAP
0FFE
1002
33FA
F00A
FFEA
FFEA
FF0A
020A
0472
0C84
1C98
3CB0
3CA0
3C20
3C20
3FC0
3F80
3F00
ENDCHAR
STARTCHAR eight.sinf
ENCODING 8328
SWIDTH 638 0
DWIDTH 18 0
BBX 16 19 1 -4
BITMAP
03FC
0C02
0951
3209
7269
7AE9
7E0A
71F9
7205
7445
F4F5
F4E5
F205
F1F9
F802
FFFC
FFF8
7FF0
0F80
ENDCHAR
STARTCHAR nine.sinf
ENCODING 8329
SWIDTH 628 0
DWIDTH 18 0
BBX 16 18 1 -3
BITMAP
07FC
0802
1151
3209
74E5
F4E5
F465
F209
F1D5
F805
FFE5
F805
7809
19E2
7804
7FF8
7FF0
7FC0
ENDCHAR
STARTCHAR parenleft.sinf
ENCODING 8333
SWIDTH 434 0
DWIDTH 12 0
BBX 10 21 1 -4
BITMAP
0580
1840
2340
6440
E880
E900
E900
E900
E900
E900
E900
E900
E900
E900
E880
E440
E340
F040
FEC0
7F00
3E00
ENDCHAR
STARTCHAR parenright.sinf
ENCODING 8334
SWIDTH 435 0
DWIDTH 12 0
BBX 10 21 1 -4
BITMAP
1A00
2180
6840
E240
E140
F940
F940
3940
3940
3940
3940
3940
3940
3940
3940
2240
6840
E080
E700
FC00
F800
ENDCHAR
STARTCHAR colonsign
ENCODING 8353
SWIDTH 728 0
DWIDTH 20 0
BBX 19 27 1 -5
BITMAP
007300
008C80
018CC0
022220
042220
08FF20
110020
310020
710060
F13F80
F13F00
F13E00
F12000
F12000
F12000
F11FC0
F10020
F10020
F8BF20
F82220
FE2220
7F8CC0
7F8C80
1FDD00
07FE00
07FC00
03B800
ENDCHAR
STARTCHAR lira
ENCODING 8356
SWIDTH 795 0
DWIDTH 22 0
BBX 22 24 0 -3
BITMAP
00FFE0
030020
040020
0C3F20
18C020
388020
388FC0
788F00
73E200
708400
F88800
F085F8
F3E204
708204
F88E24
F88024
F88024
78FFE4
780004
780004
7C0004
7FFFF8
7FFFE0
7FFFC0
ENDCHAR
STARTCHAR naira
ENCODING 8358
SWIDTH 853 0
DWIDTH 24 0
BBX 24 24 0 -3
BITMAP
07E0FE
081102
180B02
388712
78C312
78A312
789112
788892
730419
708211
F89112
F09091
F31899
709C51
F89E22
F89F12
F89F12
789F12
781F02
781F02
7C1F86
7FEFF8
7F8FF0
7F0FE0
ENDCHAR
STARTCHAR peseta
ENCODING 8359
SWIDTH 812 0
DWIDTH 23 0
BBX 23 24 0 -3
BITMAP
07FFE0
080010
180008
78FF84
788044
788024
709E22
719E32
F09E22
F09E22
F88024
F88044
F8FE88
788008
788030
788FC0
788F80
788E00
781000
781000
7C1000
7FE000
7F8000
7F0000
ENDCHAR
STARTCHAR dong
ENCODING 8363
SWIDTH 782 0
DWIDTH 22 0
BBX 22 29 0 -8
BITMAP
0003F0
000410
001C18
004084
00CFE4
01E084
01FC98
01FC90
020090
0CFF90
090090
310090
713C90
713C90
713C90
F13C90
F10090
F88110
F87A20
FE0040
7FFF80
7FFF80
3C0020
0CFF20
1C0020
3C0040
3FFF80
3FFF00
3FFE00
ENDCHAR
STARTCHAR Euro
ENCODING 8364
SWIDTH 748 0
DWIDTH 21 0
BBX 20 24 0 -3
BITMAP
00FFF0
010010
020010
043FD0
1C4010
388FF0
308060
308040
33FE40
708040
F88F80
F08040
F3FE40
708040
F88040
F887F0
FC4010
3C3FD0
3C0010
3E0010
3FE010
3FFFE0
1FFFC0
07FF80
ENDCHAR
STARTCHAR peso
ENCODING 8369
SWIDTH 812 0
DWIDTH 23 0
BBX 23 24 0 -3
BITMAP
07FFE0
080010
180008
38FF84
788044
708022
719E32
709E22
F89E24
F09E22
F18032
708042
F8FF84
F88008
F88030
788FC0
788F80
788F00
781000
781000
7C1000
7FE000
7F8000
7F0000
ENDCHAR
STARTCHAR guarani
ENCODING 8370
SWIDTH 788 0
DWIDTH 22 0
BBX 20 27 1 -4
BITMAP
007E00
008100
018100
0381C0
040820
080820
10BF20
310020
710020
F23FC0
F23F00
F23FE0
F22410
F22C10
F23C10
F23C90
F23C90
F10090
F10090
F8FF90
FC0810
7F0810
7F81E0
3F81C0
0FFF00
07FC00
07F000
ENDCHAR
STARTCHAR cedi
ENCODING 8373
SWIDTH 728 0
DWIDTH 20 0
BBX 19 27 1 -5
BITMAP
007E00
008100
0181C0
020820
040820
08BF20
110020
310020
710060
F13F80
F13F00
F13E00
F12000
F12000
F12000
F11FC0
F10020
F10020
F8BF20
F80820
FE0820
7F81C0
3F8180
1FC300
07FC00
07F800
03F000
ENDCHAR
STARTCHAR indianrupee
ENCODING 8377
SWIDTH 713 0
DWIDTH 20 0
BBX 18 24 1 -3
BITMAP
1FFFC0
300040
73FF40
F00840
FF88C0
FFC8C0
F00840
73FF40
F00840
FFC9C0
F00B00
F00880
73FC40
F00240
F00240
FFF240
FFF240
FFF240
01F040
00F040
00F040
00FF80
00FF00
00FE00
ENDCHAR
STARTCHAR turkishlira
ENCODING 8378
SWIDTH 795 0
DWIDTH 22 0
BBX 22 24 0 -3
BITMAP
0FF000
181000
381000
789000
789C00
788400
73E400
749800
F09400
F884F8
F3E504
F49B04
709704
F89F24
F89E24
F89E24
788044
78FE88
780010
780020
7800C0
7FFF80
7FFF00
7FFC00
ENDCHAR
STARTCHAR ruble
ENCODING 8381
SWIDTH 782 0
DWIDTH 22 0
BBX 22 24 0 -3
BITMAP
07FFE0
080010
180008
38FE84
788044
788024
789E24
789E24
789E24
788024
788044
78FE88
788010
788020
788FC0
708300
73E200
708400
F80C00
F81000
FC1000
FFE000
7F8000
7F0000
ENDCHAR
STARTCHAR liter
ENCODING 8467
SWIDTH 749 0
DWIDTH 21 0
BBX 19 24 1 -3
BITMAP
03FF00
040080
087840
108620
310120
713120
F13120
F13120
F13120
F12120
F10120
F1FE20
F10040
F10180
F13E00
F11F00
F10080
F18080
F87C80
F80080
FE0080
7FFF00
7FFE00
1FFC00
ENDCHAR
STARTCHAR uni2117
ENCODING 8471
SWIDTH 967 0
DWIDTH 27 0
BBX 25 29 1 -6
BITMAP
00FFF800
03776600
05801D00
0A7FE280
14FFFA80
35807D80
75801D80
F59F8D80
F5904D80
F5972D80
F5972D80
F5972D80
F5902D80
F590CD80
F59F0D80
F5903D80
F597FD80
F597BD80
F5863D80
F5843D80
F5F83D80
F4E03A80
FA3FE500
FDE03900
7E1FC600
7FF8F800
3FFFF000
0FFFC000
03FE0000
ENDCHAR
STARTCHAR uni2120
ENCODING 8480
SWIDTH 1003 0
DWIDTH 28 0
BBX 27 16 0 5
BITMAP
03F9E1E0
0C061220
09F64CA0
32066560
72FE5260
720E4A60
F1C64460
F8325260
FF125260
FFD25E60
70125E60
33E61E20
700E1E20
FFFFFFC0
FFDF9F80
FF9F1F00
ENDCHAR
STARTCHAR trademark
ENCODING 8482
SWIDTH 1003 0
DWIDTH 28 0
BBX 27 16 0 5
BITMAP
0FF9E1E0
10021220
77FA4CA0
F0826560
FE9E5260
FE9E4A60
FE9E4460
FE9E5260
1E9E5260
1E9E5E60
1E9E5E60
1E1E1E20
1E1E1E20
1FFFFFC0
1F9F9F80
1F1F1F00
ENDCHAR
STARTCHAR Omega
ENCODING 8486
SWIDTH 877 0
DWIDTH 25 0
BBX 24 24 0 -3
BITMAP
007FF0
018008
020004
043FC2
0C4022
188012
388F12
388F12
388F12
388F12
389712
389712
389712
389712
3C9712
3C8F12
304621
302641
71C639
F00601
F00601
FFFFFE
FFFFFC
FFDFF8
ENDCHAR
STARTCHAR estimated
ENCODING 8494
SWIDTH 815 0
DWIDTH 23 0
BBX 21 24 1 -3
BITMAP
01FFC0
060020
080010
10FF88
310048
720048
F23C48
F23E48
F20048
F20048
F3FFC8
F20008
F20008
F23FF8
F23FE0
F21FC0
F10020
F18020
F87F20
F80020
FE0020
7FFFC0
3FFF80
1FFF00
ENDCHAR
STARTCHAR onethird
ENCODING 8531
SWIDTH 1269 0
DWIDTH 36 0
BBX 34 24 1 -3
BITMAP
1FF07E0000
1010820000
7391820000
F093920000
FE93920000
FE9793FE00
FE97920100
FE97220080
1E97267C80
1E97260280
1E9F27F280
108327F280
3082270380
77F24F3E40
F0024F0140
FFFE4FF940
FFFE4FF940
FFFE560140
001C167E40
001C1E0040
001E3E0180
003FDFFE00
003F9FFC00
003F1FF800
ENDCHAR
STARTCHAR twothirds
ENCODING 8532
SWIDTH 1269 0
DWIDTH 36 0
BBX 35 24 0 -3
BITMAP
07FC3F0000
0802410000
19F1C10000
7809C90000
7FE5C90000
7FC5C9FF00
7E09C90080
7831910040
09C7933E40
123B930140
327F93F940
720193F940
72011381C0
F1FD259F20
F0012780A0
FFFF27FCA0
FFFF27FCA0
FFFF2B00A0
000E0B3F20
000E0F0020
000F1F00C0
001FEFFF00
001FCFFE00
001F8FFC00
ENDCHAR
STARTCHAR oneeighth
ENCODING 8539
SWIDTH 1283 0
DWIDTH 36 0
BBX 34 24 1 -3
BITMAP
1FF07E0000
3010820000
7391820000
F093920000
FE93920000
FE9792FA00
FE97950180
1E97225480
1E97268240
1E97269940
1E9F269940
1083278280
77F2267E40
F0024C8140
F0024D1140
FFFE4D3D40
FFFE4D3D40
FFFE4C8140
001C0C7A40
001C1C0040
001E1F0180
003FFFFE00
003FBFFC00
003F0FF000
ENDCHAR
STARTCHAR threeeighths
ENCODING 8540
SWIDTH 1293 0
DWIDTH 36 0
BBX 35 24 1 -3
BITMAP
1FF07E0000
3008C10000
77C5C20000
F0278A0000
FF97920000
FF97925F00
F82F938080
19F3927A40
3809128140
7FC9269940
7FC9269940
7009278180
77F3267E40
F003248120
F00E4488A0
FFFE4CBCA0
FFEE4CBCA0
FFDE4C8120
001E0C5E20
001C0E0040
001E1F0180
001FFFFE00
003F9FFC00
001F0FF000
ENDCHAR
STARTCHAR fiveeighths
ENCODING 8541
SWIDTH 1303 0
DWIDTH 36 0
BBX 35 24 1 -3
BITMAP
1FFE3F0000
3002410000
73F2C10000
F203C90000
F27F8A0000
F207925D00
F203938080
F3F1922A40
F009924140
FFC9925D40
FFC9225D40
F0092741C0
73F1263E40
F00324C120
F00F2498A0
FFFE249CA0
FFEE4C9CA0
FFCE4C8120
001E0C7E20
001E0E0040
001E1F8080
001FFFFF00
001FDFFC00
001F07F800
ENDCHAR
STARTCHAR seveneighths
ENCODING 8542
SWIDTH 1241 0
DWIDTH 35 0
BBX 34 24 0 -3
BITMAP
0FFF7E0000
1001820000
33F9820000
F009920000
FFE9920000
FFE994FA00
FF89250180
0219265480
0463248240
0C8724BA40
1CBF24BA80
3CAE278280
3CAE4C7E40
3C2E4C8140
3C3E4D1140
3FDE493940
3F1E493940
3E1C888140
001C1C7E40
001C1C0040
003C1F0180
003FFFFE00
003FBFFC00
003F0FF000
ENDCHAR
STARTCHAR arrowleft
ENCODING 8592
SWIDTH 1100 0
DWIDTH 31 0
BBX 22 20 4 -1
BITMAP
000300
000480
001880
002080
00C080
010C88
021474
0C6404
1087F4
30C404
782404
FE1CE4
FF04F8
7FC0F0
1FE0E0
0FF880
03FC80
01FF00
007C00
003800
ENDCHAR
STARTCHAR arrowup
ENCODING 8593
SWIDTH 1100 0
DWIDTH 31 0
BBX 21 21 5 -2
BITMAP
003C00
006200
00C100
018100
019880
031440
062240
064220
0C4110
183E10
180808
380808
7FC9F0
7FC9E0
FFC980
03C100
03C100
03C100
03FE00
03F800
03F000
ENDCHAR
STARTCHAR arrowright
ENCODING 8594
SWIDTH 1100 0
DWIDTH 31 0
BBX 22 20 5 -1
BITMAP
006000
009800
018400
038200
078180
0F8840
100E30
200908
63F8C4
E00884
E00B08
F18C30
FF8840
FF8080
FF8300
078400
079800
07E000
07C000
070000
ENDCHAR
STARTCHAR arrowdown
ENCODING 8595
SWIDTH 1100 0
DWIDTH 31 0
BBX 21 21 5 -2
BITMAP
007F00
00C100
03C900
03C900
03C900
0FC9F0
100808
380808
78FF10
FC4120
7E2220
7E2440
3F1480
1F8880
1F8100
0FC200
07E200
07E400
03F800
01E000
01C000
ENDCHAR
STARTCHAR arrowupleft
ENCODING 8598
SWIDTH 1100 0
DWIDTH 31 0
BBX 19 19 6 -1
BITMAP
0F8000
107C00
3003C0
718020
F17440
F90880
F91100
F92200
795100
788880
7C0440
7C1220
7C3020
3C7840
3FFC80
3EFF00
3C7C00
383800
001000
ENDCHAR
STARTCHAR arrowupright
ENCODING 8599
SWIDTH 1100 0
DWIDTH 31 0
BBX 19 19 6 -1
BITMAP
0007C0
00F820
070020
080320
383D20
7C4120
FE2240
7F1240
3E2A40
1C4440
088040
111080
303880
787C80
FCFE80
FF7F00
7E3C00
3C1800
100000
ENDCHAR
STARTCHAR arrowdownright
ENCODING 8600
SWIDTH 1100 0
DWIDTH 31 0
BBX 19 19 6 -1
BITMAP
030100
048280
084480
102880
311080
788240
FC4640
FE2A40
7F1240
3E2240
1C4120
083F20
180020
3F0020
7FF820
FFFFC0
3FFF80
00FF00
000400
ENDCHAR
STARTCHAR arrowdownleft
ENCODING 8601
SWIDTH 1100 0
DWIDTH 31 0
BBX 19 19 6 -1
BITMAP
010300
068480
044840
1C3120
3C1220
388440
38C880
38B100
391100
790880
710440
71F820
700020
7001C0
F07F00
FFFE00
FFF800
FF0000
600000
ENDCHAR
STARTCHAR uni21AA
ENCODING 8618
SWIDTH 1100 0
DWIDTH 31 0
BBX 24 27 4 -5
BITMAP
017FF8
060008
083FC8
18C008
310008
723FF0
727FE0
F27FC0
F27380
F27100
F270C0
F27820
F27818
F20084
F10142
F87F31
F80161
FE0086
7FF808
7FF810
1FF860
007080
007300
007C00
00F800
00E000
004000
ENDCHAR
STARTCHAR uni21AB
ENCODING 8619
SWIDTH 1100 0
DWIDTH 31 0
BBX 23 27 4 -5
BITMAP
03FFD0
04000C
0C7FC2
1C0022
3C0012
3FFF8A
3FFFCA
1FFFCA
1FF9CA
0011CA
0061CA
0083CA
0303CA
04200A
085012
119FC2
70D004
FC2008
FE03F0
FF03E0
7FC180
1FE200
0FF900
03FE00
01F800
007000
002000
ENDCHAR
STARTCHAR uni21B0
ENCODING 8624
SWIDTH 1100 0
DWIDTH 31 0
BBX 23 23 3 -3
BITMAP
000700
000900
003100
004100
018200
0209F8
043804
184F82
38C872
7C380A
FE09CA
7F81CA
3FC1CA
1FF1CA
07F8CA
03FFCA
00FFCA
007BC2
0013C2
0003C2
0003FC
0003F8
0003F0
ENDCHAR
STARTCHAR uni21B1
ENCODING 8625
SWIDTH 1100 0
DWIDTH 31 0
BBX 22 23 5 -3
BITMAP
003800
006600
00E100
01E0C0
01F020
038218
0C0304
107E84
3182C4
720308
E47210
E4F020
E4E0C0
E4E100
E4E600
E4F800
E4F000
E0C000
E08000
F08000
FF0000
FC0000
F80000
ENDCHAR
STARTCHAR uni21B2
ENCODING 8626
SWIDTH 1100 0
DWIDTH 31 0
BBX 23 23 3 -3
BITMAP
00003E
000042
0000C2
0001CA
0003CA
0004CA
0018CA
0021CA
00C1CA
0101CA
06100A
086812
10CFE2
382804
7C1808
FF01F0
7F81E0
3FE180
0FF100
07FD00
01FE00
00FC00
003800
ENDCHAR
STARTCHAR uni21B3
ENCODING 8627
SWIDTH 1100 0
DWIDTH 31 0
BBX 23 23 4 -3
BITMAP
1F8000
308000
708000
F28000
F28800
F2B400
F26300
F27080
F27060
F27010
F2010C
F10282
F8FE62
F80282
FE030C
7FF010
7FF020
3FF0C0
00E100
00E600
00F800
01F000
01C000
ENDCHAR
STARTCHAR partialdiff
ENCODING 8706
SWIDTH 792 0
DWIDTH 22 0
BBX 20 25 1 -4
BITMAP
03FF00
0400C0
0C0020
3CFF10
3C0090
3C0090
3FF890
3FFC90
3C0090
180090
107F90
310090
720090
F23C90
F23C90
F23C90
F20090
F10090
F0FF10
F80020
FC0040
FFFF80
7FFF00
3FFE00
07E000
ENDCHAR
STARTCHAR Delta
ENCODING 8710
SWIDTH 830 0
DWIDTH 23 0
BBX 21 24 1 -3
BITMAP
01FF00
020040
060020
0E3E20
1C4120
1C8120
1C8910
3C9890
389890
389C90
391C88
791C48
713C48
713E48
723E48
F23E48
F20048
F20048
F1FF88
F00008
F00008
FFFFF0
FFFFE0
FFFFC0
ENDCHAR
STARTCHAR product
ENCODING 8719
SWIDTH 859 0
DWIDTH 24 0
BBX 22 24 1 -3
BITMAP
0FFFF8
100004
300004
71FFC4
F10024
F10024
F11E24
F11E24
F11E24
F11E24
F11E24
F11E24
F11E24
F11E24
F11E24
F11E24
F11E24
F11E24
F01E04
F01E04
F03E04
FFDFF8
FF9FF0
FE1FC0
ENDCHAR
STARTCHAR summation
ENCODING 8721
SWIDTH 750 0
DWIDTH 21 0
BBX 19 27 1 -6
BITMAP
0FFFC0
100020
300020
71FF20
F20020
F20020
F10FC0
F08780
F84300
FE2100
FF1080
7F8880
3F8880
1F1100
062100
044200
088400
111800
3207E0
720020
F3FFA0
F00020
F00020
F00020
FFFFC0
FFFF80
FFFF00
ENDCHAR
STARTCHAR minus
ENCODING 8722
SWIDTH 834 0
DWIDTH 23 0
BBX 21 9 1 4
BITMAP
0FFFF8
100008
31FFC8
700008
F00008
FFFFF8
FFFFF0
FFFFC0
7FFF80
ENDCHAR
STARTCHAR uni2215
ENCODING 8725
SWIDTH 417 0
DWIDTH 12 0
BBX 12 24 0 -3
BITMAP
03F0
0210
0E10
1C50
1C90
1C90
1C90
3C90
3CA0
3920
3920
3920
7920
7940
7140
7240
7240
F240
F040
E080
F080
FF00
FC00
F800
ENDCHAR
STARTCHAR uni2219
ENCODING 8729
SWIDTH 464 0
DWIDTH 13 0
BBX 11 12 1 3
BITMAP
0FE0
1020
6020
E120
E120
E120
E020
E020
F020
FFC0
FF80
FF00
ENDCHAR
STARTCHAR radical
ENCODING 8730
SWIDTH 841 0
DWIDTH 24 0
BBX 24 26 0 -3
BITMAP
00007F
0000C1
000181
000389
000392
000392
000792
000712
0FE722
101724
301F24
718E24
F04E24
F04648
F84648
FE2648
FF2048
FF2090
1F1090
0F9090
0F8F10
0F8020
07C020
07FFC0
07FF80
03FE00
ENDCHAR
STARTCHAR infinity
ENCODING 8734
SWIDTH 978 0
DWIDTH 27 0
BBX 26 18 1 0
BITMAP
07FDFF00
08020080
11F8FC40
32050240
72060240
E2727240
E2727240
E2727240
E2727240
E2727240
E2222240
F2050240
F1F8FC40
F0000080
FC070100
FFFFFE00
FFFFFC00
3FDFF000
ENDCHAR
STARTCHAR integral
ENCODING 8747
SWIDTH 574 0
DWIDTH 16 0
BBX 16 29 0 -6
BITMAP
007F
0081
0109
0231
0E21
0E41
1E46
1E44
1E44
1E44
1E44
1E44
1E44
1E44
1E44
1E44
1E44
1E44
1E44
1E44
1044
3048
7388
F008
F030
FBC0
FF80
FF00
FC00
ENDCHAR
STARTCHAR approxequal
ENCODING 8776
SWIDTH 834 0
DWIDTH 23 0
BBX 21 18 1 0
BITMAP
07BC38
0803C8
100008
33FFC8
700008
F00008
FFFE70
FFFFC0
FFFFB0
6800C8
100008
31FE08
7001C8
F00008
FBFC30
FFFFE0
FFFF80
E0FF00
ENDCHAR
STARTCHAR notequal
ENCODING 8800
SWIDTH 834 0
DWIDTH 23 0
BBX 21 23 1 -3
BITMAP
001F80
002080
07E0F0
180408
300408
71FFC8
F00408
F00808
FFC9F0
FFC9E0
FFC9C0
780838
100808
301008
71FFC8
F01008
F81008
FF83F0
FF03E0
FFFF80
07F000
0FE000
078000
ENDCHAR
STARTCHAR lessequal
ENCODING 8804
SWIDTH 814 0
DWIDTH 23 0
BBX 19 24 2 -3
BITMAP
0001E0
000E20
00F020
070120
080E20
10F020
330040
620780
E27F00
E23C00
E20700
F100C0
F0F020
F80E20
FF0120
FFF020
700020
600020
E3FF20
E00020
F00020
FFFFC0
FFFF80
FFFF00
ENDCHAR
STARTCHAR greaterequal
ENCODING 8805
SWIDTH 814 0
DWIDTH 23 0
BBX 19 24 2 -3
BITMAP
1E0000
31E000
701C00
F20380
F1E040
F01C20
FC0320
FFC0A0
FFF8A0
7FF8A0
0780A0
080320
103C20
31C040
720180
F03FC0
F00020
F00020
F3FF20
F00020
F00020
FFFFC0
FFFF80
FFFF00
ENDCHAR
STARTCHAR block
ENCODING 9608
SWIDTH 1000 0
DWIDTH 28 0
BBX 30 30 -1 -5
BITMAP
FFFFFFFC
FFFFFFFC
FFFFFFFC
FFFFFFFC
FFFFFFFC
FFFFFFFC
FFFFFFFC
FFFFFFFC
FFFFFFFC
FFFFFFFC
FFFFFFFC
FFFFFFFC
FFFFFFFC
FFFFFFFC
FFFFFFFC
FFFFFFFC
FFFFFFFC
FFFFFFFC
FFFFFFFC
FFFFFFFC
FFFFFFFC
FFFFFFFC
FFFFFFFC
FFFFFFFC
FFFFFFFC
FFFFFFFC
FFFFFFFC
FFFFFFFC
FFFFFFFC
FFFFFFFC
ENDCHAR
STARTCHAR blacksquare
ENCODING 9632
SWIDTH 1100 0
DWIDTH 31 0
BBX 17 16 7 1
BITMAP
0FFF00
100080
300080
700080
F0F880
F10880
F10880
F10880
F10880
F0F080
F00080
F00080
F00080
FFFF00
FFFE00
FFF800
ENDCHAR
STARTCHAR blackuppointingtriangle
ENCODING 9650
SWIDTH 1100 0
DWIDTH 31 0
BBX 20 16 6 1
BITMAP
003800
004400
008400
018200
030200
070100
061080
0C2880
0C4840
187C40
380020
300010
700010
7FFFE0
FFFF80
FFFF00
ENDCHAR
STARTCHAR whiteuppointingtriangle
ENCODING 9651
SWIDTH 1100 0
DWIDTH 31 0
BBX 16 13 9 4
BITMAP
0180
0240
0220
0420
0810
0808
1008
1004
2004
4002
4001
8001
FFFF
ENDCHAR
STARTCHAR blackrightpointingtriangle
ENCODING 9654
SWIDTH 1100 0
DWIDTH 31 0
BBX 17 19 7 -1
BITMAP
1E0000
318000
704000
F03000
F00C00
F10200
F1C180
F12080
F14080
F18100
F00600
F00800
F03000
F0C000
F18000
FE0000
F80000
F00000
C00000
ENDCHAR
STARTCHAR whiterightpointingtriangle
ENCODING 9655
SWIDTH 1100 0
DWIDTH 31 0
BBX 13 16 11 2
BITMAP
E000
9000
8C00
8300
8080
8060
8010
8008
8008
8030
8040
8180
8600
8800
B000
C000
ENDCHAR
STARTCHAR blackdownpointingtriangle
ENCODING 9660
SWIDTH 1100 0
DWIDTH 31 0
BBX 20 16 6 1
BITMAP
1FFFE0
300010
700020
F87C20
F84840
FC2880
7E3080
7E1100
3F0200
1F0200
1F8400
0FC400
0FC800
07F000
03E000
038000
ENDCHAR
STARTCHAR whitedownpointingtriangle
ENCODING 9661
SWIDTH 1100 0
DWIDTH 31 0
BBX 16 13 9 4
BITMAP
FFFF
8001
4001
4002
2002
2004
1008
0808
0810
0410
0420
0240
01C0
ENDCHAR
STARTCHAR blackleftpointingtriangle
ENCODING 9664
SWIDTH 1100 0
DWIDTH 31 0
BBX 17 20 7 -1
BITMAP
000100
000680
000880
003080
00C080
010080
060C80
081480
106480
302480
7C1880
FE0080
FF8080
7FC080
1FF080
0FFC80
03FF80
00FE00
007C00
001800
ENDCHAR
STARTCHAR whiteleftpointingtriangle
ENCODING 9665
SWIDTH 1100 0
DWIDTH 31 0
BBX 13 16 11 2
BITMAP
0038
00C8
0308
0408
1808
2008
C008
8008
8008
4008
3008
0C08
0208
0188
0048
0038
ENDCHAR
STARTCHAR blackdiamond
ENCODING 9670
SWIDTH 1100 0
DWIDTH 31 0
BBX 21 21 5 -2
BITMAP
001800
002400
004200
008100
010080
020840
041420
082210
104108
304208
782410
FC1820
FE0040
7F0080
3F8100
1FC200
0FE400
07F800
03E000
01C000
008000
ENDCHAR
STARTCHAR lozenge
ENCODING 9674
SWIDTH 831 0
DWIDTH 23 0
BBX 21 24 1 -3
BITMAP
00FF80
010040
020040
063E20
0E4120
0C4120
1C8890
188890
391C88
311C48
713E48
713C48
F11C48
F89C88
F88890
FC8110
7C4120
7E4120
3E3E40
3F0040
1F0080
1FFF00
0FFE00
0FFC00
ENDCHAR
STARTCHAR uni25D6
ENCODING 9686
SWIDTH 546 0
DWIDTH 15 0
BBX 16 30 0 -5
BITMAP
007F
01BF
03FF
07FF
0FFF
1FFF
3FFF
5FFF
7FFF
7FFF
FFFF
FFFF
FFFF
FFFF
FFFF
FFFF
FFFF
FFFF
FFFF
7FFF
7FFF
7FFF
3FFF
3FFF
1FFF
0FFF
07FF
03FF
00FF
001F
ENDCHAR
STARTCHAR uni25D7
ENCODING 9687
SWIDTH 546 0
DWIDTH 15 0
BBX 16 30 -1 -5
BITMAP
FE00
FF80
FFE0
FFD0
FFE8
FFF4
FFFC
FFFE
FFFE
FFFE
FFFF
FFFF
FFFF
FFFF
FFFF
FFFF
FFFF
FFFF
FFFF
FFFF
FFFD
FFFE
FFFA
FFFC
FFF8
FFF0
FFE0
FF40
FF80
FC00
ENDCHAR
STARTCHAR uni25DC
ENCODING 9692
SWIDTH 1280 0
DWIDTH 36 0
BBX 30 30 3 -5
BITMAP
00007FFC
0007FFFC
0017FFFC
005FFFFC
00FFFFFC
01FFFFFC
03FFFFFC
07FFFFFC
0FFFFFFC
17FFFFFC
1FFFFFFC
3FFFFFFC
3FFFFFFC
3FFFFFFC
7FFFFFFC
7FFFFFFC
BFFFFFFC
FFFFFFFC
FFFFFFFC
FFFFFFFC
FFFFFFFC
FFFFFFFC
FFFFFFFC
FFFFFFFC
FFFFFFFC
FFFFFFFC
FFFFFFFC
FFFFFFFC
FFFFFFFC
FFFFFFFC
ENDCHAR
STARTCHAR uni25DD
ENCODING 9693
SWIDTH 1280 0
DWIDTH 36 0
BBX 30 30 3 -5
BITMAP
FFF80000
FFFF0000
FFFFE000
FFFFF800
FFFFF400
FFFFFE00
FFFFFF00
FFFFFF80
FFFFFFC0
FFFFFFC0
FFFFFFE0
FFFFFFD0
FFFFFFF0
FFFFFFF0
FFFFFFF8
FFFFFFF8
FFFFFFF8
FFFFFFF4
FFFFFFFC
FFFFFFFC
FFFFFFFC
FFFFFFFC
FFFFFFFC
FFFFFFFC
FFFFFFFC
FFFFFFFC
FFFFFFFC
FFFFFFFC
FFFFFFFC
FFFFFFFC
ENDCHAR
STARTCHAR uni25DE
ENCODING 9694
SWIDTH 1280 0
DWIDTH 36 0
BBX 30 30 3 -5
BITMAP
FFFFFFFC
FFFFFFFC
FFFFFFFC
FFFFFFFC
FFFFFFFC
FFFFFFFC
FFFFFFFC
FFFFFFFC
FFFFFFFC
FFFFFFFC
FFFFFFFC
FFFFFFF8
FFFFFFF8
FFFFFFF8
FFFFFFF8
FFFFFFF0
FFFFFFF0
FFFFFFF0
FFFFFFE0
FFFFFFE0
FFFFFFC0
FFFFFF40
FFFFFF80
FFFFFF00
FFFFFA00
FFFFF800
FFFFD000
FFFFE000
FFF70000
FFE80000
ENDCHAR
STARTCHAR uni25DF
ENCODING 9695
SWIDTH 1280 0
DWIDTH 36 0
BBX 30 30 3 -5
BITMAP
FFFFFFFC
FFFFFFFC
FFFFFFFC
FFFFFFFC
FFFFFFFC
FFFFFFFC
FFFFFFFC
FFFFFFFC
FFFFFFFC
FFFFFFFC
FFFFFFFC
FFFFFFFC
7FFFFFFC
7FFFFFFC
7FFFFFFC
7FFFFFFC
5FFFFFFC
3FFFFFFC
2FFFFFFC
1FFFFFFC
17FFFFFC
0FFFFFFC
07FFFFFC
03FFFFFC
01FFFFFC
00FFFFFC
002FFFFC
001FFFFC
0003FFFC
00003FFC
ENDCHAR
STARTCHAR uni261A
ENCODING 9754
SWIDTH 1100 0
DWIDTH 31 0
BBX 24 18 3 0
BITMAP
00000F
00FF11
1F00F1
300009
700009
FFF009
FF8009
FFF809
07C009
07C009
07F809
03C009
03C009
03FFF1
01FFF1
01FFFF
003EFC
0000F8
ENDCHAR
STARTCHAR uni261B
ENCODING 9755
SWIDTH 1100 0
DWIDTH 31 0
BBX 24 18 4 0
BITMAP
0E0000
311FF0
71E00F
F10001
F10001
F101FE
F1003C
F101B8
F10040
F10040
F10380
F10040
F10040
F1FF80
F1FE00
FFFC00
FFC000
F00000
ENDCHAR
STARTCHAR uni261C
ENCODING 9756
SWIDTH 1100 0
DWIDTH 31 0
BBX 20 15 7 3
BITMAP
0000F0
03F0B0
FC0FB0
8000B0
FB00B0
0400B0
0400B0
0780B0
0400B0
0400B0
0380B0
0200B0
0201B0
01FEB0
0000F0
ENDCHAR
STARTCHAR uni261D
ENCODING 9757
SWIDTH 1100 0
DWIDTH 31 0
BBX 15 21 10 0
BITMAP
3000
4800
4800
4800
4800
4800
4F80
4A70
4A48
4148
4008
4008
4008
4008
4008
4008
2008
FFFE
8002
FFFE
FFFE
ENDCHAR
STARTCHAR uni261E
ENCODING 9758
SWIDTH 1100 0
DWIDTH 31 0
BBX 21 15 7 3
BITMAP
700000
C87E00
CF81F8
C80008
C80EF8
C80100
C80100
C80E00
C80200
C80200
C81C00
C80400
C80400
CFF800
F80000
ENDCHAR
STARTCHAR uni261F
ENCODING 9759
SWIDTH 1100 0
DWIDTH 31 0
BBX 15 21 10 0
BITMAP
7FFC
FFFE
8002
8002
FFFC
2008
4008
4008
4008
4004
4004
4804
2924
2924
1F24
01C4
0028
0028
0028
0028
0038
ENDCHAR
STARTCHAR uni27A1
ENCODING 10145
SWIDTH 650 0
DWIDTH 18 0
BBX 19 42 -1 -11
BITMAP
380000
7C0000
7A0000
7E0000
7F0000
7F8000
FF4000
FFC000
FFE000
FFF000
FFE800
FFF800
FFFC00
FFFE00
FFFD00
FFFF00
FFFF80
FFFFC0
FFFFA0
FFFFE0
FFFFE0
FFFFE0
FFFFE0
FFFFC0
FFFF40
FFFF80
FFFF00
FFFE00
FFFA00
FFFC00
FFF800
FFF000
FFD000
FFE000
FFC000
BF8000
7E8000
7F0000
7E0000
7C0000
740000
380000
ENDCHAR
STARTCHAR uni2B1B
ENCODING 11035
SWIDTH 1280 0
DWIDTH 36 0
BBX 30 30 3 -5
BITMAP
FFFFFFFC
FFFFFFFC
FFFFFFFC
FFFFFFFC
FFFFFFFC
FFFFFFFC
FFFFFFFC
FFFFFFFC
FFFFFFFC
FFFFFFFC
FFFFFFFC
FFFFFFFC
FFFFFFFC
FFFFFFFC
FFFFFFFC
FFFFFFFC
FFFFFFFC
FFFFFFFC
FFFFFFFC
FFFFFFFC
FFFFFFFC
FFFFFFFC
FFFFFFFC
FFFFFFFC
FFFFFFFC
FFFFFFFC
FFFFFFFC
FFFFFFFC
FFFFFFFC
FFFFFFFC
ENDCHAR
STARTCHAR uni2B24
ENCODING 11044
SWIDTH 1280 0
DWIDTH 36 0
BBX 32 32 2 -6
BITMAP
000FF800
007FF600
01FFFF80
07FFFFC0
0BFFFFE0
17FFFFF0
1FFFFFF8
3FFFFFFC
5FFFFFFC
7FFFFFFE
7FFFFFFE
FFFFFFFE
FFFFFFFF
FFFFFFFF
FFFFFFFF
FFFFFFFF
FFFFFFFF
FFFFFFFF
FFFFFFFF
FFFFFFFF
FFFFFFFE
7FFFFFFE
7FFFFFFE
7FFFFFFC
3FFFFFFC
2FFFFFF8
1FFFFFE8
0FFFFFD0
05FFFFA0
03FFFFC0
00DFFB00
003FFC00
ENDCHAR
STARTCHAR A.salt
ENCODING 57600
SWIDTH 836 0
DWIDTH 23 0
BBX 21 24 1 -3
BITMAP
01FFC0
060030
080008
10FF88
310048
710048
713E48
F13E48
F13E48
F13E48
F13E48
F10048
F10048
F1FFC8
F10048
F10048
F13E48
F13E48
F03E08
F03E08
F03E08
FFDFF0
FF1FE0
FE1FC0
ENDCHAR
STARTCHAR Agrave.salt
ENCODING 57601
SWIDTH 836 0
DWIDTH 23 0
BBX 21 30 1 -3
BITMAP
03FF80
060060
0E7C20
1E0320
1E0020
1FFE20
1FC1C0
1C0030
080008
10FF88
310048
710048
713E48
F13E48
F13E48
F13E48
F13E48
F10048
F10048
F1FFC8
F10048
F10048
F13E48
F13E48
F03E08
F03E08
F03E08
FFDFF0
FF1FE0
FE1FC0
ENDCHAR
STARTCHAR Aacute.salt
ENCODING 57602
SWIDTH 836 0
DWIDTH 23 0
BBX 21 30 1 -3
BITMAP
00FFE0
030020
060F20
0E7020
1E0020
1E3FC0
1FC1C0
1C0030
180008
10FF88
310048
710048
713E48
F13E48
F13E48
F13E48
F13E48
F10048
F10048
F1FFC8
F10048
F10048
F13E48
F13E48
F03E08
F03E08
F03E08
FFDFF0
FF1FE0
FE1FC0
ENDCHAR
STARTCHAR Acircumflex.salt
ENCODING 57603
SWIDTH 836 0
DWIDTH 23 0
BBX 21 31 1 -3
BITMAP
003E00
00C180
030860
067720
0E0020
1E0820
1EFFA0
1FC1C0
1C0030
180008
10FF88
310048
710048
713E48
F13E48
F13E48
F13E48
F13E48
F10048
F10048
F1FFC8
F10048
F10048
F13E48
F13E48
F03E08
F03E08
F03E08
FFDFF0
FF1FE0
FE1FC0
ENDCHAR
STARTCHAR Atilde.salt
ENCODING 57604
SWIDTH 836 0
DWIDTH 23 0
BBX 21 30 1 -3
BITMAP
01FFC0
020020
066020
0E1F20
1E0020
1EFC40
1FC3C0
1C0030
180008
10FF88
310048
710048
713E48
F13E48
F13E48
F13E48
F13E48
F10048
F10048
F1FFC8
F10048
F10048
F13E48
F13E48
F03E08
F03E08
F03E08
FFDFF0
FF1FE0
FE1FC0
ENDCHAR
STARTCHAR Adieresis.salt
ENCODING 57605
SWIDTH 836 0
DWIDTH 23 0
BBX 21 30 1 -3
BITMAP
03F7E0
040810
1C8890
3C8890
3C0810
3E3E20
3FC1C0
3C0030
380008
10FF88
310048
710048
713E48
F13E48
F13E48
F13E48
F13E48
F10048
F10048
F1FFC8
F10048
F10048
F13E48
F13E48
F03E08
F03E08
F03E08
FFDFF0
FF1FE0
FE1FC0
ENDCHAR
STARTCHAR Aring.salt
ENCODING 57606
SWIDTH 836 0
DWIDTH 23 0
BBX 21 31 1 -3
BITMAP
005D00
0180C0
023E20
044120
0C98A0
1C9CA0
1C9CA0
3E88A0
3C4110
383E08
10FF88
310048
710048
713E48
F13E48
F13E48
F13E48
F13E48
F10048
F10048
F1FFC8
F10048
F10048
F13E48
F13E48
F03E08
F03E08
F03E08
FFDFF0
FF1FE0
FE1FC0
ENDCHAR
STARTCHAR Amacron.salt
ENCODING 57607
SWIDTH 836 0
DWIDTH 23 0
BBX 21 29 1 -3
BITMAP
03FFE0
060020
0E7F20
1E0020
1E3E40
1FC1C0
1C0030
180008
10FF88
310048
710048
F13E48
F13E48
F13E48
F13E48
F13E48
F10048
F10048
F1FFC8
F10048
F10048
F13E48
F13E48
F03E08
F03E08
F03E08
FFDFF0
FF1FE0
FE1FC0
ENDCHAR
STARTCHAR Abreve.salt
ENCODING 57608
SWIDTH 836 0
DWIDTH 23 0
BBX 21 31 1 -3
BITMAP
03E3E0
041420
0C9CA0
1E80A0
1E7F20
1F0040
1FC180
1FFFC0
1C0030
080008
10FF88
310048
710048
713E48
F13E48
F13E48
F13E48
F13E48
F10048
F10048
F1FFC8
F10048
F10048
F13E48
F13E48
F03E08
F03E08
F03E08
FFDFF0
FF1FE0
FE1FC0
ENDCHAR
STARTCHAR Aogonek.salt
ENCODING 57609
SWIDTH 836 0
DWIDTH 23 0
BBX 21 30 1 -9
BITMAP
01FFC0
060030
080008
10FF88
310048
710048
713E48
F13E48
F13E48
F13E48
F13E48
F10048
F10048
F1FFC8
F10048
F10048
F13E48
F13E48
F03E48
F03E88
F03E88
FFDC90
FF1C88
FE1C88
003C68
003E08
003FF8
003FF0
001FC0
000780
ENDCHAR
STARTCHAR E.salt
ENCODING 57610
SWIDTH 743 0
DWIDTH 21 0
BBX 19 24 1 -3
BITMAP
01FFC0
060020
080020
18FF20
310020
710020
723FC0
F23F80
F20080
F20080
F3FC80
F20080
F20080
F23F00
F23E00
F21FC0
F10020
F18020
F87F20
F80020
FE0020
7FFFC0
3FFF80
1FFF00
ENDCHAR
STARTCHAR Egrave.salt
ENCODING 57611
SWIDTH 743 0
DWIDTH 21 0
BBX 19 30 1 -3
BITMAP
07FF80
0C0040
1CF840
3C0640
3E0040
3FFC40
3FFFC0
3C0020
080020
18FF20
310020
710020
723FC0
F23F80
F20080
F20080
F3FC80
F20080
F20080
F23F00
F23E00
F21FC0
F10020
F18020
F87F20
F80020
FE0020
7FFFC0
3FFF80
1FFF00
ENDCHAR
STARTCHAR Eacute.salt
ENCODING 57612
SWIDTH 743 0
DWIDTH 21 0
BBX 19 30 1 -3
BITMAP
01FFE0
020020
041F20
0C6020
1C0040
3E7F80
3FFFC0
3C0020
180020
18FF20
310020
710020
723FC0
F23F80
F20080
F20080
F3FC80
F20080
F20080
F23F00
F23E00
F21FC0
F10020
F18020
F87F20
F80020
FE0020
7FFFC0
3FFF80
1FFF00
ENDCHAR
STARTCHAR Ecircumflex.salt
ENCODING 57613
SWIDTH 743 0
DWIDTH 21 0
BBX 19 31 1 -3
BITMAP
003C00
01C380
021040
046E40
1C0040
3C1840
3CFF40
3FFFC0
3C0020
380020
18FF20
310020
710020
723FC0
F23F80
F20080
F20080
F3FC80
F20080
F20080
F23F00
F23E00
F21FC0
F10020
F18020
F87F20
F80020
FE0020
7FFFC0
3FFF80
1FFF00
ENDCHAR
STARTCHAR Edieresis.salt
ENCODING 57614
SWIDTH 743 0
DWIDTH 21 0
BBX 19 30 1 -3
BITMAP
07F7E0
0C1820
1C9920
3C9920
3C1820
3C1C20
3FFFC0
3C0020
380020
18FF20
310020
710020
723FC0
F23F80
F20080
F20080
F3FC80
F20080
F20080
F23F00
F23E00
F21FC0
F10020
F18020
F87F20
F80020
FE0020
7FFFC0
3FFF80
1FFF00
ENDCHAR
STARTCHAR Emacron.salt
ENCODING 57615
SWIDTH 743 0
DWIDTH 21 0
BBX 19 29 1 -3
BITMAP
03FFE0
040020
1C7F20
3C0020
3E0040
3FFFC0
3C0020
180020
18FF20
310020
710020
723FC0
F23F80
F20080
F20080
F3FC80
F20080
F20080
F23F00
F23E00
F21FE0
F10020
F18020
F87F20
F80020
FE0020
7FFFC0
3FFF80
1FFF00
ENDCHAR
STARTCHAR Ebreve.salt
ENCODING 57616
SWIDTH 743 0
DWIDTH 21 0
BBX 19 31 1 -3
BITMAP
03E3C0
042420
0C9CA0
1C8120
3C7E20
3E0040
3FC180
1FFFC0
1C0020
080020
18FF20
310020
710020
723FC0
F23F80
F20080
F20080
F3FC80
F20080
F20080
F23F00
F23E00
F21FC0
F10020
F18020
F87F20
F80020
FE0020
7FFFC0
3FFF80
1FFF00
ENDCHAR
STARTCHAR Edotaccent.salt
ENCODING 57617
SWIDTH 743 0
DWIDTH 21 0
BBX 19 30 1 -3
BITMAP
00FF00
018100
038900
078900
078100
07C100
07FFC0
040020
080020
18FF20
310020
710020
723FC0
F23F80
F20080
F20080
F3FC80
F20080
F20080
F23F00
F23E00
F21FC0
F10020
F18020
F87F20
F80020
FE0020
7FFFC0
3FFF80
1FFF00
ENDCHAR
STARTCHAR Eogonek.salt
ENCODING 57618
SWIDTH 743 0
DWIDTH 21 0
BBX 19 30 1 -9
BITMAP
01FFC0
060020
080020
10FF20
310020
710020
723FC0
F23F80
F20080
F20080
F3FC80
F20080
F20080
F23F00
F23E00
F21FC0
F10020
F18020
F87F20
F80220
FE0220
7FF240
3FF220
1FF220
00F120
00F820
00FFE0
00FF80
00FF00
001E00
ENDCHAR
STARTCHAR Ecaron.salt
ENCODING 57619
SWIDTH 743 0
DWIDTH 21 0
BBX 19 31 1 -3
BITMAP
0381C0
047E20
0C0020
1C6320
3C1C20
3F00C0
3FE700
3FFFC0
0C0020
080020
18FF20
310020
710020
723FC0
F23F80
F20080
F20080
F3FC80
F20080
F20080
F23F00
F23E00
F21FC0
F10020
F18020
F87F20
F80020
FE0020
7FFFC0
3FFF80
1FFF00
ENDCHAR
STARTCHAR I.salt
ENCODING 57620
SWIDTH 471 0
DWIDTH 13 0
BBX 11 24 1 -3
BITMAP
0FC0
1020
3020
7120
F120
F120
F120
F120
F120
F120
F120
F120
F120
F120
F120
F120
F120
F120
F020
F020
F020
FFC0
FF80
FF00
ENDCHAR
STARTCHAR Igrave.salt
ENCODING 57621
SWIDTH 471 0
DWIDTH 13 0
BBX 14 30 0 -3
BITMAP
0FF8
1004
77C4
F024
F804
FFE4
FFF8
7810
1810
3890
7890
7890
7890
7890
7890
7890
7890
7890
7890
7890
7890
7890
7890
7890
7810
7810
7810
7FE0
7FC0
7F80
ENDCHAR
STARTCHAR Iacute.salt
ENCODING 57622
SWIDTH 471 0
DWIDTH 13 0
BBX 14 30 0 -3
BITMAP
07FC
0804
11E4
3004
7004
FBF8
FFE0
F810
7810
3890
7890
7890
7890
7890
7890
7890
7890
7890
7890
7890
7890
7890
7890
7890
7810
7810
7810
7FE0
7FC0
7F80
ENDCHAR
STARTCHAR Icircumflex.salt
ENCODING 57623
SWIDTH 471 0
DWIDTH 13 0
BBX 14 31 0 -3
BITMAP
03E0
0C18
1084
2364
6004
E084
FFFC
FFF0
F810
1810
3890
7890
7890
7890
7890
7890
7890
7890
7890
7890
7890
7890
7890
7890
7890
7810
7810
7810
7FE0
7FC0
7F80
ENDCHAR
STARTCHAR Idieresis.salt
ENCODING 57624
SWIDTH 471 0
DWIDTH 13 0
BBX 15 30 0 -3
BITMAP
1F7E
20C2
E4CA
E4CA
E0C2
F1C2
FFFC
F808
1810
3890
7890
7890
7890
7890
7890
7890
7890
7890
7890
7890
7890
7890
7890
7890
7810
7810
7810
7FE0
7FC0
7F80
ENDCHAR
STARTCHAR Itilde.salt
ENCODING 57625
SWIDTH 471 0
DWIDTH 13 0
BBX 14 30 0 -3
BITMAP
0FFC
3004
6204
E1E4
E004
EF88
FFF0
F810
1810
3890
7890
7890
7890
7890
7890
7890
7890
7890
7890
7890
7890
7890
7890
7890
7810
7810
7810
7FE0
7FC0
7F80
ENDCHAR
STARTCHAR Imacron.salt
ENCODING 57626
SWIDTH 471 0
DWIDTH 13 0
BBX 13 29 0 -3
BITMAP
1FF8
3008
73C8
F008
F808
FFF0
F810
F810
3890
7890
7890
7890
7890
7890
7890
7890
7890
7890
7890
7890
7890
7890
7890
7810
7810
7810
7FE0
7FC0
7F80
ENDCHAR
STARTCHAR Ibreve.salt
ENCODING 57627
SWIDTH 471 0
DWIDTH 13 0
BBX 15 31 -1 -3
BITMAP
0FBE
1042
324A
720A
F1F2
F804
FE08
FFF0
7C08
3C08
1C48
3C48
3C48
3C48
3C48
3C48
3C48
3C48
3C48
3C48
3C48
3C48
3C48
3C48
3C48
3C08
3C08
3C08
3FF0
3FE0
3FC0
ENDCHAR
STARTCHAR Iogonek.salt
ENCODING 57628
SWIDTH 471 0
DWIDTH 13 0
BBX 11 30 1 -9
BITMAP
0FC0
1020
3020
7120
7120
7120
7120
7120
7120
7120
7120
7120
7120
7120
7120
7120
7120
7120
7120
7220
7220
7240
7220
F220
F120
F020
FFE0
FF80
FF00
3E00
ENDCHAR
STARTCHAR Idotaccent.salt
ENCODING 57629
SWIDTH 471 0
DWIDTH 13 0
BBX 11 30 1 -3
BITMAP
1FE0
3020
7120
F120
F020
F820
FFC0
F020
7020
7120
F120
F120
F120
F120
F120
F120
F120
F120
F120
F120
F120
F120
F120
F120
F020
F020
F020
FFC0
FF80
FF00
ENDCHAR
STARTCHAR L.salt
ENCODING 57630
SWIDTH 715 0
DWIDTH 20 0
BBX 19 24 1 -3
BITMAP
0FC000
102000
302000
712000
F12000
F12000
F12000
F12000
F12000
F12000
F12000
F12000
F12000
F12000
F12000
F11FC0
F10020
F10020
F0FF20
F00020
F00020
FFFFC0
FFFF80
FFFF00
ENDCHAR
STARTCHAR Lacute.salt
ENCODING 57631
SWIDTH 715 0
DWIDTH 20 0
BBX 19 30 1 -3
BITMAP
07FF00
080080
107880
718080
F00100
F1FE00
FFF800
F03000
F02000
712000
F12000
F12000
F12000
F12000
F12000
F12000
F12000
F12000
F12000
F12000
F12000
F11FC0
F10020
F10020
F0FF20
F00020
F00020
FFFFC0
FFFF80
FFFF00
ENDCHAR
STARTCHAR Lcommaaccent.salt
ENCODING 57632
SWIDTH 715 0
DWIDTH 20 0
BBX 19 35 1 -14
BITMAP
0FC000
102000
302000
712000
F12000
F12000
F12000
F12000
F12000
F12000
F12000
F12000
F12000
F12000
F12000
F11FC0
F10020
F10020
F0FF20
F00020
F00020
FFFFC0
FF8180
FF0100
033A00
070600
0F0600
0FF600
0FEA00
0FB200
078400
07F800
07F000
07E000
030000
ENDCHAR
STARTCHAR Lcaron.salt
ENCODING 57633
SWIDTH 715 0
DWIDTH 20 0
BBX 20 24 1 -3
BITMAP
0FC3E0
102410
302810
711890
F11920
F11920
F11820
F11820
F11FC0
F11F00
F11E00
F11C00
F12000
F12000
F12000
F11FC0
F10020
F10020
F0FF20
F00020
F00020
FFFFC0
FFFF80
FFFF00
ENDCHAR
STARTCHAR Ldot.salt
ENCODING 57634
SWIDTH 715 0
DWIDTH 20 0
BBX 19 24 1 -3
BITMAP
0FC000
102000
302000
712000
F12000
F127C0
F12820
F11820
F11920
F11920
F11820
F11820
F11FC0
F11F80
F11F00
F11FC0
F10020
F10020
F0FF20
F00020
F00020
FFFFC0
FFFF80
FFFF00
ENDCHAR
STARTCHAR Lslash.salt
ENCODING 57635
SWIDTH 725 0
DWIDTH 20 0
BBX 20 24 0 -3
BITMAP
03E000
041000
181000
389000
389000
389000
388C00
388200
308200
30F200
738200
F08600
F08800
F89000
F89000
F88FF0
388010
388010
387F90
380010
3C0010
3FFFE0
3FFFC0
3FFF80
ENDCHAR
STARTCHAR M.salt
ENCODING 57636
SWIDTH 1170 0
DWIDTH 33 0
BBX 31 24 1 -3
BITMAP
01FF3FF0
0600C008
08000004
10FF3FC2
3100C022
71004012
F13C4F12
F13C4F12
F13C4F12
F13C4F12
F13C4F12
F13C4F12
F13C4F12
F13C4F12
F13C4F12
F13C4F12
F13C4F12
F13C4F12
F03C0F02
F03C0F02
F03C0F02
FFFFFFFC
FF3FCFF8
FE3F8FE0
ENDCHAR
STARTCHAR N.salt
ENCODING 57637
SWIDTH 846 0
DWIDTH 24 0
BBX 22 24 1 -3
BITMAP
01FFC0
060030
080008
10FF84
310044
710044
713E24
F13E24
F13E24
F13E24
F13E24
F13E24
F13E24
F13E24
F13E24
F13E24
F13E24
F13E24
F03E04
F03E04
F03E04
FFDFF8
FF1FE0
FE1FC0
ENDCHAR
STARTCHAR Ntilde.salt
ENCODING 57638
SWIDTH 846 0
DWIDTH 24 0
BBX 22 30 1 -3
BITMAP
01FFC0
020020
066020
0E1F20
1E0020
1EFC40
1FE3C0
1C0030
180008
10FF88
310044
710044
713E24
F13E24
F13E24
F13E24
F13E24
F13E24
F13E24
F13E24
F13E24
F13E24
F13E24
F13E24
F03E04
F03E04
F03E04
FFDFF8
FF1FE0
FE1FC0
ENDCHAR
STARTCHAR Nacute.salt
ENCODING 57639
SWIDTH 846 0
DWIDTH 24 0
BBX 22 30 1 -3
BITMAP
00FFE0
010020
020F20
0E3020
1E0020
1E3FC0
1FE1C0
1C0030
180008
10FF88
310044
710044
713E24
F13E24
F13E24
F13E24
F13E24
F13E24
F13E24
F13E24
F13E24
F13E24
F13E24
F13E24
F03E04
F03E04
F03E04
FFDFF8
FF1FE0
FE1FC0
ENDCHAR
STARTCHAR Ncommaaccent.salt
ENCODING 57640
SWIDTH 846 0
DWIDTH 24 0
BBX 22 35 1 -14
BITMAP
01FFC0
060030
080008
10FF84
310044
710044
713E24
F13E24
F13E24
F13E24
F13E24
F13E24
F13E24
F13E24
F13E24
F13E24
F13E24
F13E24
F03E04
F03E04
F03E04
FFDFF8
FF60E0
FE80C0
019C80
038280
038280
03FA80
03F300
03DD00
03C200
03FC00
03F800
03F000
03C000
ENDCHAR
STARTCHAR Ncaron.salt
ENCODING 57641
SWIDTH 846 0
DWIDTH 24 0
BBX 22 31 1 -3
BITMAP
01C0E0
063F20
0E0020
1E6320
1E1C20
1F8040
1FF380
1FEDC0
0C0030
080008
10FF84
310044
710044
713E24
F13E24
F13E24
F13E24
F13E24
F13E24
F13E24
F13E24
F13E24
F13E24
F13E24
F13E24
F03E04
F03E04
F03E04
FFDFF8
FF1FE0
FE1FC0
ENDCHAR
STARTCHAR W.salt
ENCODING 57642
SWIDTH 1170 0
DWIDTH 33 0
BBX 31 25 1 -4
BITMAP
0F83F0FC
10240902
302C0B02
723C4F12
F23C4F12
F23C4F12
F23C4F12
F23C4F12
F23C4F12
F23C4F12
F23C4F12
F23C4F12
F23C4F12
F23C4F12
F23C4F12
F21C4712
F1004012
F100A022
F8FF1FC2
F8000004
FC00C008
7FFFFFF0
7FFFFFC0
1FFBFF80
07C07C00
ENDCHAR
STARTCHAR Wcircumflex.salt
ENCODING 57643
SWIDTH 1170 0
DWIDTH 33 0
BBX 31 32 1 -4
BITMAP
0001E000
000E1C00
00104200
0023B900
00600100
00E0C100
01E7F900
0FFFFEFC
103C0902
302C0B02
723C4F12
F23C4F12
F23C4F12
F23C4F12
F23C4F12
F23C4F12
F23C4F12
F23C4F12
F23C4F12
F23C4F12
F23C4F12
F23C4F12
F21C4712
F1004012
F100A022
F8FF1FC2
F8000004
FC00C008
7FFFFFF0
7FFFFFC0
1FFBFF80
07C07C00
ENDCHAR
STARTCHAR Wgrave.salt
ENCODING 57644
SWIDTH 1170 0
DWIDTH 33 0
BBX 31 31 1 -4
BITMAP
003FFC00
00600200
00E3C200
01E03200
01F00200
01FFF200
0FFFFCFC
103C0902
302C0B02
723C4F12
F23C4F12
F23C4F12
F23C4F12
F23C4F12
F23C4F12
F23C4F12
F23C4F12
F23C4F12
F23C4F12
F23C4F12
F23C4F12
F21C4712
F1004012
F100A022
F8FF1FC2
F8000004
FC00C008
7FFFFFF0
7FFFFFC0
1FFBFF80
07C07C00
ENDCHAR
STARTCHAR Wacute.salt
ENCODING 57645
SWIDTH 1170 0
DWIDTH 33 0
BBX 31 31 1 -4
BITMAP
0007FF00
00180100
0030F900
00730100
00F00200
00F1FC00
0FFFF8FC
103C0902
303C0B02
723C4F12
F23C4F12
F23C4F12
F23C4F12
F23C4F12
F23C4F12
F23C4F12
F23C4F12
F23C4F12
F23C4F12
F23C4F12
F23C4F12
F21C4712
F1004012
F100A022
F8FF1FC2
F8000004
FC00C008
7FFFFFF0
7FFFFFC0
1FFBFF80
07C07C00
ENDCHAR
STARTCHAR Wdieresis.salt
ENCODING 57646
SWIDTH 1170 0
DWIDTH 33 0
BBX 31 31 1 -4
BITMAP
003FFF00
0060C100
00E4C900
01E4C900
01E0C100
01E0E100
0FFFFEFC
103C0902
303C0B02
723C4F12
F23C4F12
F23C4F12
F23C4F12
F23C4F12
F23C4F12
F23C4F12
F23C4F12
F23C4F12
F23C4F12
F23C4F12
F23C4F12
F21C4712
F1004012
F100A022
F8FF1FC2
F8000004
FC00C008
7FFFFFF0
7FFFFFC0
1FFBFF80
07C07C00
ENDCHAR
STARTCHAR X.salt
ENCODING 57647
SWIDTH 837 0
DWIDTH 23 0
BBX 21 24 1 -3
BITMAP
07C1F0
082208
381C08
789C48
789C90
7C8C90
7C8890
7C4910
3C4110
384108
307F08
3180C8
710048
F10028
F13E28
F13E28
F13E28
F13E28
F03E08
F03E08
F03E08
FFDFF0
FF1FE0
FE1FC0
ENDCHAR
STARTCHAR Y.salt
ENCODING 57648
SWIDTH 806 0
DWIDTH 23 0
BBX 21 24 1 -3
BITMAP
0F83F0
104408
302C08
F23C48
F23C48
F23C48
F23C48
F23C48
F23C48
F23C48
F20048
F10088
F0FF08
F80810
FC0820
FF89C0
7F8900
3F8900
078100
078100
078100
07FE00
07FC00
07F000
ENDCHAR
STARTCHAR Yacute.salt
ENCODING 57649
SWIDTH 806 0
DWIDTH 23 0
BBX 21 30 1 -3
BITMAP
01FFE0
020020
061F20
0E6020
1E0040
1E3F80
1FFFF0
103C08
302C08
F23C48
F23C48
F23C48
F23C48
F23C48
F23C48
F23C48
F20048
F10088
F0FF08
F80810
FC0820
FF89C0
7F8900
3F8900
078100
078100
078100
07FE00
07FC00
07F000
ENDCHAR
STARTCHAR Ycircumflex.salt
ENCODING 57650
SWIDTH 806 0
DWIDTH 23 0
BBX 21 31 1 -3
BITMAP
003C00
01C380
020040
047E20
0C0020
1C1820
3CFF40
3FFFF0
303C08
303C08
F23C48
F23C48
F23C48
F23C48
F23C48
F23C48
F23C48
F20048
F10088
F0FF08
F80810
FC0820
FF89C0
7F8900
3F8900
078100
078100
078100
07FE00
07FC00
07F000
ENDCHAR
STARTCHAR Ydieresis.salt
ENCODING 57651
SWIDTH 806 0
DWIDTH 23 0
BBX 21 30 1 -3
BITMAP
07FFE0
0C1820
1C9920
3C9920
3C1820
3C1820
3FFFF0
303C08
303C08
F23C48
F23C48
F23C48
F23C48
F23C48
F23C48
F23C48
F20048
F10088
F0FF08
F80810
FC0820
FF89C0
7F8900
3F8900
078100
078100
078100
07FE00
07FC00
07F000
ENDCHAR
STARTCHAR Ygrave.salt
ENCODING 57652
SWIDTH 806 0
DWIDTH 23 0
BBX 21 30 1 -3
BITMAP
07FF80
0C0040
1CF840
3C0640
3E0040
3FFE40
3FFFF0
303C08
303C08
F23C48
F23C48
F23C48
F23C48
F23C48
F23C48
F23C48
F20048
F10088
F0FF08
F80810
FC0820
FF89C0
7F8900
3F8900
078100
078100
078100
07FE00
07FC00
07F000
ENDCHAR
STARTCHAR AE.salt
ENCODING 57653
SWIDTH 1113 0
DWIDTH 31 0
BBX 29 24 1 -3
BITMAP
00EFFFF0
03000008
04000008
087FFFE8
11804008
71004008
713E47F8
F13E47E0
F13E4020
F13E4010
F13E7F10
F1004010
F1004010
F1FFC7E0
F1004780
F10047F8
F13E4008
F13E4008
F13E3FE8
F03E0008
F03E0008
FFDFFFF8
FF1FFFE0
FE1FFFC0
ENDCHAR
STARTCHAR IJ.salt
ENCODING 57654
SWIDTH 1133 0
DWIDTH 32 0
BBX 30 25 1 -4
BITMAP
0FC001F8
10200204
30200604
71200E24
F1201E24
F1201E24
F1201E24
F1201E24
F1201E24
F123DE24
F12C3E24
F1181E24
F1181E24
F1189E24
F1189E24
F1189E24
F1188044
F118C044
F01C3F88
F01C0008
F01F0030
FFFFFFC0
FFBFFF80
FF1FFF00
0003F000
ENDCHAR
STARTCHAR IJ.stack
ENCODING 57655
SWIDTH 1363 0
DWIDTH 38 0
BBX 36 25 1 -4
BITMAP
0FFF8003E0
1000400C10
3000401810
73FE403890
F020407890
F020407890
FE23807890
FE23007890
FE22007890
7E220FF890
0E22107890
0E22203890
0E22603890
0E22E23890
0E22E23890
0E23E23890
1020220090
3020310110
F3DE30FE10
F000380020
F0003C0040
FFFFFFFF80
FFFF7FFE00
FFFE3FFC00
000007C000
ENDCHAR
STARTCHAR quoteleft.salt
ENCODING 57656
SWIDTH 407 0
DWIDTH 11 0
BBX 10 12 1 9
BITMAP
0700
0B40
1440
3780
7440
F440
F340
F040
FF80
FF00
FE00
FC00
ENDCHAR
STARTCHAR quoteright.salt
ENCODING 57657
SWIDTH 407 0
DWIDTH 11 0
BBX 10 12 1 9
BITMAP
0F80
1040
3640
F140
F140
FF40
F140
F680
FF00
FE00
F800
7000
ENDCHAR
STARTCHAR ampersand.salt
ENCODING 57658
SWIDTH 732 0
DWIDTH 21 0
BBX 20 29 0 -6
BITMAP
003F80
004080
00C0E0
010410
020410
043F90
0C4010
1C4010
3C4FE0
3C4FC0
3E4040
3F4040
387E40
188040
110040
711F80
713F00
F11FE0
F10010
F18010
F87F90
F80410
FE0410
7FC0E0
7FC0C0
1FE180
03FE00
03FC00
01F800
ENDCHAR
STARTCHAR caron.2
ENCODING 57659
SWIDTH 600 0
DWIDTH 17 0
BBX 11 12 3 9
BITMAP
07C0
0820
1020
7120
7240
7240
F040
F040
FF80
FF00
FC00
7800
ENDCHAR
STARTCHAR indexup
ENCODING 57660
SWIDTH 1100 0
DWIDTH 31 0
BBX 19 24 6 -3
BITMAP
030000
048000
0C8000
3C8000
3C8000
3CC000
38A800
389780
389480
381480
780080
780080
780080
7C0080
7C0080
7C0080
3C0080
33FF60
300020
700020
F00020
FFFFC0
FFFF80
FFFE00
ENDCHAR
STARTCHAR indexdown
ENCODING 57661
SWIDTH 1100 0
DWIDTH 31 0
BBX 19 24 6 -3
BITMAP
0FFFC0
100020
300020
700020
FFFFC0
FC0080
FC0080
FC0080
3C0080
380080
380080
380480
789480
789480
789300
789E00
7CFC00
7CF800
3C8000
3C8000
3C8000
3F0000
3E0000
380000
ENDCHAR
STARTCHAR indexupleft
ENCODING 57662
SWIDTH 1100 0
DWIDTH 31 0
BBX 22 27 4 -5
BITMAP
030000
048000
0C4000
1E2000
3F1800
7F8400
1F4200
1E2100
0F0100
0C8080
1C4050
1A0028
310044
380084
7C0104
FE0208
7F0410
3F8820
1FD040
0FE080
07C100
03C200
01E400
03F800
03E000
01C000
008000
ENDCHAR
STARTCHAR indexupright
ENCODING 57663
SWIDTH 1100 0
DWIDTH 31 0
BBX 22 27 4 -5
BITMAP
000030
000048
000084
000108
000210
000420
000860
001090
002130
00C048
02C048
058014
088024
104004
382008
7C1010
FE0820
7F0440
3F8280
1FC100
0FE080
07F080
03F900
01FE00
00F800
007000
002000
ENDCHAR
STARTCHAR indexdownleft
ENCODING 57664
SWIDTH 1100 0
DWIDTH 31 0
BBX 27 21 2 -2
BITMAP
0001C000
00022000
00041000
000F0800
001E8400
00384200
00102100
00201080
00400840
00800420
03000420
02100240
04200380
084C0600
10D11C00
31F22800
7BFC4000
FFFE8000
F0FF0000
607C0000
00180000
ENDCHAR
STARTCHAR indexdownright
ENCODING 57665
SWIDTH 1100 0
DWIDTH 31 0
BBX 27 21 2 -2
BITMAP
000E0000
00110000
00208000
00410000
00838000
01044000
02083000
04100800
08200400
10400200
30800200
79001100
FF800880
FFC04440
77E22C20
27F13E20
03F8FF40
01FDBF80
00FE1F00
007C0C00
00300000
ENDCHAR
STARTCHAR indexdownleft.outline
ENCODING 57666
SWIDTH 1100 0
DWIDTH 31 0
BBX 23 18 6 1
BITMAP
001C00
002E00
002700
001380
0029C0
0044E0
018270
020138
04009C
08004E
100026
230034
224048
448080
8B1100
90A200
606400
001800
ENDCHAR
STARTCHAR indexdownright.outline
ENCODING 57667
SWIDTH 1100 0
DWIDTH 31 0
BBX 23 18 6 1
BITMAP
006000
00D000
018800
031000
063000
0C4C00
188200
310100
620080
C40040
880020
580110
280888
040444
0223A2
011212
008C0C
007000
ENDCHAR
STARTCHAR indexupleft.outline
ENCODING 57668
SWIDTH 1100 0
DWIDTH 31 0
BBX 18 23 8 -1
BITMAP
300000
480000
440000
220000
110000
088000
0C6000
122000
101000
280800
240800
E00780
900440
4008C0
4011C0
202380
104700
088E00
071C00
023800
027000
02E000
01C000
ENDCHAR
STARTCHAR indexupright.outline
ENCODING 57669
SWIDTH 1100 0
DWIDTH 31 0
BBX 18 23 8 -1
BITMAP
000100
000280
000C80
001100
002200
004400
008A00
011100
020300
020480
040480
780140
480240
C40040
620080
310100
188200
0C4400
063800
031000
018800
00C800
007000
ENDCHAR
STARTCHAR uni261A.salt
ENCODING 57670
SWIDTH 1100 0
DWIDTH 31 0
BBX 24 18 3 -1
BITMAP
01FF9F
1E0071
300009
700009
FFF809
FFE409
FFE209
07E609
01E209
01FA11
01FC31
01FC71
00F8FE
0039FC
003EF8
007C00
007800
001000
ENDCHAR
STARTCHAR uni261B.salt
ENCODING 57671
SWIDTH 1100 0
DWIDTH 31 0
BBX 24 18 4 -1
BITMAP
1F3FF8
31C007
F10001
F10001
F103FE
F104FC
F104F8
F10880
F10880
F18500
F1C600
F1C400
FFE200
FBF200
F3FC00
01F000
00E000
004000
ENDCHAR
STARTCHAR indexdown.salt
ENCODING 57672
SWIDTH 1100 0
DWIDTH 31 0
BBX 19 24 6 -3
BITMAP
03FFC0
040020
0C0020
1C0020
1FFFC0
1F8080
1F0080
1E0040
040040
080020
10F820
3B8420
FF8420
FFC440
67FC40
07FC40
03FC40
003C40
003C40
003C40
003C40
003F80
003E00
003C00
ENDCHAR
STARTCHAR indexdownleft.salt
ENCODING 57673
SWIDTH 1100 0
DWIDTH 31 0
BBX 25 21 3 -2
BITMAP
0000C000
00032000
00041000
000E0800
001F0400
00388200
00204100
00402080
00801080
01000880
02000D00
061E0E00
0C230800
18709000
10F08800
31FF8800
73FFC800
FCFFF000
F027E000
E0038000
00030000
ENDCHAR
STARTCHAR indexdownright.salt
ENCODING 57674
SWIDTH 1100 0
DWIDTH 31 0
BBX 25 21 3 -2
BITMAP
00180000
00240000
00420000
00840000
01040000
020B8000
04106000
08201000
10401000
30800800
79800400
FF838200
FF8E4200
77886100
0790F080
071FF880
071DFC80
07F8FF00
0FB07C00
0F003800
02000000
ENDCHAR
STARTCHAR indexup.salt
ENCODING 57675
SWIDTH 1100 0
DWIDTH 31 0
BBX 19 24 6 -3
BITMAP
030000
048000
188000
388000
388000
388000
788000
78F800
788400
708400
7053C0
703C20
700040
F80080
F80100
7C0200
7C0400
73FB80
300080
700080
F00080
FFFF00
FFFC00
FFF800
ENDCHAR
ENDFONT
